<svg width="20" height="20" viewBox="0 0 20 20" fill="none" xmlns="http://www.w3.org/2000/svg">
  <g clip-path="url(#clip0_dribbble_cta)">
    <path
      d="M10.0003 18.3337C14.6027 18.3337 18.3337 14.6027 18.3337 10.0003C18.3337 5.39795 14.6027 1.66699 10.0003 1.66699C5.39795 1.66699 1.66699 5.39795 1.66699 10.0003C1.66699 14.6027 5.39795 18.3337 10.0003 18.3337Z"
      stroke="black"
      stroke-width="1.4"
      stroke-linecap="round"
      stroke-linejoin="round"
    />
    <path
      d="M7.13333 2.29199C10.775 7.31699 12.15 10.142 13.825 17.0587M15.9417 4.24199C12.8417 7.86699 8.49167 8.95866 1.875 9.11699M18.125 10.7003C15.2083 9.92533 12.6 10.017 10.675 10.7003C8.525 11.467 6.5 13.0837 4.475 15.967"
      stroke="black"
      stroke-width="1.4"
      stroke-linecap="round"
      stroke-linejoin="round"
    />
  </g>
  <defs>
    <clipPath id="clip0_dribbble_cta">
      <rect width="20" height="20" fill="white" />
    </clipPath>
  </defs>
</svg>
