<?xml version="1.0" standalone="no"?>
<!DOCTYPE svg PUBLIC "-//W3C//DTD SVG 20010904//EN"
 "http://www.w3.org/TR/2001/REC-SVG-20010904/DTD/svg10.dtd">
<svg version="1.0" xmlns="http://www.w3.org/2000/svg"
 width="700.000000pt" height="700.000000pt" viewBox="0 0 700.000000 700.000000"
 preserveAspectRatio="xMidYMid meet">
<metadata>
Created by potrace 1.14, written by Peter Selinger 2001-2017
</metadata>
<g transform="translate(0.000000,700.000000) scale(0.100000,-0.100000)"
fill="#000000" stroke="none">
<path d="M0 3500 l0 -3500 3500 0 3500 0 0 3500 0 3500 -3500 0 -3500 0 0
-3500z m5090 25 l0 -1695 -270 0 -270 0 0 1695 0 1695 270 0 270 0 0 -1695z
m-1844 650 c350 -60 560 -239 646 -550 22 -79 23 -86 26 -943 l3 -862 -263 2
-263 3 -3 136 -3 136 -72 -74 c-39 -41 -103 -94 -142 -118 -286 -178 -771
-161 -1033 36 -146 111 -232 304 -232 524 0 359 233 597 675 691 148 31 209
36 500 43 l300 6 3 54 c5 87 -16 254 -39 317 -30 80 -103 153 -184 184 -73 27
-232 38 -318 21 -166 -31 -282 -136 -311 -281 -16 -77 11 -70 -276 -70 l-260
0 7 48 c10 80 52 213 91 287 46 88 181 227 272 279 112 66 287 123 425 139 88
11 370 6 451 -8z"/>
<path d="M2915 2859 c-149 -15 -303 -66 -365 -122 -139 -123 -146 -370 -15
-485 64 -56 121 -74 255 -79 291 -12 504 109 576 327 14 43 18 89 18 210 l1
155 -190 1 c-104 1 -230 -2 -280 -7z"/>
</g>
</svg>
