<svg width="126" height="64" viewBox="0 0 126 64" fill="none" xmlns="http://www.w3.org/2000/svg">
<g clip-path="url(#clip0_4595_39448)">
<path d="M9.62975 42.8081H24.938C25.0614 42.8081 25.0614 42.9316 24.938 42.9316C23.0862 43.6723 20.6171 46.0179 20.6171 46.0179C18.8888 47.4993 17.5308 48.487 14.6913 48.487H0.12384C0.000386648 48.487 0.000386648 48.3635 0.12384 48.3635C1.72873 47.4993 4.07435 45.1537 4.07435 45.1537C5.06198 44.1661 7.03723 42.8081 9.62975 42.8081Z" fill="#555555"/>
<path d="M109.747 42.8081H125.055C125.179 42.8081 125.179 42.9316 125.055 42.9316C123.327 43.6723 120.858 46.0179 120.858 46.0179C119.129 47.4993 117.771 48.487 114.932 48.487H100.241C100.118 48.487 100.118 48.3635 100.241 48.3635C101.846 47.4993 104.192 45.1537 104.192 45.1537C105.303 44.1661 107.278 42.8081 109.747 42.8081Z" fill="#555555"/>
<path d="M34.6938 42.8081H50.002C50.1255 42.8081 50.1255 42.9316 50.002 42.9316C48.2737 43.6723 45.8046 46.0179 45.8046 46.0179C44.0763 47.4993 42.7183 48.487 39.8788 48.487H25.3113C25.1879 48.487 25.1879 48.3635 25.3113 48.3635C26.9162 47.4993 29.2618 45.1537 29.2618 45.1537C30.126 44.1661 32.1013 42.8081 34.6938 42.8081Z" fill="#555555"/>
<path d="M59.6313 42.8081H74.9395C75.063 42.8081 75.063 42.9316 74.9395 42.9316C73.2112 43.6723 70.7421 46.0179 70.7421 46.0179C69.0138 47.4993 67.6558 48.487 64.8163 48.487H50.2488C50.1254 48.487 50.1254 48.3635 50.2488 48.3635C51.8537 47.4993 54.1993 45.1537 54.1993 45.1537C55.187 44.1661 57.1622 42.8081 59.6313 42.8081Z" fill="#555555"/>
<path d="M84.686 42.8081H99.9942C100.118 42.8081 100.118 42.9316 99.9942 42.9316C98.2659 43.6723 95.7968 46.0179 95.7968 46.0179C94.0684 47.4993 92.7105 48.487 89.871 48.487H75.3035C75.1801 48.487 75.1801 48.3635 75.3035 48.3635C76.9084 47.4993 79.254 45.1537 79.254 45.1537C80.2417 44.1661 82.2169 42.8081 84.686 42.8081Z" fill="#555555"/>
<path d="M88.8864 15.1548C79.2571 15.1548 72.9609 19.7226 72.9609 26.7594C72.9609 33.179 78.7633 37.4998 87.5284 37.4998C90.3679 37.4998 92.8369 37.1295 95.7998 36.3888V30.9568C93.7011 33.179 91.232 34.0432 88.5161 34.0432C83.331 34.0432 79.8743 30.8334 79.8743 26.1421C79.8743 21.5744 83.5779 18.2411 88.6395 18.2411C91.479 18.2411 93.7011 19.2287 95.4295 20.9571V15.7721C93.5777 15.2782 91.232 15.1548 88.8864 15.1548Z" fill="#555555"/>
<path d="M16.6692 18.8583C20.2494 18.8583 24.4468 19.4756 26.2986 20.957V15.772H0.867188V20.957C2.71899 19.599 6.42259 18.9818 10.4966 18.9818V33.0554C10.4966 35.1542 10.3731 35.648 9.38547 36.759H17.5334C16.6692 35.648 16.4223 35.0307 16.4223 33.0554V18.8583H16.6692Z" fill="#555555"/>
<path d="M42.9597 24.0433C41.4782 24.5372 38.8857 24.6606 37.5277 24.6606H35.429V19.1052H38.2684C40.861 19.1052 45.3053 19.599 46.9102 21.0805V15.772H28.5156C29.3798 16.8831 29.5033 17.5003 29.5033 19.4756V33.0554C29.5033 35.1542 29.3798 35.7714 28.5156 36.759H48.1447V31.6975C45.4287 33.6727 40.3672 33.6727 38.2684 33.5493H35.429V27.747H37.5277C39.0092 27.747 41.4782 27.8704 42.9597 28.3642V24.0433Z" fill="#555555"/>
<path d="M70.2479 16.5127C67.4085 15.6485 63.458 15.0312 60.6185 15.0312C55.31 15.0312 50.125 16.6361 50.125 21.9446C50.125 31.0802 66.1739 26.2655 66.1739 31.8209C66.1739 33.6727 63.3345 34.4134 61.1124 34.4134C57.0384 34.4134 54.0755 33.7962 50.4954 31.6975V36.2652C53.2113 37.1294 56.7915 37.6232 60.8654 37.6232C66.4209 37.6232 71.6059 36.1418 71.6059 30.8333C71.6059 21.2039 55.557 25.5248 55.557 20.8336C55.557 18.9818 58.1495 18.241 60.3716 18.241C64.1987 18.241 68.2727 19.3521 70.4948 21.4508V16.5127H70.2479Z" fill="#555555"/>
<path d="M103.452 26.389C103.452 21.9446 106.292 18.3645 110.613 18.3645C114.934 18.3645 117.773 21.9446 117.773 26.389C117.896 30.7098 115.057 34.29 110.736 34.29C106.292 34.29 103.452 30.7098 103.452 26.389ZM124.316 26.1421C124.316 19.4756 119.131 15.0312 111.353 15.0312C102.959 15.1547 97.1562 19.8459 97.1562 26.6359C97.1562 33.1789 102.465 37.6232 110.242 37.6232C118.514 37.6232 124.316 32.932 124.316 26.1421Z" fill="#555555"/>
</g>
<defs>
<clipPath id="clip0_4595_39448">
<rect width="125.12" height="34" fill="white" transform="translate(0 15)"/>
</clipPath>
</defs>
</svg>
