<svg width="123" height="64" viewBox="0 0 123 64" fill="none" xmlns="http://www.w3.org/2000/svg">
<g clip-path="url(#clip0_4594_38899)">
<path d="M15.812 30.4047V26.1663H29.9985C30.1433 26.9133 30.228 27.8021 30.228 28.7648C30.228 31.9435 29.3581 35.879 26.5584 38.6794C23.8343 41.5176 20.3538 43.0312 15.7381 43.0312C7.18821 43.0312 0 36.0683 0 27.516C0 18.9639 7.18821 12.0007 15.7381 12.0007C20.4673 12.0007 23.8343 13.855 26.369 16.2769L23.3804 19.2664C21.5644 17.5637 19.1052 16.239 15.7381 16.239C9.49576 16.239 4.6154 21.272 4.6154 27.516C4.6154 33.7599 9.49576 38.793 15.7381 38.793C19.7865 38.793 22.094 37.1657 23.5694 35.6899C24.7715 34.4876 25.5635 32.7629 25.8707 30.4047H15.812Z" fill="#555555"/>
<path d="M47.4595 33.041C47.4595 29.4459 44.849 26.9862 41.8226 26.9862C38.7958 26.9862 36.1855 29.4459 36.1855 33.041C36.1855 36.5981 38.7958 39.0957 41.8226 39.0957C44.849 39.0957 47.4595 36.5981 47.4595 33.041ZM51.848 33.041C51.848 38.793 47.346 43.0312 41.8226 43.0312C36.2989 43.0312 31.7969 38.793 31.7969 33.041C31.7969 27.2511 36.2989 23.0506 41.8226 23.0506C47.346 23.0506 51.848 27.2511 51.848 33.041Z" fill="#555555"/>
<path d="M69.3267 33.041C69.3267 29.4459 66.7162 26.9862 63.6898 26.9862C60.663 26.9862 58.0527 29.4459 58.0527 33.041C58.0527 36.5981 60.663 39.0957 63.6898 39.0957C66.7162 39.0957 69.3267 36.5981 69.3267 33.041ZM73.7152 33.041C73.7152 38.793 69.2132 43.0312 63.6898 43.0312C58.1661 43.0312 53.6641 38.793 53.6641 33.041C53.6641 27.2511 58.1661 23.0506 63.6898 23.0506C69.2132 23.0506 73.7152 27.2511 73.7152 33.041Z" fill="#555555"/>
<path d="M90.8235 33.0789C90.8235 29.5595 88.4779 26.9863 85.4891 26.9863C82.4624 26.9863 79.9277 29.5595 79.9277 33.0789C79.9277 36.5604 82.4624 39.0958 85.4891 39.0958C88.4779 39.0958 90.8235 36.5604 90.8235 33.0789ZM94.6824 23.6561V41.5933C94.6824 48.9727 90.3317 52 85.1863 52C80.3439 52 77.4307 48.7455 76.3337 46.0966L80.1548 44.5072C80.8356 46.1344 82.5002 48.0644 85.1863 48.0644C88.4779 48.0644 90.5207 46.0209 90.5207 42.1989V40.7609H90.3696C89.3858 41.9718 87.4943 43.0313 85.1108 43.0313C80.1167 43.0313 75.5391 38.6795 75.5391 33.0789C75.5391 27.4404 80.1167 23.0507 85.1108 23.0507C87.4943 23.0507 89.3858 24.1102 90.3696 25.2834H90.5207V23.6561H94.6824Z" fill="#555555"/>
<path d="M102.115 13.1586V42.4258H97.7266V13.1586H102.115Z" fill="#555555"/>
<path d="M108.577 32.7382L117.506 29.0296C117.014 27.7809 115.538 26.9105 113.798 26.9105C111.566 26.9105 108.464 28.8783 108.577 32.7382ZM119.057 36.3332L122.462 38.6037C121.365 40.2309 118.716 43.0312 114.139 43.0312C108.464 43.0312 104.227 38.6416 104.227 33.041C104.227 27.0997 108.502 23.0506 113.647 23.0506C118.83 23.0506 121.365 27.1756 122.197 29.4081L122.651 30.5433L109.296 36.0683C110.318 38.0739 111.907 39.0957 114.139 39.0957C116.371 39.0957 117.922 37.9983 119.057 36.3332Z" fill="#555555"/>
</g>
<defs>
<clipPath id="clip0_4594_38899">
<rect width="122.654" height="40" fill="white" transform="translate(0 12)"/>
</clipPath>
</defs>
</svg>
