<svg width="133" height="64" viewBox="0 0 133 64" fill="none" xmlns="http://www.w3.org/2000/svg">
<path d="M43.9297 55.3706L65.2036 18L80.731 45.2368H62.6883L65.1994 40.7926H73.0573L65.2036 26.9897L49.0454 55.3706H43.9297Z" fill="#555555"/>
<path d="M8.45753 45.5812V28.6544H0V25.0596H21.4129V28.6544H12.9828V45.5812H8.45753Z" fill="#555555"/>
<path d="M41.4391 45.5812L35.819 38.2406C35.2868 38.27 34.7531 38.27 34.2209 38.27H30.494V45.5798H25.9688V25.0596H35.2275C39.1902 25.0596 41.9699 25.2398 43.9223 26.6783C45.3714 27.7564 46.0222 29.3737 46.0222 31.5607C46.0222 33.7478 45.3714 35.3958 43.8326 36.5033C43.0343 37.1317 42.0292 37.5228 40.7868 37.7309L46.9376 45.5798H41.4362L41.4391 45.5812ZM35.3172 28.505H30.4955V34.9754H35.3751C39.5171 34.9754 41.4391 34.4656 41.4391 31.6794C41.4391 28.7423 39.073 28.5035 35.3172 28.5035V28.505Z" fill="#555555"/>
<path d="M102.491 43.5436C100.037 45.1315 96.9001 45.5812 93.0268 45.5812H83.4141V25.0596H92.9965C96.9001 25.0596 100.035 25.5078 102.491 27.0665C105.212 28.8332 106.129 31.801 106.129 35.2743C106.129 38.7475 105.212 41.7447 102.491 43.5421V43.5436ZM93.0268 28.5958H87.9394V42.0172H92.9965C99.0879 42.0172 101.544 40.3384 101.544 35.3358C101.544 30.3332 99.1778 28.5958 93.0268 28.5958Z" fill="#555555"/>
<path d="M113.085 43.8731C111.132 42.3145 110.719 40.0981 110.719 36.7436V25.0596H115.243V36.4139C115.243 38.2714 115.48 39.7393 116.514 40.8174C117.608 41.9571 119.502 42.3453 121.631 42.3453C123.759 42.3453 125.654 42.0171 126.778 40.8467C127.812 39.8286 128.049 38.4208 128.049 36.5634V25.0596H132.486V36.7436C132.486 40.0996 132.044 42.316 130.032 43.9039C127.755 45.6706 124.766 46.0002 121.601 46.0002C118.437 46.0002 115.361 45.672 113.085 43.8746V43.8731Z" fill="#555555"/>
</svg>
