<svg width="111" height="64" viewBox="0 0 111 64" fill="none" xmlns="http://www.w3.org/2000/svg">
<g clip-path="url(#clip0_4594_38899)">
<path d="M14.2308 30.5643V26.7498H26.9987C27.129 27.4221 27.2052 28.2219 27.2052 29.0884C27.2052 31.9492 26.4223 35.4912 23.9026 38.0116C21.4509 40.5659 18.3184 41.9282 14.1643 41.9282C6.46939 41.9282 0 35.6616 0 27.9645C0 20.2676 6.46939 14.0007 14.1643 14.0007C18.4205 14.0007 21.4509 15.6696 23.7321 17.8493L21.0423 20.5398C19.4079 19.0074 17.1947 17.8152 14.1643 17.8152C8.54618 17.8152 4.15386 22.3449 4.15386 27.9645C4.15386 33.584 8.54618 38.1138 14.1643 38.1138C17.8078 38.1138 19.8846 36.6493 21.2124 35.321C22.2944 34.2389 23.0071 32.6867 23.2836 30.5643H14.2308Z" fill="#555555"/>
<path d="M42.7136 32.937C42.7136 29.7014 40.3641 27.4877 37.6403 27.4877C34.9163 27.4877 32.567 29.7014 32.567 32.937C32.567 36.1384 34.9163 38.3862 37.6403 38.3862C40.3641 38.3862 42.7136 36.1384 42.7136 32.937ZM46.6632 32.937C46.6632 38.1138 42.6114 41.9282 37.6403 41.9282C32.669 41.9282 28.6172 38.1138 28.6172 32.937C28.6172 27.7261 32.669 23.9456 37.6403 23.9456C42.6114 23.9456 46.6632 27.7261 46.6632 32.937Z" fill="#555555"/>
<path d="M62.3971 32.937C62.3971 29.7014 60.0477 27.4877 57.3239 27.4877C54.5998 27.4877 52.2506 29.7014 52.2506 32.937C52.2506 36.1384 54.5998 38.3862 57.3239 38.3862C60.0477 38.3862 62.3971 36.1384 62.3971 32.937ZM66.3468 32.937C66.3468 38.1138 62.295 41.9282 57.3239 41.9282C52.3526 41.9282 48.3008 38.1138 48.3008 32.937C48.3008 27.7261 52.3526 23.9456 57.3239 23.9456C62.295 23.9456 66.3468 27.7261 66.3468 32.937Z" fill="#555555"/>
<path d="M81.7404 32.971C81.7404 29.8035 79.6293 27.4876 76.9394 27.4876C74.2154 27.4876 71.9342 29.8035 71.9342 32.971C71.9342 36.1043 74.2154 38.3862 76.9394 38.3862C79.6293 38.3862 81.7404 36.1043 81.7404 32.971ZM85.2134 24.4905V40.634C85.2134 47.2754 81.2978 50 76.6669 50C72.3087 50 69.6869 47.071 68.6995 44.687L72.1386 43.2565C72.7513 44.721 74.2494 46.458 76.6669 46.458C79.6293 46.458 81.4679 44.6188 81.4679 41.179V39.8848H81.3318C80.4465 40.9746 78.7441 41.9282 76.5989 41.9282C72.1043 41.9282 67.9844 38.0116 67.9844 32.971C67.9844 27.8963 72.1043 23.9456 76.5989 23.9456C78.7441 23.9456 80.4465 24.8992 81.3318 25.9551H81.4679V24.4905H85.2134Z" fill="#555555"/>
<path d="M91.9028 15.0428V41.3833H87.9531V15.0428H91.9028Z" fill="#555555"/>
<path d="M97.7243 32.6645L105.76 29.3268C105.317 28.2029 103.989 27.4196 102.423 27.4196C100.414 27.4196 97.6222 29.1906 97.7243 32.6645ZM107.156 35.8999L110.22 37.9435C109.233 39.4079 106.849 41.9282 102.729 41.9282C97.6222 41.9282 93.8086 37.9775 93.8086 32.937C93.8086 27.5898 97.6562 23.9456 102.287 23.9456C106.952 23.9456 109.233 27.6582 109.982 29.6674L110.391 30.6891L98.3711 35.6616C99.2907 37.4666 100.721 38.3862 102.729 38.3862C104.738 38.3862 106.134 37.3986 107.156 35.8999Z" fill="#555555"/>
</g>
<defs>
<clipPath id="clip0_4594_38899">
<rect width="110.389" height="36" fill="white" transform="translate(0 14)"/>
</clipPath>
</defs>
</svg>
