<svg width="141" height="64" viewBox="0 0 141 64" fill="none" xmlns="http://www.w3.org/2000/svg">
<path d="M4.46294 42.3201L6.7607 36.0459L8.97007 42.3201H4.46294ZM11.2236 48.6386H13.3446L7.86538 33.5273H5.74438L0 48.6386H2.121L3.80013 43.9992H9.54451L11.2236 48.6386ZM21.2542 45.4131C21.2542 46.6503 20.2379 47.313 18.5588 47.313C17.189 47.313 16.261 46.9154 15.7308 46.0317L13.6981 46.3851C14.4935 48.02 16.1285 48.7711 18.4704 48.7711C21.6077 48.7711 23.2868 47.0037 23.2868 45.148C23.2868 42.762 21.0775 42.0992 18.5588 41.6132C17.3215 41.3481 15.9075 40.9062 15.9075 39.8458C15.9075 39.0946 16.6587 38.1668 18.1611 38.1668C19.7076 38.1668 20.6356 39.2272 20.7682 39.6249L22.5357 38.8737C21.6961 37.3272 20.0611 36.6645 18.3378 36.6645C15.6866 36.6645 13.9191 37.99 13.9191 40.0667C13.9191 42.4527 15.9517 42.8945 17.896 43.3364C19.6193 43.7341 21.2542 44.1317 21.2542 45.4131ZM27.5288 33.5273L25.5404 34.3669V37.1505H23.7287V38.7412H25.5404V46.12C25.4962 47.6223 25.4962 48.6828 27.7498 48.6828C28.4568 48.6828 29.2963 48.5502 29.6057 48.506V46.9154C29.208 47.0479 28.7219 47.1805 28.3242 47.1805C27.4847 47.1805 27.4847 46.6061 27.4847 45.2363V38.7412H29.6057V37.1505H27.5288V33.5273ZM31.329 37.1505V48.6386H33.2732V43.3364C33.2732 42.3643 33.229 41.1713 33.7593 40.376C34.3779 39.3597 35.3059 38.9621 37.2059 38.9621V36.9738C36.4105 37.0179 34.3779 37.0621 33.2732 39.2272V37.1947H31.329V37.1505ZM48.6063 33.5273V35.3831H57.1787L48.6063 46.6503V48.5944H59.6532V46.827H50.9041L59.4323 35.4273V33.5273H48.6063ZM71.7164 37.1505V48.6386H73.6607V42.0992C73.6607 41.2597 73.6607 40.376 74.5002 39.5365C75.1188 38.9179 75.8258 38.6528 76.7096 38.6528C77.7701 38.6528 78.8306 39.1388 79.1841 40.2434C79.3167 40.6411 79.3167 40.9504 79.3167 42.1434V48.6386H81.2167V41.8341C81.2167 40.862 81.2167 40.1551 81.04 39.4923C80.4655 37.5924 78.7422 36.8854 77.284 36.8854C76.6212 36.8854 74.7653 37.0621 73.7048 38.9179V37.1505H71.7164ZM101.631 45.8549C101.234 46.6503 100.482 47.3572 98.9801 47.3572C97.6987 47.3572 95.4893 46.5619 95.4893 42.762C95.4893 41.7457 95.6661 38.1226 98.8476 38.1226C100.438 38.1226 101.19 39.0063 101.543 39.7574L103.355 39.0063C102.25 37.1505 100.217 36.7087 98.8034 36.7087C95.1358 36.7087 93.3683 39.669 93.3683 42.8945C93.3683 45.7224 94.9149 48.8153 98.9359 48.8153C101.278 48.8153 102.604 47.6665 103.311 46.5619L101.631 45.8549ZM62.437 41.7015H68.5349C68.3581 38.697 66.6348 38.2109 65.486 38.2109C63.8068 38.1668 62.658 39.4039 62.437 41.7015ZM70.1256 46.4293C69.4628 47.534 68.1814 48.8153 65.7069 48.8153C62.3045 48.8153 60.3602 46.5177 60.3602 42.6736C60.3602 38.3435 63.1882 36.7087 65.6185 36.7087C67.7395 36.7087 69.728 37.8575 70.435 40.7737C70.6559 41.7457 70.6559 42.6294 70.6559 43.1155H62.437C62.3928 45.0154 63.1882 47.4456 65.8836 47.4014C66.9883 47.4014 67.7837 46.8712 68.2698 46.0759L70.1256 46.4293ZM84.3099 41.7015H90.4077C90.231 38.697 88.5077 38.2109 87.3588 38.2109C85.7239 38.1668 84.5308 39.4039 84.3099 41.7015ZM91.9985 46.4293C91.3357 47.534 90.0542 48.8153 87.5797 48.8153C84.1773 48.8153 82.233 46.5177 82.233 42.6736C82.233 38.3435 85.061 36.7087 87.4914 36.7087C89.6124 36.7087 91.6008 37.8575 92.3078 40.7737C92.5287 41.7457 92.5287 42.6294 92.5287 43.1155H84.2657C84.2215 45.0154 85.0169 47.4456 87.7123 47.4014C88.817 47.4014 89.6124 46.8712 90.0984 46.0759L91.9985 46.4293ZM113.871 48.6386H111.883C111.883 48.6386 111.706 47.8432 111.662 46.9595C111.088 47.5781 109.983 48.8153 107.818 48.8153C105.608 48.8153 103.929 47.4898 103.929 45.5456C103.929 44.927 104.106 44.3085 104.459 43.8224C105.122 42.8504 106.315 42.055 109.762 41.7899L111.574 41.6574V41.3481C111.574 40.1551 111.574 38.1668 109.011 38.1668C107.42 38.1668 106.846 38.9621 106.669 39.669L104.901 38.9179C104.945 38.8737 104.945 38.7853 104.99 38.7412C105.652 37.504 107.022 36.7087 108.922 36.7087C109.983 36.7087 111.353 36.9738 112.281 37.6807C113.562 38.6528 113.518 40.5527 113.518 40.5527L113.606 46.4293C113.562 46.4293 113.65 48.1525 113.871 48.6386ZM111.264 45.4573C111.574 44.8387 111.574 44.5736 111.574 42.8945C110.822 43.0271 109.806 43.1596 108.569 43.4248C106.448 43.8666 106.094 44.7061 106.094 45.5014C106.094 46.4293 106.801 47.1805 108.26 47.1805C109.541 47.1805 110.69 46.6503 111.264 45.4573ZM47.2365 48.6386H45.2481C45.2481 48.6386 45.0713 47.8432 45.0271 46.9595C44.4527 47.5781 43.348 48.8153 41.1828 48.8153C38.9734 48.8153 37.2943 47.4898 37.2943 45.5456C37.2943 44.927 37.471 44.3085 37.8245 43.8224C38.4874 42.8504 39.6804 42.055 43.1271 41.7899L44.9387 41.6574V41.3481C44.9387 40.1551 44.9387 38.1668 42.3759 38.1668C40.7851 38.1668 40.2107 38.9621 40.0339 39.669L38.2664 38.9179C38.3106 38.8737 38.3106 38.7853 38.3548 38.7412C39.0176 37.504 40.3874 36.7087 42.2875 36.7087C43.348 36.7087 44.7178 36.9738 45.6016 37.6807C46.883 38.6528 46.8388 40.5527 46.8388 40.5527L46.9272 46.4293C46.9272 46.4293 46.9714 48.1525 47.2365 48.6386ZM44.5852 45.4573C44.8946 44.8387 44.8946 44.5736 44.8946 42.8945C44.1434 43.0271 43.1271 43.1596 41.8898 43.4248C39.7688 43.8666 39.3711 44.7061 39.3711 45.5014C39.3711 46.4293 40.0781 47.1805 41.5363 47.1805C42.9061 47.1805 44.0108 46.6503 44.5852 45.4573Z" fill="#555555"/>
<path d="M126.165 38.962C125.855 39.1388 125.546 39.3597 125.281 39.5364C121.835 37.6365 114.411 33.925 113.749 33.5715C113.042 33.218 111.849 32.732 112.025 31.5832C112.246 29.9925 115.03 26.4577 116.223 24.9996C122.586 17.1789 125.458 14.7929 127.358 15.0138C129.39 15.2789 130.495 17.3556 130.672 27.2089C129.523 26.8554 128.286 26.5019 126.96 26.1484C126.872 24.7345 126.607 22.5694 126.474 21.8183C126.341 20.9788 126.209 20.6695 125.855 20.6253C125.458 20.5811 124.53 21.4648 123.69 22.3485C123.293 22.7462 122.232 23.8508 120.995 25.0438C119.979 24.9996 119.316 25.1764 118.963 25.6624C118.653 26.0601 118.609 26.5903 118.786 27.2972C118.123 27.96 117.593 28.4902 117.239 28.8437C115.914 30.1692 114.5 31.2739 114.411 31.8041C114.367 32.2459 115.03 32.6878 116.002 33.2622C118.344 34.7203 124.132 37.8574 126.165 38.962ZM135.179 29.153C132.925 28.3577 127.314 26.281 121.437 25.5298C119.404 25.2647 118.609 25.9717 119.449 27.9158C120.288 29.8158 122.409 33.0413 124.662 35.4272C126.916 37.8132 129.346 38.476 130.097 34.7645C130.141 34.6319 130.141 34.4994 130.186 34.3668C130.362 33.3947 130.495 32.511 130.583 31.6715C129.611 31.2297 128.462 30.7436 127.358 30.2576C127.402 31.0971 127.534 32.5552 127.579 33.704C127.579 33.8366 127.579 33.9691 127.579 34.1017C127.667 35.9133 127.004 35.9133 125.988 35.1621C124.795 34.2784 121.083 29.4181 120.642 27.253C120.642 27.1205 120.686 27.1205 120.774 27.1205C120.818 27.1205 120.818 27.1647 120.862 27.1647C121.702 27.474 124.486 28.5786 127.314 29.7716C128.462 30.2576 129.567 30.7436 130.583 31.1855C131.6 31.6273 132.483 32.0692 133.146 32.4227C134.383 33.0854 134.825 33.5273 134.339 34.0575C131.776 36.6202 122.939 40.2876 119.846 44.8386C119.846 44.8386 119.846 44.8386 119.802 44.8828C119.758 44.927 119.714 44.9712 119.714 45.0596C119.714 45.0596 119.714 45.1037 119.669 45.1037C119.537 45.3688 119.316 45.8549 119.228 46.4735C119.095 47.4455 119.625 48.3734 121.039 48.7711C121.393 48.8595 121.79 48.9478 122.232 48.992C122.321 48.992 122.409 48.992 122.497 48.992C125.237 49.1246 132.351 47.5781 134.516 46.606C136.769 45.634 136.062 44.6177 135.444 44.1317C134.958 43.734 132.483 42.3643 131.246 41.7015C130.937 41.9224 130.672 42.055 130.362 42.2759C132.395 43.5131 133.234 44.1317 133.72 44.5293C133.897 44.6619 133.809 44.8386 133.544 44.8828C133.455 44.8828 133.411 44.8828 133.323 44.8828C131.379 45.0154 127.667 45.2805 125.944 45.3688C125.679 45.3688 125.414 45.413 125.237 45.413C125.679 45.0154 126.165 44.6619 126.386 44.4851C130.097 41.8782 136.283 38.2109 138.095 36.6202C139.376 35.4714 143.043 31.8925 135.179 29.153Z" fill="#555555"/>
</svg>
