<svg width="253" height="64" viewBox="0 0 253 64" fill="none" xmlns="http://www.w3.org/2000/svg">
<g clip-path="url(#clip0_4594_39047)">
<path d="M243.969 49.0001C249.392 49.0001 252.075 46.7857 252.075 42.8268V42.6767C252.075 39.806 250.443 37.8546 246.709 37.4418L241.792 36.9164C240.366 36.7659 239.672 36.0343 239.672 34.7398V33.595C239.672 33.1636 239.954 32.9006 240.366 32.9006H246.728C247.159 32.9006 247.422 33.1637 247.422 33.595V35.7152H251.812C251.55 31.6811 248.867 29.5796 243.519 29.5796C238.452 29.5796 235.563 31.5497 235.563 35.4528V35.5276C235.563 38.361 237.42 40.4061 240.366 40.7064L245.92 41.2696C247.347 41.4194 247.985 42.1513 247.985 43.5209V44.9469C247.985 45.36 247.722 45.6224 247.309 45.6224H240.479C240.066 45.6224 239.785 45.36 239.785 44.9469V42.8268H235.225C235.337 46.7857 238.396 49.0001 243.969 49.0001ZM227.945 28.0035H232.729V23.4062H227.945V28.0035ZM228.02 48.6246H232.655V29.9546H228.02V48.6246ZM219.792 48.6246H224.427V23.4062H219.792V48.6246ZM211.714 33.595V37.7981H204.715C201.037 37.7981 198.804 39.8245 198.804 43.1831C198.804 47.0112 201.788 49.0001 205.785 49.0001C208.505 49.0001 210.739 47.9304 211.714 45.6224H204.265C203.852 45.6224 203.571 45.36 203.571 44.9469V40.4626H211.714V48.6246H216.349V35.49C216.349 31.5121 213.084 29.5796 208.205 29.5796C203.176 29.5796 199.424 31.7187 199.348 35.9217H203.571V33.595C203.571 33.1636 203.852 32.9006 204.265 32.9006H211.039C211.452 32.9006 211.714 33.1637 211.714 33.595ZM185.688 27.797H189.272L192.218 23.4062H187.095L185.688 27.797ZM183.099 37.7981V33.595C183.099 33.1636 183.362 32.9006 183.774 32.9006H191.486C191.918 32.9006 192.181 33.1637 192.181 33.595V37.7981H183.099ZM187.79 49.0001C192.969 49.0001 195.952 46.0166 196.665 42.4701H192.049V44.9469C192.049 45.36 191.787 45.6224 191.374 45.6224H183.774C183.362 45.6224 183.099 45.36 183.099 44.9469V40.4626H196.778V38.7739C196.778 36.1659 196.14 33.9139 194.826 32.3381C193.307 30.5179 190.717 29.5797 187.696 29.5797C184.581 29.5797 181.973 30.4803 180.359 32.3003C178.933 33.9515 178.239 36.2785 178.239 39.1677V39.4118C178.239 42.3203 178.933 44.5906 180.359 46.2228C182.011 48.062 184.581 49.0001 187.79 49.0001ZM156.444 48.6246H160.856V39.4493C160.856 39.0365 161.119 38.7738 161.532 38.7738H169.578L173.462 48.6246H178.157L173.935 38.0608C173.222 36.2785 172.622 35.5465 171.496 35.2649C170.989 35.1337 170.389 35.0961 169.619 35.0961H161.532C161.119 35.0961 160.856 34.8335 160.856 34.4207V27.0839H170.801C171.214 27.0839 171.496 27.3466 171.496 27.7594L171.496 35.2649C175.286 33.8953 176.299 31.9438 176.299 29.5985C176.299 25.7329 173.635 23.4062 168.756 23.4062H156.444L156.444 48.6246ZM145.555 49.0001C150.978 49.0001 153.661 46.7857 153.661 42.8268V42.6767C153.661 39.806 152.029 37.8546 148.294 37.4418L143.378 36.9164C141.952 36.7659 141.258 36.0343 141.258 34.7398V33.595C141.258 33.1636 141.539 32.9006 141.952 32.9006H148.313C148.745 32.9006 149.007 33.1637 149.007 33.595V35.7152H153.398C153.135 31.6811 150.452 29.5796 145.104 29.5796C140.038 29.5796 137.148 31.5497 137.148 35.4528V35.5276C137.148 38.361 139.006 40.4061 141.952 40.7064L147.506 41.2696C148.932 41.4194 149.57 42.1513 149.57 43.5209V44.9469C149.57 45.36 149.308 45.6224 148.895 45.6224H142.065C141.652 45.6224 141.371 45.36 141.371 44.9469V42.8268H136.811C136.923 46.7857 139.982 49.0001 145.555 49.0001ZM117.259 48.6246H121.893V29.9546H117.259V48.6246ZM129.568 34.0264V48.6246H134.203V34.9461C134.203 31.7187 131.914 29.6172 128.029 29.6172C124.952 29.6172 122.907 30.9496 121.894 33.3513H128.892C129.305 33.3513 129.568 33.6137 129.568 34.0264ZM109.115 28.0035H113.9V23.4062H109.115V28.0035ZM109.19 48.6246H113.825V29.9546H109.19V48.6246ZM94.3856 38.6048L102.023 48.6246H107.333L99.7336 38.7927C99.5459 38.5297 99.5459 38.2673 99.7711 38.0044L107.258 29.9549H102.248L94.3856 38.6048ZM94.3856 23.4062H89.7509V48.6246H94.3856V23.4062ZM82.4893 24.476H77.8733V29.223C77.8733 29.6733 77.6106 29.9549 77.1792 29.9549H74.4396V33.1448H77.8733V43.7085C77.8733 46.8607 79.7497 48.6246 82.9961 48.6246H86.9741V45.3411H83.1648C82.752 45.3411 82.4893 45.0784 82.4893 44.6656V33.1448H86.9741V29.9549H82.4893V24.476ZM70.7968 48.6245H75.7881L67.8696 25.264C67.3817 23.857 66.7438 23.4062 65.5804 23.4062H60.6267C59.5194 23.4062 58.919 23.8569 58.4311 25.264L50.4375 48.6245H55.3162L57.5294 41.4757H68.5888L70.7968 48.6245ZM58.668 37.7981L63.0656 23.5939L67.4529 37.7981H58.668Z" fill="#555555"/>
<path d="M8.4061 23.4061C8.4061 18.7635 12.1696 15 16.8121 15H25.2182V23.4061H8.4061ZM50.4363 23.4061V15H42.0302C37.3877 15 33.6242 18.7635 33.6242 23.4061H50.4363ZM0 31.8122V40.2183H8.40603L8.4061 23.4061C3.76359 23.4061 0 27.1696 0 31.8122ZM16.8121 48.6244C21.4547 48.6244 25.2182 44.8608 25.2182 40.2182L8.40603 40.2183L8.4061 48.6244H16.8121ZM33.6242 48.6244V23.4061H25.2182V40.2182C25.2182 44.8608 28.9817 48.6244 33.6242 48.6244Z" fill="#555555"/>
</g>
<defs>
<clipPath id="clip0_4594_39047">
<rect width="252.074" height="34" fill="white" transform="translate(0 15)"/>
</clipPath>
</defs>
</svg>
