<svg width="165" height="64" viewBox="0 0 165 64" fill="none" xmlns="http://www.w3.org/2000/svg">
<g clip-path="url(#clip0_4594_39058)">
<mask id="mask0_4594_39058" style="mask-type:luminance" maskUnits="userSpaceOnUse" x="5" y="18" width="155" height="28">
<path d="M159.424 18H5V46H159.424V18Z" fill="white"/>
</mask>
<g mask="url(#mask0_4594_39058)">
<path d="M43.5796 18C35.4908 18 29.5234 23.9435 29.5234 32C29.5234 40.0565 35.4908 46 43.5796 46C51.6287 46 57.596 40.0565 57.596 32C57.596 23.9435 51.6287 18 43.5796 18ZM43.5399 40.9172C38.828 40.9172 35.4511 37.1243 35.4511 32C35.4511 26.8776 38.828 23.0452 43.5399 23.0452C48.2517 23.0452 51.6664 26.8776 51.6664 32C51.6684 37.1224 48.2517 40.9172 43.5399 40.9172Z" fill="#555555"/>
<path d="M72.6975 18.3125H61.3906V45.6873H67.3202V35.5968H72.6995C78.5495 35.5968 81.9662 31.9603 81.9662 26.9547C81.9643 21.9114 78.5477 18.3125 72.6975 18.3125ZM72.344 30.7098H67.3183V23.2014H72.344C75.0931 23.2014 76.2712 24.9603 76.2712 26.9547C76.2712 28.9491 75.0931 30.7098 72.344 30.7098Z" fill="#555555"/>
<path d="M90.742 25.7439C90.742 24.1412 92.1946 23.0452 94.511 23.0452C97.1404 23.0452 98.789 24.4539 98.9859 26.6045H104.599C104.447 21.403 100.44 18 94.5127 18C88.9365 18 85.0112 21.2072 85.0112 25.7439C85.0112 36.4991 99.2642 32.3917 99.2642 37.7495C99.2642 39.8229 97.4976 40.9172 94.8656 40.9172C91.9596 40.9172 90.1141 39.1582 89.8799 36.3804H84.2266C84.4629 42.2072 88.6245 46 94.8656 46C101.03 46 105.192 42.7928 105.192 37.6704C105.192 26.8381 90.742 31.452 90.742 25.7439Z" fill="#555555"/>
<path d="M122.228 18C114.139 18 108.172 23.9435 108.172 32C108.172 40.0565 114.139 46 122.228 46C130.277 46 136.244 40.0565 136.244 32C136.244 23.9435 130.277 18 122.228 18ZM122.188 40.9172C117.476 40.9172 114.099 37.1243 114.099 32C114.099 26.8776 117.476 23.0452 122.188 23.0452C126.9 23.0452 130.315 26.8776 130.315 32C130.315 37.1224 126.9 40.9172 122.188 40.9172Z" fill="#555555"/>
<path d="M146.194 40.6025V34.2296H156.403V29.1449H146.194V23.3577H158.993V18.3125H140.305V45.6873H159.426V40.6025H146.194Z" fill="#555555"/>
<path d="M19.7548 45.6873V29.3465L13.7969 23.354V45.6873H19.7548Z" fill="#555555"/>
<path d="M8.58871 18.3125H5V23.3539H14.5409H28.5535V18.3125H9.432H8.58871Z" fill="#555555"/>
</g>
</g>
<defs>
<clipPath id="clip0_4594_39058">
<rect width="154.424" height="28" fill="white" transform="translate(5 18)"/>
</clipPath>
</defs>
</svg>
