<svg width="107" height="64" viewBox="0 0 107 64" fill="none" xmlns="http://www.w3.org/2000/svg">
<g clip-path="url(#clip0_4594_38870)">
<path d="M29.4835 28.8311H18.9204V30.8194C18.9204 33.1495 20.7845 35.0757 23.1146 35.0757H25.6932V40.2019C25.6932 40.8854 25.134 41.4136 24.4816 41.4136H8.45049C7.42524 41.4136 6.61748 40.5748 6.61748 39.5806V28.8311V24.4505C6.61748 23.4252 7.42524 22.6175 8.45049 22.6175H25.6621V16H7.9534C6.71068 16 5.49903 16.2796 4.38058 16.8388C2.82718 17.5845 1.58447 18.8583 0.838835 20.3806C0.279612 21.499 0 22.7107 0 23.9534V40.0466C0 41.2893 0.279612 42.501 0.838835 43.6194C1.58447 45.1728 2.85825 46.4155 4.38058 47.1612C5.49903 47.7204 6.71068 48 7.9534 48H21.3126C23.7981 48 25.8175 45.9806 25.8175 43.4951V41.6932C25.8175 41.5379 25.9417 41.3825 26.0971 41.3825H26.1282C29.701 41.2893 32 39.5495 32 36.5359V28.8311H29.4835Z" fill="#555555"/>
<path d="M36.8125 28.4272C36.8125 32.5282 40.23 35.0757 44.8902 35.0757H60.5174C61.4494 35.0136 62.2882 35.7282 62.3504 36.6602C62.3504 36.7534 62.3504 36.8155 62.3504 36.9087V39.5806C62.4125 40.5126 61.6979 41.3515 60.7659 41.4136C60.6727 41.4136 60.6106 41.4136 60.5174 41.4136H38.5212V48H60.7038C65.0843 48.1243 68.7193 44.6447 68.8436 40.2641C68.8436 40.1398 68.8436 39.9845 68.8436 39.8602V36.9398C68.9678 32.5592 65.4882 28.9243 61.1076 28.8C60.9834 28.8 60.828 28.8 60.7038 28.8H45.1076C44.1756 28.8621 43.3368 28.1476 43.2746 27.2155C43.2746 27.1223 43.2746 27.0602 43.2746 26.967V23.8291C43.2125 23.2078 43.6785 22.6485 44.2999 22.6175C44.362 22.6175 44.4242 22.6175 44.5174 22.6175H66.1717V16H47.6242C45.1698 16 43.1504 17.9883 43.1193 20.4427V22.2757C43.1193 22.4311 42.995 22.5864 42.8397 22.5864H42.8086C39.6397 22.7107 36.8125 24.4816 36.8125 28.4272Z" fill="#555555"/>
<path d="M74.1875 38.6485V48H80.7739V33.3359C80.7739 32.6835 81.271 32.5592 81.6438 32.932L97.1778 48H106.187L89.7215 32L106.187 16H97.1778L81.6438 31.068C81.271 31.4408 80.7739 31.3165 80.7739 30.6641V16H74.1875V25.4136C74.1875 28.8 76.3933 30.8194 80.3079 31.9068C80.4632 31.9689 80.4632 32.1243 80.3079 32.1553C76.3933 33.2117 74.1875 35.2621 74.1875 38.6485Z" fill="#555555"/>
</g>
<defs>
<clipPath id="clip0_4594_38870">
<rect width="106.19" height="32" fill="white" transform="translate(0 16)"/>
</clipPath>
</defs>
</svg>
