<svg width="96" height="64" viewBox="0 0 96 64" fill="none" xmlns="http://www.w3.org/2000/svg">
<g clip-path="url(#clip0_4594_38763)">
<mask id="mask0_4594_38763" style="mask-type:luminance" maskUnits="userSpaceOnUse" x="0" y="11" width="96" height="42">
<path fill-rule="evenodd" clip-rule="evenodd" d="M0 53H95.844V11H0V53Z" fill="white"/>
</mask>
<g mask="url(#mask0_4594_38763)">
<path fill-rule="evenodd" clip-rule="evenodd" d="M47.88 49.976C37.968 49.976 29.82 41.912 29.82 32C29.82 22.088 37.884 14.024 47.88 14.024C57.792 14.024 65.94 22.088 65.94 32C65.94 41.912 57.876 49.976 47.88 49.976ZM76.272 40.232H67.284C67.788 39.14 68.124 37.964 68.46 36.704H79.8L82.824 33.68H68.88C68.964 33.092 68.964 32.504 68.964 31.916C68.964 31.328 68.964 30.74 68.88 30.152H86.352L89.376 27.128H68.46C68.208 25.952 67.788 24.776 67.284 23.6H92.82L95.844 20.576H65.688C61.908 14.864 55.356 11 47.964 11C40.488 11 33.936 14.864 30.24 20.744H0L3.024 23.768H28.56C28.056 24.86 27.72 26.036 27.384 27.296H6.552L9.576 30.32H27.048C26.88 30.824 26.88 31.412 26.88 32C26.88 32.588 26.88 33.176 26.964 33.764H13.02L16.044 36.788H27.468C27.72 37.964 28.14 39.14 28.644 40.316H19.572L22.596 43.34H30.24C34.02 49.22 40.572 53.084 47.964 53.084C55.44 53.084 61.992 49.22 65.688 43.34H73.332L76.272 40.232ZM60.312 36.788H62.244V27.212H60.312V36.788ZM52.08 36.788H50.148V27.212H52.5L56.28 34.1V27.212H58.128V36.704H55.776L52.08 29.9V36.788ZM46.032 36.788H47.964V27.212H46.032V36.788ZM35.364 36.788H33.516V27.212H36.288L38.724 34.772L41.16 27.212H43.932V36.704H42V29.648L39.732 36.704H37.632L35.364 29.648V36.788Z" fill="#555555"/>
</g>
</g>
<defs>
<clipPath id="clip0_4594_38763">
<rect width="95.844" height="42" fill="white" transform="translate(0 11)"/>
</clipPath>
</defs>
</svg>
