<svg width="64" height="64" viewBox="0 0 64 64" fill="none" xmlns="http://www.w3.org/2000/svg">
<path d="M55.3632 18.5C53.0021 14.4062 49.5938 10.9979 45.481 8.61777C41.3872 6.23766 36.7221 5 31.981 5C27.2398 5 22.5938 6.23766 18.5 8.61777C14.3872 10.9788 10.9788 14.3872 8.61777 18.5C6.2567 22.5938 5 27.2588 5 32C5 36.7412 6.23766 41.3872 8.61777 45.5C10.9788 49.5938 14.3872 53.0021 18.5 55.3822C22.5938 57.7433 27.2588 59 32 59C36.7412 59 41.3872 57.7623 45.5 55.3822C49.5938 53.0212 53.0021 49.6128 55.3822 45.5C57.7433 41.4062 59 36.7412 59 32C59 27.2588 57.7243 22.5938 55.3632 18.5ZM7.70381 31.981C7.70381 27.7158 8.82722 23.5268 10.9598 19.8329C13.0924 16.158 16.158 13.0924 19.8519 10.9598C23.3173 8.96051 27.2398 7.83709 31.2384 7.72285L28.1347 29.7532L10.598 43.4626C8.69394 39.9401 7.70381 35.9986 7.70381 31.981ZM44.1291 53.0212C40.4351 55.1537 36.2461 56.2772 31.981 56.2772C27.7158 56.2772 23.5268 55.1537 19.8329 53.0212C16.3674 51.0219 13.4351 48.1848 11.3406 44.7764L31.981 36.4365L52.6213 44.7764C50.5268 48.1848 47.6135 51.0219 44.1291 53.0212ZM53.402 43.4626L35.8463 29.7532L32.7426 7.70381C36.7412 7.83709 40.6446 8.94147 44.1291 10.9408C47.823 13.0733 50.8886 16.1389 53.0212 19.8329C55.1537 23.5268 56.2772 27.7158 56.2772 31.981C56.2772 35.9986 55.287 39.9401 53.402 43.4626Z" fill="#555555"/>
</svg>
