<svg width="100" height="64" viewBox="0 0 100 64" fill="none" xmlns="http://www.w3.org/2000/svg">
<g clip-path="url(#clip0_4594_38870)">
<path d="M27.6408 29.0291H17.7379V30.8932C17.7379 33.0777 19.4854 34.8835 21.6699 34.8835H24.0874V39.6893C24.0874 40.3301 23.5631 40.8252 22.9515 40.8252H7.92233C6.96116 40.8252 6.20388 40.0388 6.20388 39.1068V29.0291V24.9223C6.20388 23.9612 6.96116 23.2039 7.92233 23.2039H24.0583V17H7.45631C6.29126 17 5.15534 17.2621 4.1068 17.7864C2.65049 18.4854 1.48544 19.6796 0.786408 21.1068C0.262136 22.1553 0 23.2913 0 24.4563V39.5437C0 40.7087 0.262136 41.8447 0.786408 42.8932C1.48544 44.3495 2.67961 45.5146 4.1068 46.2136C5.15534 46.7379 6.29126 47 7.45631 47H19.9806C22.3107 47 24.2039 45.1068 24.2039 42.7767V41.0874C24.2039 40.9417 24.3204 40.7961 24.466 40.7961H24.4951C27.8447 40.7087 30 39.0777 30 36.2524V29.0291H27.6408Z" fill="#555555"/>
<path d="M34.5156 28.6505C34.5156 32.4951 37.7195 34.8835 42.0884 34.8835H56.7389C57.6127 34.8252 58.3991 35.4951 58.4574 36.3689C58.4574 36.4563 58.4574 36.5146 58.4574 36.6019V39.1068C58.5156 39.9806 57.8457 40.767 56.9719 40.8252C56.8846 40.8252 56.8263 40.8252 56.7389 40.8252H36.1176V47H56.9137C61.0205 47.1165 64.4282 43.8544 64.5448 39.7476C64.5448 39.6311 64.5448 39.4854 64.5448 39.3689V36.6311C64.6613 32.5243 61.3991 29.1165 57.2923 29C57.1758 29 57.0302 29 56.9137 29H42.2923C41.4185 29.0583 40.6321 28.3883 40.5739 27.5146C40.5739 27.4272 40.5739 27.3689 40.5739 27.2816V24.3398C40.5156 23.7573 40.9525 23.233 41.535 23.2039C41.5933 23.2039 41.6515 23.2039 41.7389 23.2039H62.0399V17H44.6515C42.3506 17 40.4574 18.8641 40.4282 21.165V22.8835C40.4282 23.0291 40.3117 23.1748 40.1661 23.1748H40.137C37.1661 23.2913 34.5156 24.9515 34.5156 28.6505Z" fill="#555555"/>
<path d="M69.5547 38.233V47H75.7294V33.2524C75.7294 32.6408 76.1955 32.5243 76.545 32.8738L91.1081 47H99.5547L84.1178 32L99.5547 17H91.1081L76.545 31.1262C76.1955 31.4757 75.7294 31.3592 75.7294 30.7476V17H69.5547V25.8252C69.5547 29 71.6226 30.8932 75.2926 31.9126C75.4382 31.9709 75.4382 32.1165 75.2926 32.1456C71.6226 33.1359 69.5547 35.0583 69.5547 38.233Z" fill="#555555"/>
</g>
<defs>
<clipPath id="clip0_4594_38870">
<rect width="99.5534" height="30" fill="white" transform="translate(0 17)"/>
</clipPath>
</defs>
</svg>
