<svg width="54" height="64" viewBox="0 0 54 64" fill="none" xmlns="http://www.w3.org/2000/svg">
<g clip-path="url(#clip0_4594_38764)">
<mask id="mask0_4594_38764" style="mask-type:luminance" maskUnits="userSpaceOnUse" x="-14" y="-4" width="81" height="72">
<path d="M-13.4922 -3.11702H66.4037V67.0928H-13.4922V-3.11702Z" fill="white"/>
</mask>
<g mask="url(#mask0_4594_38764)">
<path fill-rule="evenodd" clip-rule="evenodd" d="M44.191 6.99899H8.92857C6.07043 6.99899 5.01562 8.05379 5.01562 10.9133V45.4173C5.01562 45.7409 5.02867 46.0415 5.05726 46.3199C5.12233 46.9441 5.13458 47.5489 5.71507 48.2375C5.7718 48.305 6.36445 48.746 6.36445 48.746C6.68323 48.9024 6.9009 49.0175 7.26043 49.1622L24.6241 56.437C25.5255 56.8502 25.9025 57.0113 26.5572 56.9983V56.9984C26.558 56.9984 26.5588 56.9984 26.5597 56.9984C26.5606 56.9984 26.5614 56.9984 26.5623 56.9984V56.9983C27.217 57.0113 27.5939 56.8502 28.4954 56.437L45.859 49.1622C46.2187 49.0175 46.4362 48.9024 46.7551 48.746C46.7551 48.746 47.3478 48.305 47.4044 48.2375C47.9849 47.5489 47.9971 46.9441 48.0622 46.3199C48.0908 46.0415 48.1039 45.7409 48.1039 45.4173V10.9133C48.1039 8.05379 47.049 6.99899 44.191 6.99899Z" fill="#555555"/>
<path d="M41.8122 41.6894L41.8042 41.769L41.7963 41.8565L41.7804 41.9361L41.7566 42.0157L41.7411 42.0873L41.7172 42.1669L41.6854 42.2386L41.6535 42.3023L41.6222 42.3739L41.5824 42.4375L41.5426 42.5013L41.4953 42.5649L41.4555 42.6286L41.4082 42.6842L41.3525 42.74L41.3052 42.7877L41.2416 42.8435L41.1863 42.8912L41.1226 42.939L41.0594 42.9782L40.9962 43.026L40.9246 43.0658L40.8534 43.0976L40.7823 43.1374L40.7027 43.1693L40.6236 43.2011L40.5445 43.2249L40.4654 43.2489L40.3937 43.2727L40.3146 43.2887L40.2434 43.3046L40.1723 43.3204L40.0927 43.3364L40.0135 43.3443L39.9424 43.3523L39.8628 43.3603L39.7758 43.3683L39.6966 43.3762H39.6175H39.5304H39.4429H39.3638L39.2846 43.3683H39.1976L39.1184 43.3603L39.0389 43.3523L38.9518 43.3443L38.8727 43.3284L38.7936 43.3204L38.714 43.3046L38.6348 43.2887L38.5557 43.2727L38.4766 43.2568L38.397 43.233L38.3258 43.217L38.2467 43.1931L38.1676 43.1693L38.096 43.1374L38.0169 43.1135L37.9457 43.0897L37.8665 43.0579L37.795 43.026L37.7238 42.9941L37.6526 42.9549L37.581 42.923L37.5098 42.8832L37.4466 42.8435L37.375 42.8036L37.3118 42.7638L37.2481 42.7241L37.1849 42.6763L37.1217 42.6286L37.0581 42.5808L36.9948 42.533L36.9391 42.4853L36.8759 42.4296L36.9237 42.366L36.9789 42.3102L37.0266 42.2465L37.082 42.1828L37.1297 42.1272L37.1769 42.0635L37.2327 41.9998L37.2799 41.9441L37.3357 41.8805L37.383 41.8247L37.4386 41.7611L37.486 41.6973L37.5337 41.6417L37.5889 41.578L37.6367 41.5143L37.6919 41.4586L37.7397 41.395L37.8029 41.4427L37.8741 41.4905L37.9377 41.5382L38.0089 41.586L38.0726 41.6258L38.1438 41.6734L38.2069 41.7133L38.2786 41.7451L38.3417 41.7849L38.4129 41.8168L38.4846 41.8486L38.5557 41.8805L38.627 41.9043L38.6985 41.9361L38.7776 41.96L38.8568 41.9839L38.9279 42.0078L39.0075 42.0237L39.0866 42.0396L39.1657 42.0555L39.2528 42.0635L39.3324 42.0794H39.4115L39.4985 42.0873H39.5777H39.6727L39.7598 42.0794L39.8394 42.0635L39.9105 42.0475L39.9817 42.0316L40.0454 42.0078L40.1007 41.976L40.1643 41.9282L40.2116 41.8725L40.2434 41.8087L40.2674 41.7372L40.2752 41.6575V41.6417L40.2674 41.5461L40.2355 41.4665L40.1957 41.4108L40.1405 41.3631L40.0767 41.3153L40.0135 41.2835L39.9424 41.2517L39.8628 41.2198L39.7678 41.1801L39.7125 41.1641L39.6494 41.1483L39.5777 41.1243L39.5065 41.1084L39.4274 41.0845L39.3478 41.0686L39.2608 41.0447L39.1816 41.0289L39.0945 41.005L39.0154 40.9891L38.9358 40.9652L38.8568 40.9492L38.7776 40.9253L38.706 40.9016L38.627 40.8856L38.5557 40.8617L38.4846 40.8378L38.4129 40.8139L38.3258 40.7821L38.2467 40.7502L38.1676 40.7184L38.088 40.6865L38.0169 40.6468L37.9377 40.607L37.8741 40.5672L37.8029 40.5275L37.7397 40.4797L37.676 40.4399L37.6208 40.3921L37.5651 40.3364L37.5098 40.2807L37.4621 40.2249L37.4149 40.1693L37.375 40.1136L37.3357 40.0499L37.2959 39.9783L37.264 39.9231L37.2401 39.8594L37.2168 39.7877L37.1929 39.7241L37.1769 39.6444L37.1611 39.5728L37.1531 39.4933L37.1452 39.4136L37.1372 39.3262V39.2386V39.2227V39.143L37.1452 39.0635L37.1531 38.9919L37.1611 38.9122L37.1769 38.8407L37.1929 38.769L37.2168 38.6973L37.2327 38.6258L37.264 38.5541L37.2959 38.4825L37.3277 38.4109L37.3671 38.3392L37.4068 38.2677L37.4541 38.2039L37.5019 38.1403L37.5572 38.0766L37.6128 38.021L37.6681 37.9572L37.7318 37.9015L37.787 37.8617L37.8506 37.8139L37.9139 37.7662L37.9771 37.7264L38.0487 37.6866L38.1199 37.6548L38.191 37.615L38.2626 37.5832L38.3417 37.5592L38.4208 37.5275L38.4925 37.5036L38.5557 37.4876L38.627 37.4717L38.6985 37.4558L38.7776 37.4399L38.8488 37.424L38.9279 37.4161L39.0075 37.4081L39.0866 37.4001L39.1657 37.3922H39.2448H39.3324H39.4195H39.5065L39.5936 37.4001L39.6807 37.4081H39.7598L39.8473 37.4161L39.9264 37.4319L40.0135 37.4399L40.0927 37.4558L40.1643 37.4717L40.2434 37.4876L40.3225 37.5036L40.3937 37.5195L40.4733 37.5434L40.5445 37.5672L40.6157 37.5832L40.6952 37.615L40.7664 37.6389L40.8375 37.6707L40.9087 37.7025L40.9882 37.7344L41.0594 37.7742L41.1226 37.806L41.1943 37.8458L41.2655 37.8856L41.3287 37.9254L41.4002 37.9732L41.4635 38.0129L41.5272 38.0607L41.5904 38.1085L41.6535 38.1562L41.6063 38.2199L41.5665 38.2835L41.5192 38.3472L41.4714 38.4109L41.4242 38.4825L41.3844 38.5461L41.3366 38.6099L41.2893 38.6735L41.2496 38.7372L41.2022 38.8009L41.1545 38.8646L41.1147 38.9282L41.0674 38.9999L41.0196 39.0635L40.9724 39.1272L40.9326 39.1908L40.8853 39.2545L40.8216 39.2068L40.7505 39.1669L40.6872 39.1272L40.6236 39.0794L40.5525 39.0476L40.4887 39.0078L40.4176 38.9759L40.3544 38.9441L40.2828 38.9122L40.2196 38.8805L40.1484 38.8566L40.0848 38.8247L39.9976 38.8009L39.9185 38.7769L39.8394 38.7532L39.7598 38.7372L39.6807 38.7213L39.6016 38.7053L39.5225 38.6973L39.4429 38.6894L39.3718 38.6814H39.2926H39.1976L39.1105 38.6973L39.0309 38.7133L38.9598 38.7292L38.8966 38.7611L38.8408 38.7928L38.7696 38.8566L38.7219 38.9282L38.6906 38.9999L38.6825 39.0794V39.0954L38.6906 39.1988L38.7299 39.2863L38.7617 39.3341L38.8169 39.3898L38.8886 39.4296L38.9518 39.4694L39.0309 39.5012L39.1184 39.5331L39.2135 39.5649L39.2767 39.5808L39.3399 39.6047L39.4115 39.6206L39.4826 39.6444L39.5617 39.6604L39.6494 39.6843L39.7365 39.7081L39.8235 39.7321L39.9105 39.7479L39.9896 39.7718L40.0767 39.7957L40.1563 39.8116L40.2355 39.8355L40.3146 39.8594L40.3857 39.8832L40.4654 39.9071L40.5366 39.931L40.6077 39.9549L40.6952 39.9862L40.7743 40.0261L40.8534 40.0579L40.9326 40.0976L41.0042 40.1375L41.0754 40.1773L41.1385 40.217L41.2022 40.2648L41.2655 40.3046L41.3287 40.3603L41.3923 40.416L41.4476 40.4797L41.5032 40.5354L41.5505 40.5991L41.5983 40.6707L41.6376 40.7343L41.6775 40.806L41.7093 40.8697L41.7331 40.9412L41.7566 41.0129L41.7725 41.0845L41.7884 41.1641L41.8042 41.2438L41.8122 41.3233L41.8202 41.4108V41.4984V41.5143V41.6019L41.8122 41.6894ZM36.2556 43.2808H36.176H36.0969H36.0178H35.9387H35.8591H35.7799H35.7009H35.6217H35.5342H35.4551H35.376H35.2969H35.2172H35.1382H35.059H34.9799H34.9003H34.8212H34.7421H34.663H34.5838H34.5042H34.4251H34.3461H34.2669H34.1872H34.1081H34.029H33.942H33.8624H33.7832H33.7041H33.625H33.5455H33.4663H33.3872H33.308H33.2285H33.1494H33.0703H32.9911H32.9115H32.8325H32.7533H32.6742H32.5946H32.5155H32.4284H32.3493H32.2702H32.1905H32.1115H32.0323H31.9533H31.8737H31.7945H31.7154V43.2011V43.1215V43.042V42.9628V42.8832V42.8036V42.7241V42.6445V42.5649V42.4853V42.4057V42.3261V42.2465V42.1669V42.0873V42.0078V41.9282V41.8486V41.7769V41.6973V41.6178V41.5382V41.4586V41.379V41.2994V41.2198V41.1402V41.0606V40.9811V40.9016V40.8219V40.7423V40.6628V40.5831V40.5035V40.424V40.3443V40.2648V40.1852V40.1056V40.0261V39.9469V39.8673V39.7877V39.7081V39.6285V39.549V39.4694V39.3898V39.3102V39.2306V39.151V39.0714V38.9919V38.9202V38.8407V38.7611V38.6814V38.6019V38.5223V38.4427V38.3631V38.2835V38.2039V38.1244V38.0447V37.9651V37.8856V37.806V37.7264V37.6469V37.5672V37.4876H31.7945H31.8737H31.9533H32.0323H32.1115H32.1905H32.2702H32.3493H32.4284H32.5076H32.5871H32.6663H32.7453H32.8245H32.896H32.9752H33.0543H33.1335H33.213H33.2921H33.3712H33.4504H33.53H33.6091H33.6882H33.7673H33.847H33.9261H34.0052H34.0843H34.1639H34.2431H34.3221H34.4012H34.4804H34.56H34.6391H34.7182H34.7973H34.8769H34.956H35.0351H35.1142H35.1859H35.265H35.3441H35.4233H35.5029H35.582H35.661H35.7401H35.8198H35.8989H35.978H36.0572H36.1367H36.2159H36.295V37.5672V37.6389V37.7184V37.798V37.8776V37.9492V38.0289V38.1085V38.18V38.2597V38.3392V38.4109V38.4905V38.57V38.6496V38.7213V38.8009H36.2159H36.1367H36.0572H35.978H35.8989H35.8198H35.7481H35.669H35.5899H35.5108H35.4312H35.3521H35.2729H35.1938H35.1142H35.0351H34.956H34.8769H34.7973H34.7262H34.647H34.5679H34.4883H34.4093H34.3301H34.251H34.1713H34.0922H34.0132H33.9341H33.8544H33.7752H33.7041H33.625H33.5455H33.4663H33.3872H33.308H33.2285V38.8805V38.96V39.0395V39.1192V39.1988V39.2704V39.35V39.4296V39.5091V39.5888V39.6683V39.7479H33.308H33.3872H33.4663H33.5455H33.625H33.7041H33.7832H33.8624H33.9341H34.0132H34.0922H34.1713H34.251H34.3301H34.4093H34.4883H34.5679H34.647H34.7262H34.8053H34.8848H34.9639H35.0431H35.1223H35.2018H35.2809H35.3521H35.4312H35.5108H35.5899H35.669H35.7481H35.8277H35.9069H35.986V39.8275V39.8991V39.9783V40.0579V40.1295V40.209V40.2887V40.3603V40.4399V40.5195V40.5991V40.6707V40.7502V40.8298V40.9016V40.9811H35.9069H35.8277H35.7481H35.669H35.5899H35.5108H35.4312H35.3521H35.2809H35.2018H35.1223H35.0431H34.9639H34.8848H34.8053H34.7262H34.647H34.5679H34.4883H34.4093H34.3301H34.251H34.1713H34.0922H34.0132H33.9341H33.8624H33.7832H33.7041H33.625H33.5455H33.4663H33.3872H33.308H33.2285V41.0606V41.1483V41.2278V41.3074V41.395V41.4746V41.5541V41.6417V41.7212V41.8008V41.8884V41.9679H33.308H33.3872H33.4663H33.5455H33.625H33.7041H33.7832H33.8624H33.942H34.029H34.1081H34.1872H34.2669H34.3461H34.4251H34.5042H34.5838H34.663H34.7421H34.8212H34.9003H34.9799H35.059H35.1382H35.2172H35.2969H35.376H35.4551H35.5342H35.6217H35.7009H35.7799H35.8591H35.9387H36.0178H36.0969H36.176H36.2556H36.3348V42.0475V42.1192V42.1988V42.2783V42.358V42.4296V42.5092V42.5887V42.6604V42.74V42.8195V42.8912V42.9703V43.0499V43.1294V43.2011V43.2808H36.2556ZM30.4663 43.2808H30.3872H30.308H30.2206H30.1415H30.0623H29.9832H29.9036H29.8245H29.7374H29.6583H29.5791H29.4996H29.4205H29.3414H29.2543H29.1747H29.0956H29.0164V43.2011V43.1215V43.042V42.9623V42.8823V42.8027V42.7231V42.6435V42.5639V42.4844V42.4048V42.3248V42.2451V42.1655V42.086V42.0063V41.9263V41.8466V41.7671V41.6876V41.6079V41.5284V41.4483V41.3688V41.2891V41.2095V41.13V41.0503V40.9703V40.8906V40.8111V40.7316V40.652V40.5724V40.4923V40.4128V40.3331V40.2536V40.174V40.0939V40.0144V39.9347V39.8551L28.9767 39.9187L28.9294 39.9909L28.8895 40.0546L28.8423 40.1183L28.8025 40.1899L28.7547 40.2536L28.7154 40.3173L28.6756 40.3893L28.6283 40.453L28.5885 40.5166L28.5408 40.5804L28.5015 40.6525L28.4537 40.7161L28.4144 40.7798L28.3745 40.8514L28.3268 40.9155L28.2875 40.9792L28.2397 41.0508L28.2005 41.1145L28.1527 41.1782L28.1134 41.2503L28.0735 41.314L28.0258 41.3776L27.9865 41.4493L27.9388 41.5134L27.8994 41.577L27.8517 41.6408L27.8118 41.7123L27.7725 41.7764L27.7248 41.8402L27.6855 41.9118L27.6377 41.9754L27.598 42.0391L27.5506 42.1113L27.5109 42.1749H27.4794L27.4318 42.1033L27.3919 42.0391L27.3446 41.9675L27.3048 41.9038L27.2575 41.8323L27.2177 41.7681L27.1705 41.6964L27.1306 41.6327L27.0829 41.5611L27.0436 41.4975L26.9958 41.4253L26.9566 41.3617L26.9088 41.29L26.8689 41.2264L26.8217 41.1543L26.7819 41.0906L26.7346 41.019L26.6869 40.9554L26.6471 40.8833L26.5998 40.8196L26.56 40.748L26.5127 40.6843L26.4729 40.6122L26.4256 40.5485L26.3858 40.4769L26.3381 40.4132L26.2988 40.3416L26.251 40.2774L26.2117 40.2058L26.1639 40.1421L26.1241 40.0705L26.0769 40.0069L26.037 39.9347L25.9897 39.8711V39.9506V40.0302V40.1099V40.1899V40.2695V40.349V40.4287V40.5083V40.5883V40.6679V40.7395V40.8191V40.8987V40.9783V41.0583V41.138V41.2175V41.297V41.3767V41.4563V41.5363V41.6159V41.6955V41.7751V41.8547V41.9343V42.0143V42.0939V42.1735V42.253V42.3327V42.4127V42.4844V42.5639V42.6435V42.7231V42.8027V42.8823V42.9623V43.042V43.1215V43.2011V43.2808H25.9106H25.8311H25.7519H25.6728H25.5937H25.5142H25.435H25.3559H25.2767H25.1972H25.1181H25.0389H24.9598H24.8802H24.8012H24.722H24.6428H24.5632H24.4841V43.2011V43.1215V43.042V42.9628V42.8832V42.8036V42.7241V42.6445V42.5649V42.4853V42.4057V42.3261V42.2465V42.1669V42.0873V42.0078V41.9282V41.8486V41.7769V41.6973V41.6178V41.5382V41.4586V41.379V41.2994V41.2198V41.1402V41.0606V40.9811V40.9016V40.8219V40.7423V40.6628V40.5831V40.5035V40.424V40.3443V40.2648V40.1852V40.1056V40.0261V39.9469V39.8673V39.7877V39.7081V39.6285V39.549V39.4694V39.3898V39.3102V39.2306V39.151V39.0714V38.9919V38.9202V38.8407V38.7611V38.6814V38.6019V38.5223V38.4427V38.3631V38.2835V38.2039V38.1244V38.0447V37.9651V37.8856V37.806V37.7264V37.6469V37.5672V37.4876H24.5632H24.6428H24.7141H24.7931H24.8723H24.9518H25.023H25.1021H25.1817H25.2608H25.332H25.4111H25.4907H25.5698H25.6409H25.72H25.7997H25.8789H25.95H26.0291H26.1087L26.148 37.5513L26.1878 37.6229L26.235 37.6861L26.2749 37.7577L26.3146 37.8214L26.354 37.8931L26.3937 37.9562L26.4411 38.028L26.4808 38.0916L26.5207 38.1553L26.56 38.2264L26.5998 38.2901L26.6471 38.3617L26.6869 38.4254L26.7266 38.4965L26.766 38.5602L26.8137 38.6238L26.8536 38.6951L26.8928 38.7587L26.9326 38.8303L26.972 38.894L27.0198 38.9651L27.0595 39.0289L27.0988 39.1004L27.1386 39.1636L27.178 39.2273L27.2257 39.2989L27.2655 39.3627L27.3048 39.4343L27.3446 39.4975L27.3839 39.5692L27.4318 39.6328L27.4715 39.7039L27.5109 39.7677L27.5506 39.7039L27.5904 39.6328L27.6377 39.5692L27.6774 39.4975L27.7168 39.4343L27.7566 39.3627L27.8039 39.2989L27.8437 39.2273L27.8835 39.1636L27.9228 39.1004L27.9705 39.0289L28.0099 38.9651L28.0497 38.894L28.0894 38.8303L28.1367 38.7587L28.1765 38.6951L28.2163 38.6238L28.2556 38.5602L28.2955 38.4965L28.3428 38.4254L28.3825 38.3617L28.4223 38.2901L28.4617 38.2264L28.5094 38.1553L28.5488 38.0916L28.5885 38.028L28.6283 37.9562L28.6756 37.8931L28.7154 37.8214L28.7547 37.7577L28.7945 37.6861L28.8423 37.6229L28.8816 37.5513L28.9214 37.4876H29.0005H29.0797H29.1512H29.2304H29.3095H29.3886H29.4602H29.5394H29.6184H29.6976H29.7693H29.8484H29.9275H30.0066H30.0782H30.1574H30.2365H30.3156H30.3872H30.4663H30.5454V37.5672V37.6469V37.7264V37.806V37.8856V37.9651V38.0447V38.1244V38.2039V38.2835V38.3631V38.4427V38.5223V38.6019V38.6814V38.7611V38.8407V38.9202V38.9919V39.0714V39.151V39.2306V39.3102V39.3898V39.4694V39.549V39.6285V39.7081V39.7877V39.8673V39.9469V40.0261V40.1056V40.1852V40.2648V40.3443V40.424V40.5035V40.5831V40.6628V40.7423V40.8219V40.9016V40.9811V41.0606V41.1402V41.2198V41.2994V41.379V41.4586V41.5382V41.6178V41.6973V41.7769V41.8486V41.9282V42.0078V42.0873V42.1669V42.2465V42.3261V42.4057V42.4853V42.5649V42.6445V42.7241V42.8036V42.8832V42.9628V43.042V43.1215V43.2011V43.2808H30.4663ZM21.273 40.8936L21.2492 40.8215L21.2178 40.7419L21.1859 40.6702L21.1621 40.5981L21.1307 40.5265L21.0989 40.4469L21.075 40.3748L21.0431 40.3031L21.0119 40.2316L20.9879 40.1595L20.956 40.0799L20.9327 40.0082L20.9008 39.9361L20.8689 39.8645L20.8451 39.7929L20.8137 39.7129L20.7819 39.6412L20.7581 39.5696L20.7262 39.4975L20.6949 39.4179L20.671 39.3458L20.6391 39.2742L20.6078 39.3458L20.584 39.4179L20.5521 39.4975L20.5202 39.5696L20.4968 39.6412L20.465 39.7129L20.4331 39.7929L20.4018 39.8645L20.3778 39.9361L20.3461 40.0082L20.3142 40.0799L20.2908 40.1595L20.259 40.2316L20.2271 40.3031L20.2033 40.3748L20.1719 40.4469L20.14 40.5265L20.1082 40.5981L20.0849 40.6702L20.053 40.7419L20.0212 40.8215L19.9973 40.8936L19.9659 40.9652H20.045H20.1241H20.2033H20.2829H20.362H20.4411H20.5202H20.5999H20.671H20.7501H20.8297H20.9088H20.9879H21.0671H21.1462H21.2257H21.3048L21.273 40.8936ZM23.7613 43.2808H23.6818H23.6105H23.5315H23.4519H23.3728H23.2936H23.2225H23.1429H23.0638H22.9847H22.9055H22.8259H22.7547H22.6757H22.5965H22.5169H22.4378H22.3666H22.2875H22.208L22.1766 43.209L22.1527 43.1374L22.1209 43.0658L22.089 42.9862L22.0656 42.915L22.0338 42.8435L22.002 42.7718L21.9785 42.7002L21.9467 42.6286L21.9149 42.5569L21.8911 42.4853L21.8596 42.4057L21.8278 42.3341L21.8039 42.2625L21.772 42.1908H21.6929H21.6138H21.5347H21.4556H21.384H21.3048H21.2257H21.1462H21.0671H20.9879H20.9088H20.8297H20.7501H20.671H20.5999H20.5202H20.4411H20.362H20.2829H20.2033H20.1241H20.045H19.9659H19.8868H19.8151H19.7361H19.6569H19.5773H19.4982L19.4669 42.2625L19.443 42.3341L19.4111 42.4057L19.3793 42.4853L19.3559 42.5569L19.3241 42.6286L19.2922 42.7002L19.2684 42.7718L19.237 42.8435L19.2051 42.915L19.1813 42.9862L19.1498 43.0658L19.1181 43.1374L19.0942 43.209L19.0623 43.2808H18.9832H18.9041H18.825H18.7454H18.6663H18.5792H18.5001H18.4209H18.3414H18.2623H18.1832H18.104H18.0244H17.9454H17.8663H17.7792H17.6996H17.6205H17.5413H17.4622L17.4935 43.209L17.5254 43.1374L17.5572 43.0658L17.5886 42.9862L17.6125 42.915L17.6443 42.8435L17.6761 42.7718L17.7075 42.7002L17.7393 42.6286L17.7712 42.5489L17.8025 42.4773L17.8344 42.4057L17.8582 42.3341L17.8901 42.2625L17.9214 42.1908L17.9533 42.1113L17.985 42.0396L18.0165 41.9679L18.0483 41.8963L18.0801 41.8247L18.104 41.7531L18.1353 41.6734L18.1672 41.6019L18.1991 41.5302L18.2304 41.4586L18.2623 41.387L18.2942 41.3153L18.3255 41.2357L18.3494 41.1641L18.3812 41.0925L18.413 41.0209L18.4445 40.9492L18.4762 40.8776L18.508 40.798L18.5394 40.7264L18.5712 40.6548L18.5951 40.5831L18.627 40.5116L18.6583 40.4399L18.6902 40.3603L18.722 40.2887L18.7534 40.217L18.7852 40.1454L18.817 40.0738L18.8409 40.0021L18.8723 39.931L18.9041 39.8514L18.9359 39.7798L18.9673 39.7081L18.9991 39.6364L19.031 39.5649L19.0623 39.4933L19.0862 39.4136L19.1181 39.3421L19.1498 39.2704L19.1813 39.1988L19.2131 39.1272L19.2449 39.0555L19.2763 38.9759L19.3081 38.9043L19.332 38.8327L19.3638 38.7611L19.3952 38.6894L19.427 38.6178L19.4589 38.5382L19.4902 38.4666L19.5221 38.395L19.5539 38.3233L19.5773 38.2518L19.6092 38.18L19.641 38.1005L19.6729 38.0289L19.7042 37.9572L19.7361 37.8856L19.7679 37.8139L19.7992 37.7424L19.8232 37.6628L19.855 37.5911L19.8868 37.5195L19.9182 37.4478H19.9973H20.0689H20.148H20.2271H20.3067H20.3778H20.4569H20.5361H20.6158H20.687H20.766H20.8451H20.9247H20.9959H21.075H21.1541H21.2337H21.3048H21.384L21.4158 37.5195L21.4477 37.5911L21.4791 37.6628L21.5109 37.7424L21.5347 37.8139L21.5661 37.8856L21.5979 37.9572L21.6297 38.0289L21.6616 38.1005L21.6929 38.18L21.7248 38.2518L21.7567 38.3233L21.78 38.395L21.8119 38.4666L21.8438 38.5382L21.8756 38.6178L21.907 38.6894L21.9387 38.7611L21.9706 38.8327L22.002 38.9043L22.0258 38.9759L22.0576 39.0555L22.089 39.1272L22.1209 39.1988L22.1527 39.2704L22.1846 39.3421L22.2159 39.4136L22.2477 39.4933L22.2716 39.5649L22.303 39.6364L22.3348 39.7081L22.3666 39.7798L22.3985 39.8514L22.4298 39.931L22.4617 40.0021L22.4935 40.0738L22.5169 40.1454L22.5487 40.217L22.5806 40.2887L22.612 40.3603L22.6438 40.4399L22.6757 40.5116L22.7075 40.5831L22.7389 40.6548L22.7627 40.7264L22.7945 40.798L22.8259 40.8776L22.8577 40.9492L22.8896 41.0209L22.9214 41.0925L22.9528 41.1641L22.9847 41.2357L23.0085 41.3153L23.0399 41.387L23.0717 41.4586L23.1035 41.5302L23.1349 41.6019L23.1667 41.6734L23.1986 41.7531L23.2305 41.8247L23.2538 41.8963L23.2857 41.9679L23.3176 42.0396L23.3489 42.1113L23.3807 42.1908L23.4126 42.2625L23.4443 42.3341L23.4757 42.4057L23.4996 42.4773L23.5315 42.5489L23.5629 42.6286L23.5946 42.7002L23.6264 42.7718L23.6578 42.8435L23.6896 42.915L23.7215 42.9862L23.7455 43.0658L23.7767 43.1374L23.8086 43.209L23.8404 43.2808H23.7613ZM16.8199 42.5409L16.7562 42.5887L16.7009 42.6286L16.6373 42.6763L16.5741 42.7161L16.5109 42.7638L16.4472 42.8036L16.384 42.8435L16.3124 42.8832L16.2412 42.923L16.17 42.9628L16.0984 42.9941L16.0272 43.034L15.9481 43.0658L15.877 43.0976L15.7974 43.1294L15.7263 43.1613L15.655 43.1852L15.5835 43.209L15.5123 43.233L15.4332 43.2568L15.3621 43.2808L15.2824 43.2967L15.2112 43.3125L15.1321 43.3284L15.0526 43.3443L14.9734 43.3523L14.8863 43.3603L14.8072 43.3683L14.7201 43.3762L14.6405 43.3842L14.5535 43.3921H14.4664H14.3793H14.2923H14.2126L14.1335 43.3842L14.0464 43.3762L13.9673 43.3683L13.8883 43.3603L13.8086 43.3523L13.7295 43.3364L13.6503 43.3204L13.5792 43.3046L13.4997 43.2887L13.4285 43.2648L13.3494 43.2489L13.2778 43.2249L13.2066 43.1931L13.1354 43.1693L13.0564 43.1374L12.9847 43.1056L12.9135 43.0738L12.8424 43.042L12.7707 43.0022L12.7076 42.9628L12.6364 42.923L12.5727 42.8832L12.5095 42.8435L12.4459 42.7956L12.3827 42.748L12.3194 42.7002L12.2637 42.6524L12.2085 42.6047L12.1527 42.5489L12.0975 42.5013L12.0418 42.4455L11.9866 42.3898L11.9388 42.3341L11.8915 42.2704L11.8437 42.2147L11.8039 42.151L11.7566 42.0873L11.7169 42.0237L11.6775 41.96L11.6378 41.8884L11.598 41.8247L11.5667 41.7531L11.5348 41.6814L11.503 41.6098L11.4716 41.5382L11.4477 41.4746L11.4158 41.4029L11.3999 41.3312L11.3765 41.2597L11.3606 41.1801L11.3367 41.1084L11.3208 41.0289L11.3129 40.9572L11.2969 40.8776L11.2891 40.806L11.281 40.7264L11.2735 40.6468L11.2656 40.5672V40.4797V40.4001V40.3842V40.3046L11.2735 40.217V40.1375L11.281 40.0579L11.2891 39.9703L11.305 39.8912L11.3129 39.8116L11.3287 39.74L11.3526 39.6604L11.3686 39.5808L11.3919 39.5091L11.4158 39.4296L11.4397 39.358L11.4716 39.2783L11.503 39.2068L11.5348 39.1351L11.5667 39.0635L11.598 38.9919L11.6378 38.9202L11.6775 38.8566L11.7169 38.7928L11.7566 38.7292L11.7965 38.6655L11.8437 38.6019L11.8915 38.5382L11.9388 38.4746L11.9866 38.4187L12.0418 38.3631L12.0895 38.3073L12.1448 38.2518L12.2005 38.1959L12.2557 38.1483L12.3194 38.0925L12.3747 38.0447L12.4379 37.997L12.5015 37.9572L12.5647 37.9095L12.6285 37.8697L12.6916 37.8299L12.7628 37.7901L12.8344 37.7503L12.9055 37.7105L12.9767 37.6786L13.0483 37.6469L13.1275 37.607L13.1907 37.5832L13.2698 37.5592L13.3415 37.5275L13.4126 37.5115L13.4837 37.4876L13.5633 37.4717L13.6344 37.4478L13.7135 37.4319L13.7927 37.424L13.8723 37.4081L13.9515 37.4001L14.0305 37.3922L14.1097 37.3842L14.1893 37.3762H14.2764H14.3555H14.4425H14.5296L14.6172 37.3842L14.7043 37.3922H14.7834L14.8625 37.4001L14.9495 37.4161L15.0212 37.424L15.1003 37.4399L15.1795 37.4558L15.251 37.4717L15.3221 37.4876L15.3934 37.5036L15.465 37.5275L15.5362 37.5434L15.5994 37.5672L15.671 37.5911L15.7422 37.6229L15.8133 37.6548L15.8849 37.6866L15.9561 37.7264L16.0272 37.7583L16.091 37.798L16.1621 37.8378L16.2253 37.8776L16.2969 37.9174L16.3601 37.9651L16.4233 38.005L16.487 38.0527L16.5502 38.1005L16.6139 38.1562L16.6771 38.2039L16.6293 38.2677L16.5741 38.3233L16.5263 38.387L16.4711 38.4506L16.4233 38.5144L16.376 38.57L16.3203 38.6337L16.2731 38.6973L16.2253 38.7532L16.17 38.8168L16.1223 38.8805L16.067 38.9441L16.0193 38.9999L15.972 39.0635L15.9164 39.1272L15.869 39.1908L15.8133 39.2466L15.766 39.3102L15.7023 39.2624L15.6391 39.2068L15.5755 39.1669L15.5123 39.1192L15.4491 39.0794L15.3854 39.0395L15.3221 38.9999L15.251 38.96L15.1874 38.9282L15.1242 38.8963L15.0605 38.8725L14.9893 38.8486L14.9182 38.8247L14.8466 38.8088L14.7675 38.7928L14.6884 38.7769L14.6092 38.769L14.5221 38.7611L14.4346 38.7532H14.3475H14.2684L14.1893 38.7611L14.1176 38.769L14.0385 38.7849L13.9673 38.8009L13.8957 38.8247L13.8246 38.8486L13.7534 38.8805L13.6822 38.9122L13.6186 38.952L13.5554 38.9919L13.4917 39.0317L13.4365 39.0794L13.3807 39.1272L13.3255 39.1749L13.2778 39.2306L13.2225 39.2863L13.1748 39.35L13.1354 39.4057L13.0956 39.4694L13.0564 39.541L13.0165 39.6047L12.9847 39.6763L12.9608 39.7479L12.9294 39.8196L12.9055 39.8991L12.8896 39.9783L12.8738 40.0499L12.8578 40.1375L12.8499 40.217L12.8424 40.2966V40.3842V40.4001V40.4797L12.8499 40.5592L12.8578 40.6309L12.8658 40.7105L12.8817 40.7821L12.8976 40.8538L12.9135 40.9253L12.9374 40.997L12.9608 41.0606L12.9927 41.1402L13.0245 41.2119L13.0638 41.2835L13.1036 41.3472L13.1434 41.4108L13.1907 41.4746L13.2384 41.5302L13.2936 41.586L13.3415 41.6417L13.3966 41.6894L13.4604 41.7372L13.5236 41.7849L13.5867 41.8247L13.6503 41.8645L13.7216 41.8963L13.7927 41.9282L13.8643 41.96L13.9435 41.9839L14.0226 42.0078L14.1022 42.0237L14.1813 42.0396L14.2604 42.0475L14.3475 42.0555H14.4346H14.5296L14.6172 42.0475L14.7043 42.0396L14.7834 42.0316L14.8625 42.0157L14.9421 41.9998L15.0212 41.976L15.0923 41.96L15.1636 41.9282L15.2272 41.8963L15.2983 41.8645L15.354 41.8327L15.4173 41.7928V41.7133V41.6338V41.5541V41.4746V41.387V41.3074V41.2278V41.1483V41.0686H15.3381H15.2665H15.1874H15.1083H15.0292H14.9575H14.8783H14.7992H14.7201H14.6486H14.5694H14.4903H14.4111H14.3396H14.2604V40.9891V40.9174V40.8378V40.7583V40.6786V40.607V40.5275V40.4478V40.3683V40.2966V40.217V40.1375V40.0579V39.9862V39.9071H14.3396H14.4191H14.4983H14.5773H14.6565H14.7356H14.8152H14.8943H14.9734H15.0526H15.1321H15.2112H15.2903H15.3694H15.4491H15.5283H15.6073H15.6864H15.766H15.8452H15.9243H16.0034H16.0829H16.1621H16.2412H16.3203H16.3999H16.479H16.5582H16.6373H16.7168H16.7959H16.8751V39.9862V40.0658V40.1454V40.217V40.2966V40.3762V40.4557V40.5354V40.615V40.6865V40.7662V40.8458V40.9253V41.005V41.0845V41.1641V41.2357V41.3153V41.395V41.4746V41.5541V41.6338V41.7133V41.7849V41.8645V41.9441V42.0237V42.1033V42.1828V42.2545V42.3341V42.4136V42.4933L16.8199 42.5409Z" fill="white"/>
<path d="M14.2833 24.3796H17.7173V21.7233H14.2833V16.3005H17.854V13.6443H11.3672V32.8149H17.9084V30.1586H14.2833V24.3796Z" fill="white"/>
<path d="M38.8878 24.9553V29.2824C38.8878 30.0494 38.5333 30.4052 37.7979 30.4052H37.2524C36.4894 30.4052 36.135 30.0494 36.135 29.2824V17.1771C36.135 16.4103 36.4894 16.0545 37.2524 16.0545H37.7431C38.479 16.0545 38.8335 16.4103 38.8335 17.1771V20.9295H41.6949V17.0128C41.6949 14.6304 40.5502 13.4801 38.1795 13.4801H36.7619C34.3911 13.4801 33.2188 14.6576 33.2188 17.0404V29.4192C33.2188 31.8021 34.3911 32.9795 36.7619 32.9795H38.2066C40.5779 32.9795 41.7496 31.8021 41.7496 29.4192V24.9553H38.8878Z" fill="white"/>
<path d="M28.75 32.8154H31.6666V13.6447H28.75V32.8154Z" fill="white"/>
<path d="M24.5258 22.1614C24.5258 22.9284 24.1719 23.2846 23.4359 23.2846H22.2365V16.2186H23.4359C24.1719 16.2186 24.5258 16.5745 24.5258 17.3412V22.1614ZM23.899 13.6442H19.3203V32.8149H22.2365V25.8585H23.899C26.2702 25.8585 27.442 24.6811 27.442 22.2987V17.2045C27.442 14.8217 26.2702 13.6442 23.899 13.6442Z" fill="white"/>
<path fill-rule="evenodd" clip-rule="evenodd" d="M18.2344 50.1485H34.9285L26.4076 52.9585L18.2344 50.1485Z" fill="white"/>
</g>
</g>
<defs>
<clipPath id="clip0_4594_38764">
<rect width="43.0883" height="50" fill="white" transform="translate(5 7)"/>
</clipPath>
</defs>
</svg>
