<svg width="152" height="64" viewBox="0 0 152 64" fill="none" xmlns="http://www.w3.org/2000/svg">
<g clip-path="url(#clip0_4594_39064)">
<path d="M18.2251 14.6593V15.1304H17.911C17.4713 15.1304 16.7175 15.1304 16.7175 16.5437V22.2912C16.7175 25.8087 15.1786 27.5047 12.0379 27.5047C8.48896 27.5047 6.8244 26.0914 6.8244 23.0449V16.5123C6.8244 15.099 6.07064 15.099 5.37969 15.099H5.22266V14.6279H10.5304V15.099H10.3734C9.71382 15.099 8.89725 15.099 8.89725 16.5123V22.7309C8.89725 25.4004 10.0279 26.7195 12.3206 26.7195C14.5505 26.7195 15.7439 25.3062 15.7439 22.6681V16.5123C15.7439 15.099 14.9588 15.099 14.3934 15.099H14.1108V14.6279C14.2992 14.6593 18.0994 14.6593 18.2251 14.6593Z" fill="#555555"/>
<path d="M23.9716 26.7823V27.2534H19.4805V26.7823H19.6689C21.145 26.7823 21.3335 25.6517 21.3335 24.3954V16.8264C21.3335 15.6329 20.6425 15.1304 19.6689 15.1304H19.5119V14.6593H23.0294L30.6613 24.0186V16.8892C30.6613 15.2875 29.5306 15.099 29.0595 15.099H28.7455V14.6279H33.268V15.099H33.0796C32.2944 15.099 31.4464 15.2875 31.4464 17.4859V27.2849H30.7869L22.0872 16.8264V24.3954C22.0872 25.6517 22.2757 26.7823 23.7832 26.7823" fill="#555555"/>
<path d="M48.0286 24.5842L50.7924 16.8581C51.2949 15.5391 50.9808 15.1308 49.8187 15.1308H49.5989V14.6597H53.1793V15.1308H53.085C52.7082 15.1308 52.2371 15.2564 51.8916 16.1044L47.7145 27.2852H46.9293L42.3753 16.1986C41.9985 15.2878 41.5902 15.1308 40.8364 15.1308H40.7422V14.6597H45.9243V15.1308H45.5788C44.6994 15.1308 44.511 15.6961 44.7623 16.3556" fill="#555555"/>
<path d="M70.9576 14.6597C73.7528 14.6597 75.1347 15.6961 75.1347 17.8003C75.1347 19.5905 73.7528 20.5013 72.6536 20.941L72.5593 20.9724L75.6372 25.652C76.1397 26.4058 76.548 26.7199 77.396 26.7513V27.2224H74.1925L70.4551 21.3179H69.0732V25.2437C69.0732 26.6571 69.7013 26.7827 70.5807 26.7827H70.832V27.2538H65.3672V26.7827H65.6184C66.2152 26.7827 66.9375 26.5 66.9375 25.7148V16.5755C66.9375 15.1308 66.0895 15.1308 65.6184 15.1308H65.3672V14.6597H70.9576ZM69.0104 15.2564V20.8154H70.0782C72.0254 20.8154 72.9048 19.936 72.9048 17.8946C72.9048 16.23 71.837 15.1622 70.2352 15.1622C69.8584 15.1936 69.3558 15.1936 69.0104 15.2564Z" fill="#555555"/>
<path d="M84.0215 24.8668C84.0215 23.3279 82.7024 22.7312 81.4776 22.1031C80.0328 21.3493 78.3997 20.5955 78.3997 18.2714C78.3997 16.0101 80.0957 14.5654 82.5454 14.5654C83.4334 14.5766 84.3177 14.6819 85.1836 14.8795L85.3406 17.3292L84.8695 17.392C84.6496 16.1044 83.9901 15.1308 82.5454 15.1308C81.1949 15.1308 80.1899 15.9787 80.1899 17.4549C80.1899 18.8682 81.509 19.4649 82.7024 20.0616C84.2099 20.8154 85.9059 21.6005 85.9059 23.9246C85.9059 26.5314 83.5818 27.6935 81.4461 27.6935C80.406 27.7137 79.3782 27.4648 78.4625 26.9711L78.1484 24.2387L78.6195 24.1445C78.965 25.9661 80.1271 27.0025 81.6346 27.0025C83.0793 27.0025 84.0215 26.1231 84.0215 24.8668Z" fill="#555555"/>
<path d="M92.9715 14.6597V15.1308H92.7831C92.0607 15.1308 91.4012 15.2564 91.4012 16.23V25.652C91.4012 26.6256 92.0607 26.7513 92.7831 26.7513H92.9715V27.2224H87.7266V26.7513H87.915C88.6374 26.7513 89.2969 26.6256 89.2969 25.652V16.23C89.2969 15.2564 88.6374 15.1308 87.915 15.1308H87.7266V14.6597H92.9715Z" fill="#555555"/>
<path d="M39.9871 14.6597V15.1308H39.7987C39.0763 15.1308 38.4168 15.2564 38.4168 16.23V25.652C38.4168 26.6256 39.0763 26.7513 39.7987 26.7513H39.9871V27.2224H34.7422V26.7513H34.9306C35.653 26.7513 36.3125 26.6256 36.3125 25.652V16.23C36.3125 15.2564 35.653 15.1308 34.9306 15.1308H34.7422V14.6597H39.9871Z" fill="#555555"/>
<path d="M144.637 32.8125L144.669 36.1416L144.135 36.2672C144.009 34.8225 143.695 33.6291 141.34 33.6291H138.199V39.7848H140.9C142.219 39.7848 142.564 39.031 142.721 37.7748H143.255V42.9255H142.721C142.627 41.7006 142.345 40.727 140.9 40.727H138.199V46.129C138.199 47.6993 139.549 47.6993 140.994 47.6993C143.569 47.6993 144.763 47.5423 145.485 44.9355C145.579 44.9669 146.019 45.0611 146.019 45.0611L145.297 48.5473H133.582V47.982H133.802C134.713 47.982 135.529 47.8249 135.529 46.6001V34.7597C135.529 33.5349 134.713 33.3778 133.802 33.3778H133.582V32.8125H144.637Z" fill="#555555"/>
<path d="M80.8476 32.8127C84.3338 32.8127 86.0611 34.1003 86.0611 36.7385C86.0611 38.9684 84.3024 40.1304 82.9205 40.6643L82.8262 40.6958L86.6893 46.5688C87.3174 47.511 87.8199 47.8879 88.8877 47.9507V48.5474H84.8363L80.1567 41.1354H78.4293V46.0349C78.4293 47.8251 79.2145 47.9507 80.3451 47.9507H80.6592V48.516H73.8125V47.9507H74.1266C74.8803 47.9507 75.7911 47.6052 75.7911 46.6316V35.1682C75.7911 33.3466 74.7233 33.3466 74.1266 33.3466H73.8125V32.7812C73.9695 32.8127 80.8476 32.8127 80.8476 32.8127ZM78.4293 33.5664V40.5387H79.7798C82.2295 40.5387 83.3287 39.4395 83.3287 36.8955C83.3287 34.8227 81.9783 33.4722 79.9682 33.4722C79.4538 33.4703 78.9397 33.5018 78.4293 33.5664Z" fill="#555555"/>
<path d="M96.4275 32.8125V33.3778H96.2076C95.2968 33.3778 94.4802 33.5349 94.4802 34.7597V46.6001C94.4802 47.8249 95.2968 47.982 96.2076 47.982H96.4275V48.5473H89.832V47.982H90.0519C90.9627 47.982 91.7793 47.8249 91.7793 46.6001V34.7597C91.7793 33.5349 90.9627 33.3778 90.0519 33.3778H89.832V32.8125H96.4275Z" fill="#555555"/>
<path d="M95.7039 14.6595H104.027C104.435 14.6595 104.969 14.5653 105.063 14H105.471L105.157 17.2663H104.718C104.686 16.5125 104.592 15.4133 103.367 15.4133H100.823V25.118C100.823 26.6255 101.546 26.7511 102.362 26.7511H102.613V27.2222H96.8974V26.7511H97.1486C98.0908 26.7511 98.6876 26.6883 98.6876 25.1494V15.4133H96.1122C94.7931 15.4133 94.6675 15.9786 94.4163 17.2663H93.9766L94.2592 14.0314H94.6361C94.7931 14.5653 95.2642 14.6595 95.7039 14.6595Z" fill="#555555"/>
<path d="M118.318 14.6597V15.1308C117.596 15.1622 117.156 15.6647 116.842 16.1358L113.639 21.0666V25.0867C113.639 26.6885 114.204 26.8141 115.178 26.8141H115.429V27.2852H109.713V26.8141H109.964C110.969 26.8141 111.503 26.5628 111.503 25.2437V21.3807L108.048 16.4184C107.514 15.6647 107.106 15.1622 106.29 15.1622H106.195V14.6911H111.377V15.1622H111.22C110.215 15.1622 110.153 15.6961 110.561 16.2928L113.23 20.4385L115.617 16.6697C116.151 15.8531 116.308 15.1308 114.958 15.1308H114.738V14.6597" fill="#555555"/>
<path d="M122.117 21.0352C122.117 17.2978 124.944 14.377 128.556 14.377C132.513 14.377 135.245 16.9209 135.245 20.5955C135.245 24.5842 132.481 27.505 128.65 27.505C124.881 27.505 122.117 24.804 122.117 21.0352ZM124.473 20.4071C124.473 23.5163 125.855 26.8454 128.87 26.8454C131.633 26.8454 132.953 24.9296 132.953 21.0038C132.953 18.1144 131.414 15.0365 128.556 15.0365C124.755 15.0365 124.473 19.1508 124.473 20.4071Z" fill="#555555"/>
<path d="M136.723 27.2224V26.7513H136.911C137.633 26.7513 138.293 26.6256 138.293 25.652V16.23C138.293 15.2564 137.633 15.1308 136.911 15.1308H136.723V14.6597H145.517L145.548 17.3292C145.417 17.3787 145.279 17.4104 145.14 17.4235C145.045 16.3556 144.794 15.3192 143.287 15.3192H140.429V20.2501H142.941C143.978 20.2501 144.135 19.4335 144.135 18.774H144.543V22.794H144.135C144.135 22.0088 143.946 21.0038 142.659 21.0038H140.429V25.652C140.429 26.7513 141.371 26.7513 142.187 26.7513H142.344V27.2224" fill="#555555"/>
<path d="M6.22656 40.6959C6.22656 38.3404 7.16876 36.0477 8.80192 34.5716C10.3963 33.167 12.4562 32.4057 14.5808 32.4359C16.4226 32.4088 18.2471 32.7952 19.9199 33.5665L20.0769 37.2097L19.5744 37.2725C18.9777 35.1683 18.0041 33.2211 14.6436 33.2211C11.2202 33.2211 9.08457 35.9535 9.08457 40.319C9.08457 44.2134 10.8119 47.888 14.989 47.888C17.3446 47.888 19.0091 47.0086 20.2654 45.3755L20.6737 46.1607C19.2604 48.0137 17.0619 48.9873 14.5494 48.9873C9.49287 48.9873 6.22656 46.0036 6.22656 40.6959Z" fill="#555555"/>
<path d="M40.2412 35.8591L39.7072 45.5952C39.613 47.7623 40.2726 47.9507 41.7173 47.9821H41.8429V48.5474H36.5352V47.9821H36.7236C38.5138 47.9193 38.6394 46.9143 38.7022 45.4696L39.3304 35.5136C39.4246 34.1631 38.6708 33.378 37.4145 33.378H37.2261V32.8127H41.6859C41.7487 32.9383 47.025 44.7472 47.025 44.7472C47.025 44.7472 52.0501 32.9383 52.0815 32.7812H56.447V33.3466H56.3528C54.594 33.3466 54.28 33.9119 54.4056 36.1418L55.0023 46.6002C55.0966 47.8251 55.7247 47.9193 56.9495 47.9821V48.5474H50.4169V47.9821H50.4484C51.5162 47.9193 52.2699 47.8879 52.2699 46.7887L52.2385 45.658L51.7674 35.5765C51.7674 35.5765 46.3655 48.5474 46.3027 48.6731H45.8316C45.8944 48.5788 40.2412 35.8591 40.2412 35.8591Z" fill="#555555"/>
<path d="M98.9062 48.579V48.0137H99.1261C100.037 48.0137 100.853 47.8567 100.853 46.6318V34.7915C100.853 33.5666 100.037 33.4096 99.1261 33.4096H98.9062V32.8442H105.941C108.548 32.8442 110.747 33.5038 112.286 34.9171C113.824 36.3304 114.61 38.309 114.61 40.6645C114.609 42.8644 113.74 44.9752 112.191 46.5376C110.652 48.0765 108.485 48.579 106.287 48.579M103.554 33.5666V45.9409C103.554 47.6054 104.277 47.8881 105.941 47.8881C109.93 47.8881 111.752 44.4647 111.752 41.1042C111.752 35.8907 109.585 33.5038 105.156 33.5038C104.748 33.5038 103.931 33.5352 103.554 33.5666Z" fill="#555555"/>
<path d="M128.053 47.7624V43.8993C128.053 43.0513 127.425 42.6117 126.263 42.6117H126.075V42.0463H132.136V42.6117H131.948C131.1 42.6117 130.66 43.0513 130.66 43.8993V48.2021C128.872 48.7669 127.008 49.0529 125.133 49.05C119.919 49.05 116.559 45.6895 116.559 40.4446C116.559 34.8856 120.987 32.373 125.164 32.373C126.869 32.3818 128.563 32.6465 130.189 33.1582L130.44 36.927H129.906C129.247 34.226 128.053 33.1582 125.321 33.1582C121.646 33.1582 119.448 35.8592 119.448 40.1933C119.448 44.182 121.332 48.1392 125.51 48.1392C126.375 48.2107 127.246 48.0818 128.053 47.7624Z" fill="#555555"/>
<path d="M63.9223 40.4131V45.9721C63.9223 47.511 64.4248 47.9507 66.0265 47.9507C67.9423 47.9507 69.387 46.3804 69.387 44.2133C69.387 41.795 67.9109 40.4131 65.4298 40.4131M63.9223 33.4094V39.7536H65.1157C67.2828 39.7536 68.4762 38.6857 68.4762 36.6757C68.4762 34.4458 67.4398 33.4094 65.3356 33.4094H63.9223ZM67.1258 40.0048C69.1044 40.1619 70.1722 40.6016 71.0516 41.5123C71.3927 41.8599 71.6603 42.2726 71.8384 42.7259C72.0165 43.1792 72.1014 43.6637 72.088 44.1505C72.088 46.6316 69.8267 48.6103 66.8745 48.6103H59.1484V48.045H59.4625C60.2163 48.045 61.1271 47.6681 61.1271 46.6945V35.2624C61.1271 33.4408 60.0592 33.4408 59.4625 33.4408H59.1484V32.8755H66.1522C69.4499 32.8755 71.24 34.0689 71.24 36.3302C71.2714 38.7486 69.073 39.6908 67.1258 40.0048Z" fill="#555555"/>
<path d="M27.6759 32.8125L22.6822 46.4116C22.3053 47.3852 21.6458 47.982 20.6722 47.982H20.6094V48.5787H25.4146V47.982H25.1948C24.0327 47.982 23.2475 47.6051 23.7501 46.129L24.8807 42.9569H29.843L31.0992 46.4116C31.4447 47.5109 31.005 48.0134 29.8116 48.0134H29.6859V48.6101H35.7788V48.0134H35.716C34.8994 48.0134 34.3341 47.5737 33.9572 46.5058L28.8379 32.8125M27.3932 36.016L29.5917 42.1717H25.1948L27.3932 36.016Z" fill="#555555"/>
<path d="M62.8214 14.6597L62.8528 17.3292C62.7094 17.374 62.5622 17.4056 62.4131 17.4235C62.3189 16.2614 62.0676 15.3192 60.1832 15.3192H57.6707V20.2187H59.8063C60.8428 20.2187 61.1568 19.6219 61.2511 18.6169H61.6907V22.7312H61.2511C61.1882 21.7576 60.9684 20.9724 59.8063 20.9724H57.6707V25.3066C57.6707 26.5628 58.7385 26.5628 59.9006 26.5628C61.942 26.5628 62.9156 26.4372 63.4809 24.3644C63.5752 24.3958 63.8892 24.4586 63.8892 24.4586L63.3239 27.2224H53.9961V26.7513H54.1845C54.9069 26.7513 55.5664 26.6256 55.5664 25.652V16.23C55.5664 15.2564 54.9069 15.1308 54.1845 15.1308H53.9961V14.6597H62.8214Z" fill="#555555"/>
</g>
<defs>
<clipPath id="clip0_4594_39064">
<rect width="141.943" height="36" fill="white" transform="translate(5 14)"/>
</clipPath>
</defs>
</svg>
