<svg width="202" height="64" viewBox="0 0 202 64" fill="none" xmlns="http://www.w3.org/2000/svg">
<mask id="mask0_4626_44477" style="mask-type:luminance" maskUnits="userSpaceOnUse" x="59" y="23" width="143" height="17">
<path d="M201.024 23.9995H59.4297V39.2698H201.024V23.9995Z" fill="white"/>
</mask>
<g mask="url(#mask0_4626_44477)">
<path d="M155.561 32.519H150.289V33.6619H155.561V32.519Z" fill="#555555"/>
<path d="M62.6366 25.5772L62.167 37.0563V37.2562C62.167 38.2305 62.4734 38.4304 64.1251 38.5396V39.0705C62.9196 38.9832 62.4601 38.9612 61.7941 38.9612C61.128 38.9612 60.6552 38.9894 59.4297 39.0705V38.5396C61.0947 38.4304 61.3178 38.2524 61.3645 37.0563L61.8607 26.1862V26.0643C61.8607 25.0463 61.5276 24.8152 59.9026 24.7372V24.1844C60.8217 24.2501 61.1747 24.2719 61.8373 24.2719C62.5905 24.2792 63.3435 24.2427 64.0918 24.1626L68.4642 35.3545L72.9232 24.1626C73.6745 24.2346 74.4291 24.271 75.1844 24.2719C75.7772 24.2719 76.1534 24.2501 77.0492 24.1844V24.7372C75.4441 24.8246 75.0911 25.0494 75.0911 26.0425V26.1862L75.3508 37.0438C75.3742 38.2399 75.5873 38.4179 77.2856 38.5271V39.058C76.3073 38.9501 75.3235 38.8907 74.3384 38.88C73.3524 38.8906 72.3675 38.95 71.388 39.058V38.5271C72.9931 38.4397 73.3462 38.1962 73.3462 37.1563V37.0438L73.133 25.5991L69.2435 35.4638L68.9604 36.1945L68.6274 37.0126L68.321 37.8526L68.0613 38.5834H67.7083L67.4485 37.8745L67.1155 37.0126L66.7825 36.1508L66.4995 35.3763L62.6366 25.5772Z" fill="#555555"/>
<path d="M83.4014 38.5179C81.2536 38.5179 80.3111 36.9564 80.2878 33.5215H87.3276C87.281 30.1145 85.7924 28.3003 82.9985 28.3003C80.2045 28.3003 78.4062 30.4456 78.4062 33.8493C78.4062 37.2531 80.1779 39.2486 83.2183 39.2486C85.5293 39.2486 87.0412 37.8964 87.3476 35.62H86.3985C86.1154 37.4936 85.0665 38.5179 83.4014 38.5179ZM80.3444 32.722C80.5808 30.1801 81.4766 28.8749 82.9852 28.8749C84.4937 28.8749 85.3162 30.124 85.4394 32.722H80.3444Z" fill="#555555"/>
<path d="M88.7359 29.1216V28.7219C89.7905 28.6593 90.8345 28.4887 91.8494 28.2129C91.9694 29.0311 92.016 29.387 92.0625 30.0491V30.2927C92.5821 29.0436 93.5977 28.3003 94.8232 28.3003C96.0487 28.3003 96.8745 29.0311 96.8745 30.0928C96.8745 30.7361 96.4749 31.1545 95.8756 31.1545C95.2762 31.1545 94.9065 30.8423 94.9065 30.4019C94.915 30.328 94.9307 30.2548 94.9532 30.1834L95.003 29.9616V29.7618C95.003 29.4495 94.7199 29.231 94.2938 29.231C93.0683 29.231 92.2957 30.6236 92.2957 32.8127V37.4312C92.2957 38.3681 92.5322 38.5586 93.9607 38.6241V39.0676C92.2119 38.8927 90.4481 38.8927 88.6992 39.0676V38.6304C90.1378 38.5648 90.3975 38.3869 90.3975 37.4375V30.2052C90.3742 29.2528 90.2577 29.1435 89.0322 29.1216H88.7359Z" fill="#555555"/>
<path d="M105.921 28.0942V31.7416H105.408C104.982 29.818 104.11 28.8905 102.671 28.8905C100.903 28.8905 99.8638 30.6799 99.8638 33.8432C99.8638 36.941 100.783 38.5274 102.601 38.5274C104.062 38.5274 104.934 37.5541 105.219 35.6076H106.184C105.878 37.9746 104.536 39.258 102.411 39.258C99.6774 39.258 97.8125 37.0877 97.8125 33.8589C97.8125 30.5644 99.7007 28.3066 102.475 28.3066C102.925 28.2866 103.374 28.3604 103.79 28.5224C104.207 28.6842 104.579 28.9305 104.882 29.2434L105.518 28.1162L105.921 28.0942Z" fill="#555555"/>
<path d="M112.874 38.5179C110.727 38.5179 109.784 36.9564 109.761 33.5214H116.787C116.741 30.1145 115.255 28.3003 112.458 28.3003C109.661 28.3003 107.859 30.4487 107.859 33.8524C107.859 37.2563 109.628 39.2517 112.671 39.2517C114.982 39.2517 116.491 37.8996 116.801 35.6231H115.855C115.572 37.4967 114.523 38.5209 112.858 38.5209M109.791 32.7252C110.027 30.1832 110.923 28.8779 112.432 28.8779C113.94 28.8779 114.743 30.127 114.886 32.7252H109.791Z" fill="#555555"/>
<path d="M127.713 36.7684V23.9995C126.544 24.2898 125.352 24.4923 124.149 24.6053V24.98C125.635 24.98 125.814 25.1362 125.814 26.2853V30.1544C124.942 28.8273 124.256 28.4306 122.984 28.4306C120.46 28.4306 118.691 30.6634 118.691 33.8487C118.691 37.0339 120.483 39.2697 123.054 39.2697C124.386 39.2697 125.318 38.6951 125.981 37.4553C126.022 38.0542 126.134 38.647 126.314 39.2229C127.207 38.9429 128.133 38.7656 129.071 38.6951L129.428 38.6483V38.2735C127.846 38.2298 127.706 38.1174 127.706 36.7684M123.27 38.6421C121.572 38.6421 120.676 36.9839 120.676 33.8205C120.676 30.6572 121.502 29.0427 123.2 29.0427C124.899 29.0427 125.841 30.7259 125.841 33.9766C125.841 37.0494 124.969 38.6421 123.27 38.6421Z" fill="#555555"/>
<path d="M135.367 38.5179C133.223 38.5179 132.28 36.9564 132.254 33.5214H139.283C139.237 30.1145 137.752 28.3003 134.954 28.3003C132.157 28.3003 130.355 30.4487 130.355 33.8524C130.355 37.2563 132.124 39.2517 135.167 39.2517C137.479 39.2517 138.987 37.8996 139.293 35.6231H138.351C138.068 37.4967 137.019 38.5209 135.354 38.5209M132.29 32.7252C132.523 30.1832 133.422 28.8779 134.931 28.8779C136.439 28.8779 137.242 30.127 137.385 32.7252H132.29Z" fill="#555555"/>
<path d="M141.285 39.2632V35.5689L141.801 35.5471C142.228 37.5581 143.217 38.5324 144.868 38.5324C146.26 38.5324 147.299 37.6705 147.299 36.5401C147.299 35.7906 146.85 35.291 145.694 34.7944L144.798 34.4197L143.713 33.9544C141.991 33.2019 141.448 32.5836 141.448 31.3002C141.448 29.5513 142.91 28.3585 144.988 28.3585C145.85 28.3415 146.695 28.5895 147.392 29.0642L147.792 28.1587H148.218V31.5937H147.676C147.462 29.8231 146.677 28.983 145.198 28.983C143.949 28.983 142.98 29.7794 142.98 30.8192C142.98 31.7029 143.336 31.9903 145.481 32.8772L146.48 33.2737C148.272 34.0044 148.908 34.7134 148.908 36.0185C148.908 37.8735 147.329 39.2007 145.111 39.2007C144.078 39.2219 143.071 38.8889 142.281 38.2638L141.715 39.2632H141.285Z" fill="#555555"/>
<path d="M166.681 27.8616C166.695 27.3223 166.574 26.7874 166.328 26.2994C166.082 25.8116 165.719 25.3842 165.266 25.0512C164.467 24.4984 163.544 24.2549 162.013 24.2549H155.809V24.8075C157.507 24.8982 157.743 25.073 157.743 26.269V36.9956C157.743 38.1916 157.554 38.3447 155.809 38.4789V39.0098H161.776C163.521 39.0098 164.467 38.8099 165.456 38.2353C166.056 37.8555 166.548 37.3441 166.889 36.7455C167.23 36.1469 167.41 35.4792 167.414 34.8003C167.427 34.2377 167.302 33.6799 167.048 33.1699C166.795 32.6599 166.42 32.2112 165.952 31.8587C165.402 31.4827 164.761 31.2392 164.087 31.1498C165.786 30.5534 166.681 29.4261 166.681 27.8773M159.725 24.9419H161.723C163.704 24.9419 164.577 25.8474 164.577 27.9053C164.577 28.9234 164.317 29.654 163.797 30.2286C163.278 30.8033 162.642 30.9563 161.323 30.9563H159.718L159.725 24.9419ZM161.976 31.6433C163.225 31.6433 163.934 31.8431 164.477 32.3521C165.02 32.8612 165.306 33.8104 165.306 34.8721C165.306 37.0831 164.124 38.3228 162.026 38.3228H161.177C159.928 38.3228 159.715 38.1448 159.715 37.1736V31.6433H161.976Z" fill="#555555"/>
<path d="M174.374 38.5179C172.227 38.5179 171.284 36.9564 171.261 33.5214H178.291C178.244 30.1145 176.756 28.3003 173.962 28.3003C171.168 28.3003 169.359 30.4487 169.359 33.8524C169.359 37.2563 171.131 39.2517 174.171 39.2517C176.482 39.2517 177.994 37.8996 178.301 35.6231H177.372C177.089 37.4967 176.039 38.5209 174.374 38.5209M171.307 32.7252C171.544 30.1832 172.44 28.8779 173.952 28.8779C175.463 28.8779 176.263 30.127 176.402 32.7252H171.307Z" fill="#555555"/>
<path d="M179.557 29.1986V28.8207C180.622 28.7091 181.671 28.487 182.684 28.1587C182.816 28.7931 182.895 29.4363 182.92 30.0823C183.766 28.8894 184.735 28.3585 186.104 28.3585C187.472 28.3585 188.744 29.0424 189.217 30.1261C189.471 30.7599 189.587 31.4354 189.557 32.112V37.4208C189.557 38.3575 189.794 38.548 191.222 38.6136V39.057C190.368 38.9683 189.51 38.9246 188.651 38.9258C187.792 38.9235 186.934 38.9674 186.08 39.057V38.6199C187.353 38.5762 187.659 38.3545 187.659 37.4707V32.0527C187.659 30.126 187.046 29.3546 185.538 29.3546C183.933 29.3546 183.083 30.2915 183.083 32.1183V37.4707C183.083 38.3545 183.39 38.5762 184.619 38.6199V39.0633C183.773 38.9743 182.922 38.9304 182.071 38.9321C181.22 38.9308 180.369 38.9747 179.523 39.0633V38.6199C180.962 38.5542 181.189 38.3763 181.189 37.427V30.2446C181.165 29.3391 181.022 29.2048 179.856 29.2048C179.787 29.2048 179.667 29.1829 179.55 29.1829" fill="#555555"/>
<path d="M192.133 39.0069L198.527 29.1422H195.626C194.091 29.1422 193.715 29.4544 192.865 31.4405H192.393L192.935 28.5645H201.05L194.634 38.4323H197.394C198.996 38.4323 199.659 37.8328 200.364 35.8217H200.861L200.248 39.0069H192.133Z" fill="#555555"/>
</g>
<path d="M43.0086 42.3009L27.3981 30.0885L24.637 10.4425C28.2476 10.5487 31.6458 11.5044 34.8316 13.3097C38.1236 15.2212 40.8847 17.9823 42.7961 21.2744C44.7077 24.5663 45.6635 28.2832 45.6635 32.1062C45.5573 35.6106 44.7077 39.115 43.0086 42.3009ZM34.7254 50.7964C31.4334 52.708 27.7167 53.6637 23.8936 53.6637C20.0707 53.6637 16.3539 52.708 13.0618 50.7964C9.98229 48.9911 7.32741 46.4424 5.52211 43.469L23.8936 36.0354L42.2652 43.469C40.4599 46.4424 37.9113 48.9911 34.7254 50.7964ZM2.23009 32C2.23009 28.1771 3.18579 24.4602 5.09731 21.1682C7.00884 17.8761 9.76983 15.115 13.0618 13.2035C16.1415 11.3982 19.6459 10.4425 23.2565 10.3363L20.4955 29.9824L4.88498 42.1947C3.18579 39.115 2.23009 35.6106 2.23009 32ZM44.8139 20C42.69 16.3894 39.6104 13.3097 35.9998 11.1858C32.3892 9.06195 28.1415 8 23.9998 8C19.7521 8 15.6105 9.06195 11.9999 11.1858C8.38933 13.3097 5.30977 16.3894 3.18579 20C1.06193 23.6106 0 27.8584 0 32C0 36.2477 1.06193 40.3894 3.18579 44C5.30977 47.6106 8.38933 50.6903 11.9999 52.8142C15.6105 54.9381 19.8584 56 23.9998 56C28.2476 56 32.3892 54.9381 35.9998 52.8142C39.6104 50.6903 42.69 47.6106 44.8139 44C46.9378 40.3894 47.9997 36.1416 47.9997 32C47.9997 27.8584 46.9378 23.6106 44.8139 20Z" fill="#555555"/>
</svg>
