<svg width="57" height="64" viewBox="0 0 57 64" fill="none" xmlns="http://www.w3.org/2000/svg">
<g clip-path="url(#clip0_4594_38969)">
<path d="M28.479 4C12.932 4 0.328125 16.5059 0.328125 31.9308C0.328125 47.3564 12.932 59.8623 28.479 59.8623C44.026 59.8623 56.6299 47.3564 56.6299 31.9308C56.6299 16.5067 44.026 4 28.479 4ZM54.799 31.9308C54.799 46.3531 43.0157 58.0454 28.479 58.0454C13.9424 58.0454 2.15901 46.3531 2.15901 31.9308C2.15901 17.5092 13.9431 5.81611 28.479 5.81611C43.0149 5.81611 54.799 17.5092 54.799 31.9308Z" fill="#555555"/>
<path d="M42.1329 20.0812C42.5148 20.4887 43.0662 21.1459 43.3758 21.5449L49.0761 17.9547C48.7914 17.5853 48.3372 17.0237 47.9989 16.6278L44.3884 18.9962L44.1419 19.2062L44.3254 18.9402L45.9199 15.7839L44.7921 14.6655L41.6094 16.2467L41.3419 16.4287L41.555 16.1845L43.9428 12.6044C43.5228 12.2497 43.1191 11.9246 42.605 11.531L38.986 17.1816C39.4449 17.5316 40.0492 18.0449 40.4342 18.3949L43.8409 16.641L44.0586 16.4816L43.8984 16.6986L42.1329 20.0812ZM29.1976 12.9194L30.7555 9.45827L30.8543 9.15104L30.8263 9.47071L30.9896 14.0969C31.5364 14.1483 32.1011 14.2237 32.6572 14.3155L32.4036 7.46405C31.6259 7.37849 30.8512 7.31782 30.0765 7.28516L28.542 11.0636L28.4875 11.3444L28.4331 11.0644L26.9009 7.28516C26.1254 7.31782 25.3508 7.37849 24.573 7.46405L24.3202 14.3163C24.8763 14.2229 25.4402 14.1498 25.987 14.0969L26.1503 9.47071L26.1223 9.15104L26.2219 9.45749L27.779 12.9194H29.1976ZM16.6 18.3802C17.5006 17.439 18.0101 16.3517 17.1102 15.3142C16.6202 14.751 15.7973 14.6274 15.1152 14.905L15.0475 14.9315L15.0693 14.8724C15.1704 14.6048 15.235 13.7508 14.5015 13.1613C14.1438 12.8735 13.6958 12.7669 13.2415 12.8128C12.3961 12.8984 11.7459 13.4716 9.97487 15.4308C9.43976 16.0219 8.66198 16.9553 8.19531 17.5588L13.0595 22.1376C14.6719 20.3674 15.3291 19.7086 16.6 18.3802ZM10.2533 17.2602C11.2318 16.0709 12.2732 14.9922 12.7453 14.5652C12.8946 14.4306 13.0564 14.296 13.2532 14.2432C13.5729 14.156 13.9026 14.3816 13.9765 14.7067C14.0512 15.0334 13.8443 15.3437 13.6141 15.5996C13.0961 16.1798 11.196 18.1515 11.196 18.1515L10.2525 17.2602H10.2533ZM12.1581 19.0537C12.1581 19.0537 14.0084 17.1124 14.6128 16.4917C14.8523 16.2452 15.0063 16.095 15.172 16.0149C15.3851 15.9115 15.6184 15.8905 15.8276 16.0282C16.0322 16.165 16.1271 16.3992 16.0758 16.6325C16.0143 16.9102 15.7856 17.1746 15.5974 17.3768L13.1443 19.9816L12.1581 19.0537Z" fill="#555555"/>
<path d="M45.1775 31.9307H28.4833V15.3672C37.7093 15.3672 45.1775 22.7771 45.1775 31.9307ZM28.4833 31.9307V48.4943C19.2573 48.4943 11.7891 41.0844 11.7891 31.9307H28.4833Z" fill="white"/>
<path d="M28.4833 15.3672V31.9307H11.7891C11.7891 22.7771 19.2573 15.3672 28.4833 15.3672ZM45.1775 31.9307C45.1775 41.0852 37.7093 48.4943 28.4833 48.4943V31.9307H45.1775Z" fill="#555555"/>
</g>
<defs>
<clipPath id="clip0_4594_38969">
<rect width="56.7778" height="56" fill="white" transform="translate(0 4)"/>
</clipPath>
</defs>
</svg>
