<svg width="85" height="64" viewBox="0 0 85 64" fill="none" xmlns="http://www.w3.org/2000/svg">
<g clip-path="url(#clip0_4594_38916)">
<path fill-rule="evenodd" clip-rule="evenodd" d="M23.5752 18.4745C22.4363 13.0643 22.0803 12.8507 19.5176 12.7084V11.7829H30.9786V12.7084C27.8464 12.9931 27.7752 12.9931 28.9142 19.3287L32.6871 39.3321L37.1718 17.8338C38.0973 13.4202 37.7413 12.9931 34.8227 12.7796L33.8973 12.7084V11.7829H42.0837V12.7084C39.5922 12.9219 39.5922 13.5626 38.5956 18.2609L31.2634 52.9999H30.5515L24.2871 21.8914L17.6668 52.9999H16.9549L9.48032 16.5524C8.83965 13.3491 8.69727 12.8507 5.99219 12.7084V11.7829H17.1685V12.7084C14.321 12.9931 14.2498 13.2779 15.3888 19.3287L19.2329 39.1897L23.5752 18.4745ZM53.4024 52.7863C49.3447 52.7863 46.9244 49.0135 45.999 49.0135C45.0024 49.0135 43.8634 51.1491 43.5074 52.0745H42.6532V38.6914H43.5074C45.999 46.0236 49.9854 51.7897 53.26 51.7897C55.182 51.7897 56.3922 50.0101 56.3922 47.3762C56.3922 37.6948 42.8668 31.4304 42.8668 19.5423C42.8668 14.7016 46.2837 10.9287 49.9854 10.9287C53.3312 10.9287 55.182 13.6338 56.2498 13.6338C56.8193 13.6338 57.2464 13.2067 57.9583 11.4982H58.599V23.4575H57.7447C56.1786 17.6914 52.9752 11.8541 49.843 11.8541C47.921 11.8541 46.4973 13.6338 46.4973 16.2677C46.4973 25.5931 60.0227 31.5016 60.0227 43.8169C60.0939 48.9423 56.9617 52.7863 53.4024 52.7863ZM67.4261 52.7863C63.2973 52.7863 61.66 50.2236 61.66 47.7321C61.66 45.2406 63.1549 42.6779 65.4329 42.6779C67.8532 42.6779 68.8498 45.0982 67.7108 46.8067C66.7854 48.3016 64.2939 48.444 64.2939 49.583C64.2939 51.3626 65.7888 51.7897 66.999 51.7897C70.5583 51.7897 70.3447 49.583 70.3447 42.0372V15.3423C70.3447 13.2067 69.8464 12.7084 67.5685 12.7084H66.7142V11.7829H78.6024V12.7084H77.6057C76.3956 12.7084 75.8973 13.2067 75.8973 15.4135V41.5389C75.8973 48.8711 70.6295 52.7863 67.4261 52.7863Z" fill="#555555"/>
</g>
<defs>
<clipPath id="clip0_4594_38916">
<rect width="72.6102" height="42" fill="white" transform="translate(6 11)"/>
</clipPath>
</defs>
</svg>
