<svg width="157" height="64" viewBox="0 0 157 64" fill="none" xmlns="http://www.w3.org/2000/svg">
<g clip-path="url(#clip0_4594_38930)">
<path d="M5.95683 26.5036C5.84173 26.0432 5.8705 25.5827 5.92806 25.3237C6.07194 24.6043 6.56115 23.8273 7.97122 23.8273C9.29496 23.8273 10.0432 24.6331 10.0432 25.8705C10.0432 26.2734 10.0432 27.2518 10.0432 27.2518H15.6259V25.6691C15.6547 20.777 11.2518 20 8.08633 20C4.11511 20 0.863309 21.3237 0.258993 24.9784C0.0863309 25.9856 0.057554 26.8777 0.316547 28C1.29496 32.5755 9.26619 33.8993 10.4173 36.8058C10.6475 37.3525 10.5612 38.0432 10.4748 38.4748C10.3022 39.223 9.78417 40 8.28777 40C6.8777 40 6.04317 39.1942 6.04317 37.9568V35.7986H0V37.5252C0 42.5324 3.94245 44.0288 8.14388 44.0288C12.2014 44.0288 15.5108 42.6475 16.0576 38.9065C16.3165 36.9784 16.1151 35.7122 16.0288 35.2518C15.1079 30.5036 6.58993 29.1223 5.95683 26.5036ZM78.8489 26.5324C78.7626 26.1007 78.7914 25.6115 78.8201 25.3813C78.9928 24.6619 79.4532 23.8849 80.8633 23.8849C82.1583 23.8849 82.9065 24.6906 82.9065 25.8993C82.9065 26.3022 82.9065 27.2806 82.9065 27.2806H88.4317V25.7266C88.4317 20.8921 84.1151 20.1439 80.9784 20.1439C77.036 20.1439 73.813 21.4388 73.2086 25.0647C73.0647 26.0432 73.0072 26.9352 73.2662 28.0576C74.2158 32.5755 82.1007 33.8993 83.2518 36.777C83.4532 37.3237 83.3957 38.0144 83.2806 38.4173C83.1079 39.1655 82.6187 39.9137 81.1223 39.9137C79.741 39.9137 78.8777 39.1079 78.8777 37.8993V35.741H72.9209V37.4388C72.9209 42.3885 76.8058 43.8849 80.9784 43.8849C84.9784 43.8849 88.2878 42.5036 88.8058 38.8201C89.0648 36.8921 88.8633 35.6547 88.777 35.1942C87.8849 30.5324 79.482 29.1511 78.8489 26.5324ZM129.727 38.7626L124.46 20.7194H116.144V42.9065H121.64L121.324 24.2878L126.993 42.9065H134.964V20.7194H129.439L129.727 38.7626ZM24 20.7194L19.8273 43.1367H25.8705L29.0072 22.3885L32.0576 43.1367H38.0719L33.9568 20.7194H24ZM57.8417 20.7194L55.0216 38.2446L52.2014 20.7194H43.0504L42.5612 43.1367H48.1727L48.3165 22.3885L52.1727 43.1367H57.8417L61.6978 22.3885L61.8417 43.1367H67.4532L66.964 20.7194H57.8417ZM109.928 20.7194H104.259V37.295C104.259 37.5827 104.259 37.8993 104.201 38.1583C104.086 38.705 103.626 39.7986 102.043 39.7986C100.489 39.7986 100.029 38.7338 99.9137 38.1583C99.8561 37.9281 99.8561 37.5827 99.8561 37.295V20.7194H94.1871V36.777C94.1871 37.1799 94.2158 38.0432 94.2446 38.2446C94.6475 42.4173 97.9281 43.7986 102.043 43.7986C106.158 43.7986 109.468 42.446 109.871 38.2446C109.899 38.0144 109.957 37.1799 109.928 36.777V20.7194ZM148.835 30.5324V33.8129H151.137V37.0647C151.137 37.3525 151.137 37.6691 151.079 37.9281C150.993 38.5324 150.417 39.5683 148.777 39.5683C147.165 39.5683 146.59 38.5324 146.504 37.9281C146.475 37.6691 146.446 37.3525 146.446 37.0647V26.8201C146.446 26.446 146.475 26.0719 146.561 25.7554C146.676 25.2086 147.165 24.1439 148.777 24.1439C150.504 24.1439 150.906 25.2662 151.022 25.7554C151.079 26.0719 151.079 26.6187 151.079 26.6187V27.8561H156.719V27.1079C156.719 27.1079 156.748 26.3309 156.691 25.6115C156.259 21.4388 152.777 20.1151 148.806 20.1151C144.835 20.1151 141.439 21.4676 140.95 25.6403C140.892 26.0144 140.835 26.705 140.835 27.1367V36.5468C140.835 36.9496 140.835 37.2662 140.921 38.0144C141.295 42.1007 144.835 43.5396 148.806 43.5396C152.806 43.5396 156.317 42.1007 156.691 38.0144C156.748 37.2662 156.777 36.9496 156.777 36.5468V30.5324H148.835Z" fill="#555555"/>
</g>
<defs>
<clipPath id="clip0_4594_38930">
<rect width="156.777" height="24" fill="white" transform="translate(0 20)"/>
</clipPath>
</defs>
</svg>
