<svg width="165" height="64" viewBox="0 0 165 64" fill="none" xmlns="http://www.w3.org/2000/svg">
<path d="M5.25199 44.1413L7.95599 36.7599L10.556 44.1413H5.25199ZM13.208 51.5748H15.704L9.25599 33.7969H6.75999L0 51.5748H2.496L4.47199 46.1167H11.232L13.208 51.5748ZM25.012 47.7801C25.012 49.2356 23.816 50.0153 21.84 50.0153C20.228 50.0153 19.136 49.5475 18.512 48.5078L16.12 48.9237C17.056 50.847 18.98 51.7307 21.736 51.7307C25.428 51.7307 27.404 49.6514 27.404 47.4682C27.404 44.6612 24.804 43.8814 21.84 43.3096C20.384 42.9977 18.72 42.4779 18.72 41.2303C18.72 40.3466 19.604 39.255 21.372 39.255C23.192 39.255 24.284 40.5026 24.44 40.9704L26.52 40.0867C25.532 38.2673 23.608 37.4876 21.58 37.4876C18.46 37.4876 16.38 39.0471 16.38 41.4902C16.38 44.2973 18.772 44.8171 21.06 45.3369C23.088 45.8048 25.012 46.2726 25.012 47.7801ZM32.396 33.7969L30.056 34.7845V38.0594H27.924V39.9308H30.056V48.6118C30.004 50.3792 30.004 51.6268 32.6559 51.6268C33.4879 51.6268 34.4759 51.4708 34.8399 51.4188V49.5475C34.3719 49.7034 33.7999 49.8594 33.3319 49.8594C32.3439 49.8594 32.344 49.1836 32.344 47.5722V39.9308H34.8399V38.0594H32.396V33.7969ZM36.8679 38.0594V51.5748H39.1559V45.3369C39.1559 44.1933 39.1039 42.7898 39.7279 41.8541C40.4559 40.6585 41.5479 40.1907 43.7839 40.1907V37.8515C42.8479 37.9035 40.4559 37.9555 39.1559 40.5026V38.1114H36.8679V38.0594ZM57.1999 33.7969V35.9801H67.2879L57.1999 49.2356V51.5228H70.1999V49.4435H59.9039L69.9399 36.0321V33.7969H57.1999ZM84.3959 38.0594V51.5748H86.6839V43.8814C86.6839 42.8938 86.6839 41.8541 87.6719 40.8665C88.3999 40.1387 89.2319 39.8268 90.2719 39.8268C91.5199 39.8268 92.7679 40.3986 93.1839 41.6982C93.3399 42.166 93.3399 42.5299 93.3399 43.9334V51.5748H95.5759V43.5695C95.5759 42.4259 95.5759 41.5942 95.3679 40.8145C94.6919 38.5792 92.6639 37.7475 90.9479 37.7475C90.1679 37.7475 87.9839 37.9555 86.7359 40.1387V38.0594H84.3959ZM119.6 48.2999C119.132 49.2356 118.248 50.0673 116.48 50.0673C114.972 50.0673 112.372 49.1316 112.372 44.6612C112.372 43.4656 112.58 39.203 116.324 39.203C118.196 39.203 119.08 40.2427 119.496 41.1264L121.628 40.2427C120.328 38.0594 117.936 37.5396 116.272 37.5396C111.956 37.5396 109.876 41.0224 109.876 44.8171C109.876 48.144 111.696 51.7827 116.428 51.7827C119.184 51.7827 120.744 50.4312 121.576 49.1316L119.6 48.2999ZM73.4759 43.4136H80.6519C80.4439 39.8788 78.4159 39.307 77.0639 39.307C75.0879 39.255 73.7359 40.7105 73.4759 43.4136ZM82.5239 48.9757C81.7439 50.2752 80.2359 51.7827 77.3239 51.7827C73.3199 51.7827 71.0319 49.0796 71.0319 44.5572C71.0319 39.4629 74.3599 37.5396 77.2199 37.5396C79.7159 37.5396 82.0559 38.8911 82.8879 42.322C83.1479 43.4656 83.1479 44.5052 83.1479 45.077H73.4759C73.4239 47.3122 74.3599 50.1713 77.5319 50.1193C78.8319 50.1193 79.7679 49.4955 80.3399 48.5598L82.5239 48.9757ZM99.2159 43.4136H106.392C106.184 39.8788 104.156 39.307 102.804 39.307C100.88 39.255 99.4758 40.7105 99.2159 43.4136ZM108.264 48.9757C107.484 50.2752 105.976 51.7827 103.064 51.7827C99.0598 51.7827 96.7719 49.0796 96.7719 44.5572C96.7719 39.4629 100.1 37.5396 102.96 37.5396C105.456 37.5396 107.796 38.8911 108.628 42.322C108.888 43.4656 108.888 44.5052 108.888 45.077H99.1638C99.1118 47.3122 100.048 50.1713 103.22 50.1193C104.52 50.1193 105.456 49.4955 106.028 48.5598L108.264 48.9757ZM134.004 51.5748H131.664C131.664 51.5748 131.456 50.6391 131.404 49.5995C130.728 50.3272 129.428 51.7827 126.88 51.7827C124.28 51.7827 122.304 50.2233 122.304 47.936C122.304 47.2083 122.512 46.4805 122.928 45.9087C123.708 44.7651 125.112 43.8294 129.168 43.5175L131.3 43.3616V42.9977C131.3 41.5942 131.3 39.255 128.284 39.255C126.412 39.255 125.736 40.1907 125.528 41.0224L123.448 40.1387C123.5 40.0867 123.5 39.9828 123.552 39.9308C124.332 38.4753 125.944 37.5396 128.18 37.5396C129.428 37.5396 131.04 37.8515 132.132 38.6832C133.64 39.8268 133.588 42.062 133.588 42.062L133.692 48.9757C133.64 48.9757 133.744 51.003 134.004 51.5748ZM130.936 47.8321C131.3 47.1043 131.3 46.7924 131.3 44.8171C130.416 44.973 129.22 45.129 127.764 45.4409C125.268 45.9607 124.852 46.9484 124.852 47.8841C124.852 48.9757 125.684 49.8594 127.4 49.8594C128.908 49.8594 130.26 49.2356 130.936 47.8321ZM55.5879 51.5748H53.2479C53.2479 51.5748 53.0399 50.6391 52.9879 49.5995C52.3119 50.3272 51.0119 51.7827 48.4639 51.7827C45.8639 51.7827 43.8879 50.2233 43.8879 47.936C43.8879 47.2083 44.0959 46.4805 44.5119 45.9087C45.2919 44.7651 46.6959 43.8294 50.7519 43.5175L52.8839 43.3616V42.9977C52.8839 41.5942 52.8839 39.255 49.8679 39.255C47.9959 39.255 47.3199 40.1907 47.1119 41.0224L45.0319 40.1387C45.0839 40.0867 45.0839 39.9828 45.1359 39.9308C45.9159 38.4753 47.5279 37.5396 49.7639 37.5396C51.0119 37.5396 52.6239 37.8515 53.6639 38.6832C55.1719 39.8268 55.1199 42.062 55.1199 42.062L55.2239 48.9757C55.2239 48.9757 55.2759 51.003 55.5879 51.5748ZM52.4679 47.8321C52.8319 47.1043 52.8319 46.7924 52.8319 44.8171C51.9479 44.973 50.7519 45.129 49.2959 45.4409C46.7999 45.9607 46.3319 46.9484 46.3319 47.8841C46.3319 48.9757 47.1639 49.8594 48.8799 49.8594C50.4919 49.8594 51.7919 49.2356 52.4679 47.8321Z" fill="#555555"/>
<path d="M148.429 40.1906C148.065 40.3986 147.701 40.6585 147.389 40.8664C143.335 38.6312 134.601 34.2647 133.822 33.8488C132.99 33.4329 131.586 32.8611 131.794 31.5096C132.054 29.6382 135.329 25.4797 136.733 23.7643C144.218 14.5634 147.597 11.7564 149.833 12.0163C152.224 12.3282 153.524 14.7713 153.732 26.3634C152.38 25.9475 150.924 25.5317 149.365 25.1158C149.261 23.4524 148.949 20.9052 148.793 20.0215C148.637 19.0339 148.481 18.67 148.065 18.618C147.597 18.566 146.506 19.6057 145.518 20.6453C145.05 21.1132 143.803 22.4127 142.347 23.8162C141.151 23.7643 140.372 23.9722 139.956 24.544C139.592 25.0118 139.54 25.6356 139.748 26.4673C138.968 27.2471 138.344 27.8708 137.928 28.2867C136.369 29.8462 134.705 31.1457 134.601 31.7695C134.549 32.2893 135.329 32.8092 136.473 33.4849C139.228 35.2003 146.038 38.8911 148.429 40.1906ZM159.034 28.6506C156.383 27.7149 149.781 25.2717 142.867 24.388C140.476 24.0761 139.54 24.9079 140.528 27.1951C141.515 29.4303 144.01 33.225 146.662 36.0321C149.313 38.8391 152.172 39.6188 153.056 35.2523C153.108 35.0964 153.108 34.9404 153.16 34.7845C153.368 33.6409 153.524 32.6012 153.628 31.6136C152.484 31.0937 151.132 30.5219 149.833 29.9501C149.885 30.9378 150.041 32.6532 150.093 34.0047C150.093 34.1607 150.093 34.3166 150.093 34.4726C150.197 36.6039 149.417 36.6039 148.221 35.7202C146.818 34.6805 142.451 28.9625 141.931 26.4153C141.931 26.2594 141.983 26.2594 142.087 26.2594C142.139 26.2594 142.139 26.3114 142.191 26.3114C143.179 26.6753 146.454 27.9748 149.781 29.3783C151.132 29.9501 152.432 30.5219 153.628 31.0418C154.823 31.5616 155.863 32.0814 156.643 32.4973C158.098 33.277 158.618 33.7968 158.046 34.4206C155.031 37.4356 144.634 41.7501 140.995 47.1043C140.995 47.1043 140.995 47.1043 140.943 47.1563C140.891 47.2082 140.839 47.2602 140.839 47.3642C140.839 47.3642 140.839 47.4162 140.787 47.4162C140.631 47.7281 140.372 48.2999 140.268 49.0276C140.112 50.1712 140.735 51.2628 142.399 51.7307C142.815 51.8347 143.283 51.9386 143.803 51.9906C143.907 51.9906 144.01 51.9906 144.114 51.9906C147.337 52.1465 155.707 50.3272 158.254 49.1836C160.905 48.0399 160.074 46.8444 159.346 46.2726C158.774 45.8047 155.863 44.1933 154.407 43.4135C154.043 43.6734 153.732 43.8294 153.368 44.0893C155.759 45.5448 156.747 46.2726 157.318 46.7404C157.526 46.8963 157.422 47.1043 157.11 47.1563C157.007 47.1563 156.955 47.1563 156.851 47.1563C154.563 47.3122 150.197 47.6241 148.169 47.7281C147.857 47.7281 147.545 47.78 147.337 47.78C147.857 47.3122 148.429 46.8963 148.689 46.6884C153.056 43.6215 160.334 39.3069 162.465 37.4356C163.972 36.084 168.287 31.8735 159.034 28.6506Z" fill="#555555"/>
</svg>
