<svg width="134" height="64" viewBox="0 0 134 64" fill="none" xmlns="http://www.w3.org/2000/svg">
<g clip-path="url(#clip0_4594_39016)">
<path d="M37.4877 32.2771C37.4877 41.1387 31.417 48.5831 23.2089 50.6791V44.1306C27.919 42.2569 31.2493 37.6559 31.2493 32.2771C31.2493 25.2326 25.5392 19.5225 18.4958 19.5225C13.117 19.5225 8.51597 22.8528 6.64122 27.5629H0.09375C2.18971 19.3549 9.63415 13.2852 18.4958 13.2852C28.9847 13.2852 37.4877 21.7882 37.4877 32.2771Z" fill="#555555"/>
<path d="M12.0443 31.4449C13.9769 31.4449 15.8304 32.2126 17.1969 33.5791C18.5635 34.9457 19.3312 36.7991 19.3312 38.7317V50.7135H12.9544V37.8216H0.0625V31.4438L12.0443 31.4449Z" fill="#555555"/>
<path fill-rule="evenodd" clip-rule="evenodd" d="M48.9141 32.0186C48.9141 28.2499 50.0848 25.1651 52.4262 22.7651C54.7676 20.3641 57.8807 19.1641 61.7676 19.1641C65.6535 19.1641 68.7545 20.3641 71.0716 22.7651C73.4131 25.1651 74.5838 28.2499 74.5838 32.0176C74.5838 35.761 73.4131 38.8327 71.0716 41.2338C68.7545 43.6338 65.6535 44.8348 61.7676 44.8348C57.8817 44.8348 54.7676 43.6338 52.4262 41.2338C50.0848 38.8327 48.9141 35.761 48.9141 32.0186ZM54.0333 32.0186C54.0333 34.5742 54.706 36.6388 56.0504 38.2136C57.3959 39.762 59.3009 40.5368 61.7676 40.5368C64.2585 40.5368 66.1767 39.7489 67.5221 38.1752C68.8423 36.6257 69.5019 34.5742 69.5019 32.0186C69.5019 29.4631 68.8302 27.3984 67.4848 25.8237C66.1646 24.2489 64.2585 23.462 61.7676 23.462C59.3262 23.462 57.4211 24.262 56.0504 25.862C54.706 27.4378 54.0333 29.4883 54.0333 32.0186ZM113.04 19.661L120.252 39.2873L127.423 19.661H133.212L123.251 44.5035H117.254L107.21 19.661H113.04ZM91.6423 38.9418L85.5373 19.661H78.0625V44.5045H82.8737V25.2923L89.0231 44.5045H94.2625L100.411 25.2923V44.5045H105.223V19.661H97.7484L91.6423 38.9418Z" fill="#555555"/>
</g>
<defs>
<clipPath id="clip0_4594_39016">
<rect width="133.333" height="40" fill="white" transform="translate(0 12)"/>
</clipPath>
</defs>
</svg>
