<svg width="171" height="64" viewBox="0 0 171 64" fill="none" xmlns="http://www.w3.org/2000/svg">
<g clip-path="url(#clip0_4594_38983)">
<path d="M55.5481 40.6806L49.1641 25.3926H53.3081L57.3401 35.5286L61.2041 25.3926H65.2361L58.9641 40.6806H55.5481Z" fill="#555555"/>
<path d="M80.3048 32.9525C80.3048 33.9605 80.1368 34.9125 79.8568 35.9205C79.5768 36.8725 79.0728 37.7685 78.5128 38.4965C77.8968 39.2805 77.1688 39.8965 76.2168 40.3445C75.3208 40.7925 74.2008 41.0165 72.9688 41.0165C71.7368 41.0165 70.6728 40.7925 69.7208 40.3445C68.8248 39.8965 68.0408 39.2805 67.4248 38.4965C66.8088 37.7125 66.3608 36.8725 66.0808 35.9205C65.7448 34.9685 65.6328 33.9605 65.6328 32.9525C65.6328 31.9445 65.8008 30.9925 66.0808 30.0405C66.3608 29.0885 66.8648 28.2485 67.4248 27.4645C68.0408 26.7365 68.7688 26.1205 69.7208 25.6725C70.6168 25.2245 71.7368 25.0005 72.9688 25.0005C74.2008 25.0005 75.2648 25.2245 76.1608 25.6725C77.0568 26.1205 77.8408 26.7365 78.4568 27.4645C79.0728 28.1925 79.5208 29.0885 79.8568 30.0405C80.1368 30.9925 80.3048 32.0005 80.3048 32.9525ZM76.3848 32.9525C76.3848 32.3365 76.3288 31.7205 76.1608 31.1605C75.9928 30.6005 75.7688 30.0965 75.4888 29.7045C75.2088 29.3125 74.8168 28.9765 74.4248 28.6965C74.0328 28.4165 73.5288 28.3045 72.9128 28.3045C72.3528 28.3045 71.8488 28.4165 71.4008 28.6965C70.9528 28.9205 70.6168 29.2565 70.3368 29.7045C70.0568 30.0965 69.8328 30.6005 69.6648 31.1605C69.4968 31.7205 69.4408 32.3365 69.4408 32.9525C69.4408 33.6245 69.4968 34.2405 69.6648 34.8005C69.8328 35.3605 70.0568 35.8645 70.3368 36.2565C70.6168 36.7045 71.0088 37.0405 71.4008 37.2645C71.8488 37.4885 72.3528 37.6565 72.9128 37.6565C73.4728 37.6565 73.9768 37.5445 74.4248 37.2645C74.8728 37.0405 75.2088 36.7045 75.4888 36.2565C75.7688 35.8085 75.9928 35.3605 76.1608 34.8005C76.3288 34.2405 76.3848 33.6245 76.3848 32.9525Z" fill="#555555"/>
<path d="M92.4563 40.6807L92.2883 39.5047C91.9523 39.8967 91.4483 40.2887 90.8883 40.5687C90.2723 40.8487 89.6003 41.0167 88.8163 41.0167C87.7523 41.0167 86.8563 40.7927 86.0163 40.3447C85.2323 39.8967 84.5603 39.2807 84.0003 38.5527C83.4403 37.8247 83.0483 36.9287 82.7683 35.9767C82.4883 35.0247 82.3203 33.9607 82.3203 32.9527C82.3203 31.9447 82.4883 30.9927 82.7683 30.0407C83.0483 29.0887 83.4963 28.2487 84.1123 27.4647C84.7283 26.7367 85.4563 26.1207 86.3523 25.6727C87.2483 25.2247 88.3123 25.0007 89.5443 25.0007C90.3283 25.0007 91.2243 25.1687 92.1203 25.4487V19.5127H96.0403V40.6807H92.4563ZM92.1203 28.7527C91.3363 28.4727 90.6643 28.3047 89.9923 28.3047C89.3203 28.3047 88.7603 28.4167 88.2563 28.6967C87.7523 28.9767 87.3603 29.3127 87.0803 29.7047C86.7443 30.1527 86.5203 30.6567 86.3523 31.1607C86.1843 31.7207 86.1283 32.2807 86.1283 32.8407C86.1283 33.4567 86.1843 34.0727 86.3523 34.6887C86.4643 35.2487 86.6883 35.8087 86.9683 36.2007C87.2483 36.6487 87.5843 36.9847 88.0323 37.2647C88.4803 37.5447 88.9843 37.6567 89.5443 37.6567C90.0483 37.6567 90.5523 37.5447 91.0563 37.2647C91.5603 36.9847 91.8963 36.7047 92.1203 36.3127V28.7527Z" fill="#555555"/>
<path d="M107.463 40.6806L107.295 39.5606C106.847 40.0086 106.343 40.4006 105.671 40.6806C104.999 40.9606 104.271 41.0726 103.487 41.0726C102.815 41.0726 102.199 40.9606 101.583 40.7366C100.967 40.5126 100.463 40.1766 99.9586 39.7846C99.5106 39.3926 99.1186 38.8886 98.8386 38.2726C98.5586 37.6566 98.3906 36.9846 98.3906 36.2006C98.3906 35.4166 98.5586 34.7446 98.8386 34.1846C99.1186 33.6246 99.5666 33.1206 100.071 32.7286C100.575 32.3366 101.191 32.0006 101.807 31.7206C102.479 31.4406 103.151 31.2726 103.879 31.1606C104.383 31.0486 104.943 30.9926 105.559 30.9366C106.175 30.8806 106.679 30.8246 107.071 30.7686V30.5446C107.071 29.7046 106.847 29.0886 106.399 28.7526C105.951 28.4166 105.335 28.1926 104.607 28.1926C104.159 28.1926 103.711 28.2486 103.319 28.3606C102.927 28.4726 102.535 28.5846 102.255 28.7526C101.919 28.9206 101.639 29.0886 101.415 29.2566C101.191 29.4246 100.967 29.5366 100.799 29.7046L99.5106 26.9606C99.6786 26.7926 99.9586 26.6246 100.295 26.4006C100.631 26.1766 101.079 26.0086 101.583 25.7846C102.087 25.5606 102.647 25.3926 103.263 25.2806C103.879 25.1686 104.551 25.0566 105.279 25.0566C106.119 25.0566 106.903 25.1686 107.575 25.3926C108.247 25.6166 108.863 25.9526 109.367 26.4566C109.871 26.9046 110.263 27.5206 110.543 28.2486C110.823 28.9766 110.991 29.8726 110.991 30.8806V40.6806H107.463ZM107.183 33.5126C106.735 33.5126 106.343 33.5686 105.895 33.6246C105.447 33.6806 104.999 33.7366 104.607 33.8486C103.767 34.0166 103.151 34.2966 102.815 34.7446C102.479 35.1366 102.311 35.5846 102.311 36.0886C102.311 36.5926 102.479 36.9846 102.871 37.3206C103.263 37.6566 103.767 37.7686 104.439 37.7686C104.943 37.7686 105.447 37.6566 105.951 37.4326C106.455 37.2086 106.847 36.9286 107.183 36.6486V33.5126Z" fill="#555555"/>
<path d="M123.253 22.9845C123.141 22.9285 122.861 22.8165 122.525 22.7045C122.133 22.5925 121.685 22.5365 121.069 22.5365C120.509 22.5365 120.061 22.7045 119.669 23.0405C119.277 23.3765 119.109 23.8805 119.109 24.6645V25.3925H122.413V28.5845H119.165V40.6805H115.245V28.5285H113.117V25.3365H115.133V24.4965C115.133 23.4885 115.245 22.6485 115.525 21.9765C115.805 21.3045 116.141 20.7445 116.589 20.2965C117.037 19.8485 117.597 19.5685 118.213 19.3445C118.829 19.1205 119.501 19.0645 120.229 19.0645C121.181 19.0645 121.965 19.1765 122.581 19.3445C123.197 19.5125 123.589 19.6245 123.701 19.7365L123.253 22.9845Z" fill="#555555"/>
<path d="M137.875 32.9525C137.875 33.9605 137.707 34.9125 137.427 35.9205C137.147 36.8725 136.643 37.7685 136.083 38.4965C135.467 39.2805 134.739 39.8965 133.787 40.3445C132.891 40.7925 131.771 41.0165 130.539 41.0165C129.307 41.0165 128.243 40.7925 127.291 40.3445C126.395 39.8965 125.611 39.2805 124.995 38.4965C124.379 37.7125 123.931 36.8725 123.651 35.9205C123.315 34.9685 123.203 33.9605 123.203 32.9525C123.203 31.9445 123.371 30.9925 123.651 30.0405C123.931 29.0885 124.435 28.2485 124.995 27.4645C125.611 26.7365 126.339 26.1205 127.291 25.6725C128.187 25.2245 129.307 25.0005 130.539 25.0005C131.771 25.0005 132.835 25.2245 133.731 25.6725C134.627 26.1205 135.411 26.7365 136.027 27.4645C136.643 28.1925 137.091 29.0885 137.427 30.0405C137.707 30.9925 137.875 32.0005 137.875 32.9525ZM134.011 32.9525C134.011 32.3365 133.955 31.7205 133.787 31.1605C133.619 30.6005 133.395 30.0965 133.115 29.7045C132.835 29.3125 132.443 28.9765 132.051 28.6965C131.603 28.4725 131.155 28.3045 130.539 28.3045C129.979 28.3045 129.475 28.4165 129.027 28.6965C128.579 28.9205 128.243 29.2565 127.963 29.7045C127.683 30.0965 127.459 30.6005 127.291 31.1605C127.123 31.7205 127.067 32.3365 127.067 32.9525C127.067 33.6245 127.123 34.2405 127.291 34.8005C127.459 35.3605 127.683 35.8645 127.963 36.2565C128.243 36.7045 128.635 37.0405 129.027 37.2645C129.475 37.4885 129.979 37.6565 130.539 37.6565C131.099 37.6565 131.603 37.5445 132.051 37.2645C132.499 37.0405 132.835 36.7045 133.115 36.2565C133.395 35.8085 133.619 35.3605 133.787 34.8005C133.899 34.2405 134.011 33.6245 134.011 32.9525Z" fill="#555555"/>
<path d="M150.079 40.6806V31.9446C150.079 30.7686 149.855 29.8726 149.351 29.2566C148.847 28.6406 148.175 28.3046 147.335 28.3046C146.719 28.3046 146.159 28.4726 145.655 28.8086C145.151 29.1446 144.703 29.4806 144.311 29.8726V40.6806H140.391V25.3926H143.975L144.143 26.6246C144.759 26.1206 145.431 25.7286 146.215 25.4486C146.999 25.1686 147.783 25.0566 148.567 25.0566C149.351 25.0566 150.135 25.1686 150.807 25.4486C151.479 25.6726 152.095 26.0646 152.543 26.6246C153.047 27.1286 153.383 27.8566 153.663 28.6966C153.943 29.5366 154.055 30.5446 154.055 31.7206V40.6806H150.079Z" fill="#555555"/>
<path d="M160.382 34.0165C160.494 35.3045 160.886 36.2565 161.614 36.8165C162.342 37.3765 163.294 37.6565 164.414 37.6565C164.974 37.6565 165.422 37.6005 165.926 37.4885C166.374 37.3765 166.822 37.2645 167.158 37.0965C167.494 36.9285 167.83 36.8165 168.11 36.6485C168.39 36.4805 168.558 36.3685 168.67 36.2565L169.734 39.4485C169.566 39.5605 169.342 39.6725 169.006 39.8965C168.67 40.0645 168.278 40.2325 167.774 40.4005C167.27 40.5685 166.71 40.6805 166.038 40.7925C165.366 40.9045 164.638 40.9605 163.854 40.9605C162.846 40.9605 161.894 40.7925 160.998 40.4565C160.102 40.1205 159.318 39.6725 158.646 39.0005C157.974 38.3285 157.414 37.4885 157.022 36.4805C156.63 35.4725 156.406 34.2965 156.406 32.8965C156.406 31.6085 156.574 30.4325 156.966 29.4805C157.358 28.4725 157.862 27.6325 158.478 26.9605C159.15 26.2885 159.878 25.7845 160.718 25.3925C161.558 25.0565 162.51 24.8325 163.462 24.8325C164.414 24.8325 165.31 25.0005 166.15 25.2805C166.99 25.6165 167.718 26.0645 168.278 26.7365C168.894 27.4085 169.342 28.2485 169.734 29.3125C170.07 30.3765 170.238 31.6085 170.238 33.1205V33.7925H160.382V34.0165ZM166.318 31.2165C166.262 30.7125 166.15 30.2085 165.982 29.8165C165.814 29.4245 165.59 29.0885 165.31 28.8645C165.03 28.6405 164.75 28.4165 164.47 28.3045C164.134 28.1925 163.854 28.1365 163.518 28.1365C162.846 28.1365 162.174 28.4165 161.558 28.9205C160.942 29.4245 160.55 30.2085 160.494 31.2165H166.318Z" fill="#555555"/>
<path d="M21 11.0005C24.1189 11.0005 27.0792 11.6824 29.7412 12.9038C29.3926 12.8301 28.9015 12.7925 28.4473 12.7925C24.0793 12.8486 19.2633 14.697 15.7354 17.6089C12.1515 20.6329 9.3516 25.6726 9.35156 30.8804C9.40756 38.7764 15.4 43.7046 21.168 43.7046C28.2797 43.7044 32.4795 37.8243 32.4795 32.5044C32.4795 27.1846 29.5676 23.3208 23.1279 21.6968V21.3608C23.0723 17.3522 26.1161 13.7868 29.8936 12.9751C37.0434 16.3256 42 23.5871 42 32.0005C42 43.5925 32.592 53.0005 21 53.0005C9.408 53.0005 0 43.5925 0 32.0005C4.8375e-08 20.4085 9.408 11.0005 21 11.0005Z" fill="#555555"/>
<path d="M55.5481 40.6806L49.1641 25.3926H53.3081L57.3401 35.5286L61.2041 25.3926H65.2361L58.9641 40.6806H55.5481Z" fill="#555555"/>
<path d="M80.3048 32.9525C80.3048 33.9605 80.1368 34.9125 79.8568 35.9205C79.5768 36.8725 79.0728 37.7685 78.5128 38.4965C77.8968 39.2805 77.1688 39.8965 76.2168 40.3445C75.3208 40.7925 74.2008 41.0165 72.9688 41.0165C71.7368 41.0165 70.6728 40.7925 69.7208 40.3445C68.8248 39.8965 68.0408 39.2805 67.4248 38.4965C66.8088 37.7125 66.3608 36.8725 66.0808 35.9205C65.7448 34.9685 65.6328 33.9605 65.6328 32.9525C65.6328 31.9445 65.8008 30.9925 66.0808 30.0405C66.3608 29.0885 66.8648 28.2485 67.4248 27.4645C68.0408 26.7365 68.7688 26.1205 69.7208 25.6725C70.6168 25.2245 71.7368 25.0005 72.9688 25.0005C74.2008 25.0005 75.2648 25.2245 76.1608 25.6725C77.0568 26.1205 77.8408 26.7365 78.4568 27.4645C79.0728 28.1925 79.5208 29.0885 79.8568 30.0405C80.1368 30.9925 80.3048 32.0005 80.3048 32.9525ZM76.3848 32.9525C76.3848 32.3365 76.3288 31.7205 76.1608 31.1605C75.9928 30.6005 75.7688 30.0965 75.4888 29.7045C75.2088 29.3125 74.8168 28.9765 74.4248 28.6965C74.0328 28.4165 73.5288 28.3045 72.9128 28.3045C72.3528 28.3045 71.8488 28.4165 71.4008 28.6965C70.9528 28.9205 70.6168 29.2565 70.3368 29.7045C70.0568 30.0965 69.8328 30.6005 69.6648 31.1605C69.4968 31.7205 69.4408 32.3365 69.4408 32.9525C69.4408 33.6245 69.4968 34.2405 69.6648 34.8005C69.8328 35.3605 70.0568 35.8645 70.3368 36.2565C70.6168 36.7045 71.0088 37.0405 71.4008 37.2645C71.8488 37.4885 72.3528 37.6565 72.9128 37.6565C73.4728 37.6565 73.9768 37.5445 74.4248 37.2645C74.8728 37.0405 75.2088 36.7045 75.4888 36.2565C75.7688 35.8085 75.9928 35.3605 76.1608 34.8005C76.3288 34.2405 76.3848 33.6245 76.3848 32.9525Z" fill="#555555"/>
<path d="M92.4563 40.6807L92.2883 39.5047C91.9523 39.8967 91.4483 40.2887 90.8883 40.5687C90.2723 40.8487 89.6003 41.0167 88.8163 41.0167C87.7523 41.0167 86.8563 40.7927 86.0163 40.3447C85.2323 39.8967 84.5603 39.2807 84.0003 38.5527C83.4403 37.8247 83.0483 36.9287 82.7683 35.9767C82.4883 35.0247 82.3203 33.9607 82.3203 32.9527C82.3203 31.9447 82.4883 30.9927 82.7683 30.0407C83.0483 29.0887 83.4963 28.2487 84.1123 27.4647C84.7283 26.7367 85.4563 26.1207 86.3523 25.6727C87.2483 25.2247 88.3123 25.0007 89.5443 25.0007C90.3283 25.0007 91.2243 25.1687 92.1203 25.4487V19.5127H96.0403V40.6807H92.4563ZM92.1203 28.7527C91.3363 28.4727 90.6643 28.3047 89.9923 28.3047C89.3203 28.3047 88.7603 28.4167 88.2563 28.6967C87.7523 28.9767 87.3603 29.3127 87.0803 29.7047C86.7443 30.1527 86.5203 30.6567 86.3523 31.1607C86.1843 31.7207 86.1283 32.2807 86.1283 32.8407C86.1283 33.4567 86.1843 34.0727 86.3523 34.6887C86.4643 35.2487 86.6883 35.8087 86.9683 36.2007C87.2483 36.6487 87.5843 36.9847 88.0323 37.2647C88.4803 37.5447 88.9843 37.6567 89.5443 37.6567C90.0483 37.6567 90.5523 37.5447 91.0563 37.2647C91.5603 36.9847 91.8963 36.7047 92.1203 36.3127V28.7527Z" fill="#555555"/>
<path d="M107.463 40.6806L107.295 39.5606C106.847 40.0086 106.343 40.4006 105.671 40.6806C104.999 40.9606 104.271 41.0726 103.487 41.0726C102.815 41.0726 102.199 40.9606 101.583 40.7366C100.967 40.5126 100.463 40.1766 99.9586 39.7846C99.5106 39.3926 99.1186 38.8886 98.8386 38.2726C98.5586 37.6566 98.3906 36.9846 98.3906 36.2006C98.3906 35.4166 98.5586 34.7446 98.8386 34.1846C99.1186 33.6246 99.5666 33.1206 100.071 32.7286C100.575 32.3366 101.191 32.0006 101.807 31.7206C102.479 31.4406 103.151 31.2726 103.879 31.1606C104.383 31.0486 104.943 30.9926 105.559 30.9366C106.175 30.8806 106.679 30.8246 107.071 30.7686V30.5446C107.071 29.7046 106.847 29.0886 106.399 28.7526C105.951 28.4166 105.335 28.1926 104.607 28.1926C104.159 28.1926 103.711 28.2486 103.319 28.3606C102.927 28.4726 102.535 28.5846 102.255 28.7526C101.919 28.9206 101.639 29.0886 101.415 29.2566C101.191 29.4246 100.967 29.5366 100.799 29.7046L99.5106 26.9606C99.6786 26.7926 99.9586 26.6246 100.295 26.4006C100.631 26.1766 101.079 26.0086 101.583 25.7846C102.087 25.5606 102.647 25.3926 103.263 25.2806C103.879 25.1686 104.551 25.0566 105.279 25.0566C106.119 25.0566 106.903 25.1686 107.575 25.3926C108.247 25.6166 108.863 25.9526 109.367 26.4566C109.871 26.9046 110.263 27.5206 110.543 28.2486C110.823 28.9766 110.991 29.8726 110.991 30.8806V40.6806H107.463ZM107.183 33.5126C106.735 33.5126 106.343 33.5686 105.895 33.6246C105.447 33.6806 104.999 33.7366 104.607 33.8486C103.767 34.0166 103.151 34.2966 102.815 34.7446C102.479 35.1366 102.311 35.5846 102.311 36.0886C102.311 36.5926 102.479 36.9846 102.871 37.3206C103.263 37.6566 103.767 37.7686 104.439 37.7686C104.943 37.7686 105.447 37.6566 105.951 37.4326C106.455 37.2086 106.847 36.9286 107.183 36.6486V33.5126Z" fill="#555555"/>
<path d="M123.253 22.9845C123.141 22.9285 122.861 22.8165 122.525 22.7045C122.133 22.5925 121.685 22.5365 121.069 22.5365C120.509 22.5365 120.061 22.7045 119.669 23.0405C119.277 23.3765 119.109 23.8805 119.109 24.6645V25.3925H122.413V28.5845H119.165V40.6805H115.245V28.5285H113.117V25.3365H115.133V24.4965C115.133 23.4885 115.245 22.6485 115.525 21.9765C115.805 21.3045 116.141 20.7445 116.589 20.2965C117.037 19.8485 117.597 19.5685 118.213 19.3445C118.829 19.1205 119.501 19.0645 120.229 19.0645C121.181 19.0645 121.965 19.1765 122.581 19.3445C123.197 19.5125 123.589 19.6245 123.701 19.7365L123.253 22.9845Z" fill="#555555"/>
<path d="M137.875 32.9525C137.875 33.9605 137.707 34.9125 137.427 35.9205C137.147 36.8725 136.643 37.7685 136.083 38.4965C135.467 39.2805 134.739 39.8965 133.787 40.3445C132.891 40.7925 131.771 41.0165 130.539 41.0165C129.307 41.0165 128.243 40.7925 127.291 40.3445C126.395 39.8965 125.611 39.2805 124.995 38.4965C124.379 37.7125 123.931 36.8725 123.651 35.9205C123.315 34.9685 123.203 33.9605 123.203 32.9525C123.203 31.9445 123.371 30.9925 123.651 30.0405C123.931 29.0885 124.435 28.2485 124.995 27.4645C125.611 26.7365 126.339 26.1205 127.291 25.6725C128.187 25.2245 129.307 25.0005 130.539 25.0005C131.771 25.0005 132.835 25.2245 133.731 25.6725C134.627 26.1205 135.411 26.7365 136.027 27.4645C136.643 28.1925 137.091 29.0885 137.427 30.0405C137.707 30.9925 137.875 32.0005 137.875 32.9525ZM134.011 32.9525C134.011 32.3365 133.955 31.7205 133.787 31.1605C133.619 30.6005 133.395 30.0965 133.115 29.7045C132.835 29.3125 132.443 28.9765 132.051 28.6965C131.603 28.4725 131.155 28.3045 130.539 28.3045C129.979 28.3045 129.475 28.4165 129.027 28.6965C128.579 28.9205 128.243 29.2565 127.963 29.7045C127.683 30.0965 127.459 30.6005 127.291 31.1605C127.123 31.7205 127.067 32.3365 127.067 32.9525C127.067 33.6245 127.123 34.2405 127.291 34.8005C127.459 35.3605 127.683 35.8645 127.963 36.2565C128.243 36.7045 128.635 37.0405 129.027 37.2645C129.475 37.4885 129.979 37.6565 130.539 37.6565C131.099 37.6565 131.603 37.5445 132.051 37.2645C132.499 37.0405 132.835 36.7045 133.115 36.2565C133.395 35.8085 133.619 35.3605 133.787 34.8005C133.899 34.2405 134.011 33.6245 134.011 32.9525Z" fill="#555555"/>
<path d="M150.079 40.6806V31.9446C150.079 30.7686 149.855 29.8726 149.351 29.2566C148.847 28.6406 148.175 28.3046 147.335 28.3046C146.719 28.3046 146.159 28.4726 145.655 28.8086C145.151 29.1446 144.703 29.4806 144.311 29.8726V40.6806H140.391V25.3926H143.975L144.143 26.6246C144.759 26.1206 145.431 25.7286 146.215 25.4486C146.999 25.1686 147.783 25.0566 148.567 25.0566C149.351 25.0566 150.135 25.1686 150.807 25.4486C151.479 25.6726 152.095 26.0646 152.543 26.6246C153.047 27.1286 153.383 27.8566 153.663 28.6966C153.943 29.5366 154.055 30.5446 154.055 31.7206V40.6806H150.079Z" fill="#555555"/>
<path d="M160.382 34.0165C160.494 35.3045 160.886 36.2565 161.614 36.8165C162.342 37.3765 163.294 37.6565 164.414 37.6565C164.974 37.6565 165.422 37.6005 165.926 37.4885C166.374 37.3765 166.822 37.2645 167.158 37.0965C167.494 36.9285 167.83 36.8165 168.11 36.6485C168.39 36.4805 168.558 36.3685 168.67 36.2565L169.734 39.4485C169.566 39.5605 169.342 39.6725 169.006 39.8965C168.67 40.0645 168.278 40.2325 167.774 40.4005C167.27 40.5685 166.71 40.6805 166.038 40.7925C165.366 40.9045 164.638 40.9605 163.854 40.9605C162.846 40.9605 161.894 40.7925 160.998 40.4565C160.102 40.1205 159.318 39.6725 158.646 39.0005C157.974 38.3285 157.414 37.4885 157.022 36.4805C156.63 35.4725 156.406 34.2965 156.406 32.8965C156.406 31.6085 156.574 30.4325 156.966 29.4805C157.358 28.4725 157.862 27.6325 158.478 26.9605C159.15 26.2885 159.878 25.7845 160.718 25.3925C161.558 25.0565 162.51 24.8325 163.462 24.8325C164.414 24.8325 165.31 25.0005 166.15 25.2805C166.99 25.6165 167.718 26.0645 168.278 26.7365C168.894 27.4085 169.342 28.2485 169.734 29.3125C170.07 30.3765 170.238 31.6085 170.238 33.1205V33.7925H160.382V34.0165ZM166.318 31.2165C166.262 30.7125 166.15 30.2085 165.982 29.8165C165.814 29.4245 165.59 29.0885 165.31 28.8645C165.03 28.6405 164.75 28.4165 164.47 28.3045C164.134 28.1925 163.854 28.1365 163.518 28.1365C162.846 28.1365 162.174 28.4165 161.558 28.9205C160.942 29.4245 160.55 30.2085 160.494 31.2165H166.318Z" fill="#555555"/>
</g>
<defs>
<clipPath id="clip0_4594_38983">
<rect width="170.296" height="42" fill="white" transform="translate(0 11)"/>
</clipPath>
</defs>
</svg>
