<svg width="139" height="64" viewBox="0 0 139 64" fill="none" xmlns="http://www.w3.org/2000/svg">
<g clip-path="url(#clip0_4594_39204)">
<path d="M49.4531 36.9459C50.0435 36.9216 51.0112 36.8749 51.5287 36.8749C54.43 36.8749 55.4201 38.3844 55.4201 40.0359C55.4201 41.8761 54.288 42.7728 52.0237 42.7728H49.4512V36.9459H49.4531ZM47.4952 48.9286C47.4952 50.4156 47.1179 50.864 45.1843 50.864H44.6406V51.3124H53.2754C57.0735 51.3124 58.37 48.6932 58.37 46.8306C58.37 44.968 57.0735 43.5519 54.8559 42.8905V42.8438C56.4364 42.5599 57.5443 41.31 57.5443 39.9668C57.5443 38.8347 57.0735 38.0313 56.1058 37.3476C55.2557 36.733 53.4398 36.4266 51.3643 36.4266C50.9159 36.4266 49.1224 36.449 47.824 36.4976C47.1403 36.5218 45.5131 36.6153 44.8517 36.6377V37.086H45.6775C47.329 37.086 47.4952 37.7941 47.4952 39.1373V48.9267V48.9286ZM49.4531 43.2193H52.0013C54.7607 43.2193 56.1543 45.0838 56.1543 46.8997C56.1543 48.7156 55.2576 50.6734 52.1433 50.6734C50.1611 50.6734 49.4531 50.0364 49.4531 48.2448V43.2193ZM82.2643 37.0879V36.6395H76.5308V37.0879C77.8516 37.1589 78.3 37.512 78.3 38.7861V48.8351C78.3 50.3689 78.0085 50.7669 76.6578 50.8565C74.8587 50.7613 74.0946 50.0569 72.8037 48.766L70.9411 46.9016C69.8333 45.7918 69.1252 45.1305 68.2528 44.4486C70.1864 43.8825 71.3895 42.3955 71.3895 40.6263C71.3895 38.22 69.4316 36.4266 65.0675 36.4266C63.5337 36.4266 63.0611 36.449 62.0952 36.4976C61.1275 36.5443 59.689 36.6377 59.1229 36.6377V37.086H59.6423C61.0098 37.086 61.4114 37.5101 61.4114 38.9729V48.9043C61.4114 50.4848 60.9164 50.8621 59.5246 50.8621H59.1229V51.3105H65.7998V50.8621H65.2562C63.9354 50.8621 63.3693 50.5072 63.3693 49.093V45.1062C63.7467 45.1305 64.0531 45.1548 64.5724 45.1548C65.2095 45.1548 65.5869 45.1305 66.1772 45.1062C66.7433 45.4836 67.5709 46.1674 68.6077 47.2061L70.164 48.7641C72.204 50.8042 73.0727 51.4506 76.9156 51.3105H82.2643V50.8621C80.6371 50.8621 80.2597 50.3895 80.2597 48.9977V38.9953C80.2597 37.4148 80.7791 37.0842 82.2643 37.0842V37.0879ZM64.834 44.7083C64.2903 44.7083 63.9372 44.7326 63.3712 44.6616V36.9235C63.7953 36.8768 64.1016 36.8768 64.55 36.8768C68.1855 36.8768 69.1738 38.5769 69.1738 40.7701C69.1738 43.6004 67.4532 44.7102 64.8321 44.7102L64.834 44.7083ZM83.8691 47.7273C84.366 49.8272 86.0156 51.0527 87.8558 51.0527C89.4363 51.0527 91.1102 50.1335 91.1102 48.2691C91.1102 44.8708 83.5384 43.834 83.5384 39.7053C83.5384 37.7455 85.3319 36.2846 87.7381 36.2846C89.7184 36.2846 90.12 36.8749 90.9458 36.8749C91.1345 36.8749 91.2279 36.8282 91.3699 36.6395H91.7473L92.1489 39.6361H91.7473C91.0859 37.9379 89.5764 36.8525 87.9492 36.8525C86.322 36.8525 85.3076 37.7474 85.3076 39.0701C85.3076 42.4197 92.8813 43.3165 92.8813 47.6563C92.8813 49.9691 90.8281 51.6916 88.0688 51.6916C86.7704 51.6916 85.1207 51.0546 84.7901 51.0546C84.5771 51.0546 84.4108 51.1723 84.3174 51.3142H83.9158L83.4207 47.7292H83.8691V47.7273ZM101.963 49.1415C101.963 50.4156 102.387 50.864 103.825 50.864H104.699V51.3124H97.2678V50.864H98.1421C99.5806 50.864 100.005 50.4156 100.005 49.1415V37.4877H95.9003C94.9568 37.4877 94.5327 38.0295 94.1778 40.1051H93.7537L94.1311 36.2827H94.5794C94.6037 36.4247 94.6971 36.52 94.8391 36.5667C94.9811 36.6153 95.1455 36.6377 95.3118 36.6377H106.659C106.99 36.6377 107.343 36.5667 107.392 36.2846H107.84L108.217 40.1069H107.791C107.438 38.0313 107.014 37.4896 106.071 37.4896H101.966V49.1434L101.963 49.1415ZM123.269 44.3533C123.269 47.703 121.429 51.0994 117.584 51.0994C113.74 51.0994 110.79 47.987 110.79 43.5743C110.79 40.7421 112.439 36.8749 116.592 36.8749C120.486 36.8749 123.267 39.9668 123.267 44.3533H123.269ZM125.487 43.5762C125.487 39.3297 121.665 36.2865 117.207 36.2865C112.183 36.2865 108.572 39.6118 108.572 44.3066C108.572 48.7193 112.466 51.6916 117.089 51.6916C121.713 51.6916 125.487 48.3419 125.487 43.5762ZM136.448 51.3124H125.904V50.864H126.683C127.768 50.864 128.168 50.509 128.168 49.3059V38.8552C128.168 37.6054 127.79 37.086 126.305 37.086H125.975V36.6377H132.934V37.086H132.059C130.527 37.086 130.126 37.2504 130.126 38.7132V49.588C130.126 50.2251 130.385 50.4623 131.069 50.4623H134.536C135.928 50.4623 136.352 49.9187 137.839 47.8674H138.264L136.448 51.3105V51.3124Z" fill="#555555"/>
<path d="M26.2442 29.8956C26.2274 28.5224 25.7603 25.7164 22.476 24.1228C25.8126 25.1821 27.4155 28.0012 27.5799 30.1029C31.0828 30.8016 34.1896 32.4494 39.2356 30.7082L39.2524 30.697C39.2524 30.697 32.6129 30.7568 29.8348 28.7485C31.2696 28.8027 32.9192 28.4776 33.461 27.6668C34.0383 26.8018 34.0981 25.9088 35.5179 25.8621C36.3156 25.836 39.0226 26.0377 39.3066 22.0641C38.4416 23.525 37.5019 24.1303 36.0858 23.7697C35.1816 23.5399 33.532 22.8468 32.3513 24.2573C31.378 25.4212 30.3318 26.0246 28.6616 25.8453C29.3323 24.9448 39.2805 12.0281 39.2805 12.0281C39.2805 12.0281 26.5356 22.2565 25.8313 22.8524C25.6968 20.9861 26.2554 20.3005 27.0045 19.4785C27.6173 18.8078 28.6822 17.898 27.834 15.9793C27.1484 14.4287 27.238 13.489 29.1062 12.002C27.6173 12.1103 25.3474 13.1117 25.6146 15.8448C25.7771 17.4963 24.6076 17.6383 24.1798 17.8737C23.0701 18.4865 22.9262 20.2725 22.8907 21.6624C22.7637 21.2122 21.1496 14.2699 20.5817 12.0244V30.7007H20.6246C22.788 29.8489 24.5871 29.7181 26.2442 29.8974V29.8956ZM39.2244 32.6194C30.8082 35.3787 27.9405 29.535 20.5798 32.6194C20.576 32.6194 20.5798 51.3182 20.5798 51.3182C28.5888 48.3421 28.8877 53.8347 39.2244 51.3182V32.6194ZM23.9612 42.1939C23.9183 42.2145 23.8958 42.2574 23.8828 42.2817C23.8043 42.4442 23.567 43.2868 23.5035 43.5222C23.44 43.7557 23.3727 43.7931 23.242 43.8323C23.1336 43.8659 23.1187 44.1256 23.2196 44.1574C23.5259 44.2527 23.4587 44.447 23.4363 44.4937C23.4363 44.5497 23.3335 45.0877 22.9524 45.4689C22.7544 45.0821 22.7058 44.6936 22.6703 44.6039C22.6348 44.5142 22.6199 44.3965 22.6292 44.3068C22.6385 44.2172 22.6087 43.8286 22.5993 43.7296C22.59 43.6306 22.6348 43.5427 22.6759 43.468C22.7525 43.3279 23.2756 42.3396 23.511 41.7362C23.5988 41.512 24.12 41.2897 24.2452 41.3439C24.3872 41.4037 24.5572 41.6092 25.3138 41.9174C25.3325 42.1248 25.3773 42.5395 25.4857 42.7114C25.3138 42.7824 25.0354 42.8104 25.0354 42.8104C25.0354 42.8104 24.4096 42.3041 24.29 42.1827C24.2713 42.1621 24.2078 42.1267 24.1742 42.1323C24.1069 42.1435 24.0266 42.1659 23.9594 42.1958L23.9612 42.1939ZM31.0548 48.2712C30.9277 48.1684 30.7241 48.3459 30.8287 48.5103C30.9558 48.7102 30.9464 48.826 30.9464 48.826C30.9464 48.826 30.541 49.3043 29.9731 49.3939C29.9189 49.3398 30.1169 48.5962 30.3243 48.1852C30.4943 47.8489 30.5672 47.7836 30.797 47.6752C31.0268 47.5668 31.9478 47.1017 32.2448 46.8588C32.5419 46.6159 32.6652 46.2535 32.6652 46.2535C32.6652 46.2535 32.9398 46.6141 33.3003 46.9709C33.22 47.1017 31.4471 48.2282 31.3649 48.2973C31.2846 48.3646 31.1501 48.3496 31.0529 48.2712H31.0548ZM35.1218 47.3202C35.0546 47.4417 34.2606 48.7905 34.057 49.2725C33.9486 49.5285 33.8272 49.4761 33.7599 49.4892C33.6927 49.5023 33.476 49.5434 33.4984 49.7825C33.5152 49.9525 33.4834 50.0235 33.4834 50.0235H32.1178C32.1757 49.8255 32.3102 49.5696 32.8408 49.2856C33.0108 49.1959 33.2107 49.0072 33.3639 48.7812C33.4442 48.6635 33.9131 47.8209 33.9953 47.6266C34.0607 47.4697 34.0402 47.2306 33.9598 47.0942C33.8776 46.9597 33.7525 46.7243 33.5712 46.5804C32.9659 46.0966 32.6054 45.7136 32.0972 44.7272C32.0132 44.5647 32.114 44.3816 31.236 44.6151C29.1343 45.1737 27.6061 44.404 27.537 44.3442C27.6042 43.9425 27.7667 43.6044 27.5295 43.4288C27.4006 43.6866 27.2717 43.8678 27.0494 44.1182C26.9765 44.2004 26.8868 44.1723 26.7243 44.1593C26.5618 44.1462 25.5062 44.0042 25.3306 43.9631C25.2578 43.9463 24.9588 44.0378 25.1345 44.3816C25.1643 44.4395 25.4035 44.8636 25.6557 45.2409C25.7902 45.4446 25.6482 45.5716 25.6837 45.7285C25.7173 45.8799 25.7921 45.9322 25.8462 45.9172C25.9004 45.9042 26.1246 45.6351 26.3021 45.8219C26.474 46.0032 26.5916 46.5431 26.6271 47.0923C26.4777 47.1054 26.2666 47.0381 26.076 46.8906C25.8985 46.7523 25.7398 46.4926 25.5492 46.3488C25.3605 46.2068 25.2727 46.2124 25.1363 46.091C25.0149 45.9807 24.8935 45.9004 24.8524 45.5623C24.8113 45.2241 24.3199 44.1238 24.2433 43.9986C24.135 43.823 24.3423 43.4699 24.432 43.3615C24.5123 43.2663 24.6786 43.255 24.8766 43.2102C25.1718 43.143 25.6706 42.9318 25.8388 42.8739C25.183 41.6316 25.9677 40.8731 26.0629 40.8114C26.2834 39.7372 26.6981 39.1469 26.8607 38.9171C27.2493 38.8349 27.6341 38.7919 27.8209 38.011C27.9255 37.572 27.7256 37.1049 27.5781 36.9555C27.6584 37.3609 27.636 37.8092 27.4155 38.1399C27.1035 38.607 26.5804 38.5434 26.4721 38.5434C26.3637 38.5434 26.2572 38.5229 26.175 38.6107C26.1022 38.6873 25.8631 38.904 25.7024 38.9937C25.5772 39.0647 25.5978 39.1282 25.5847 39.2422C25.5716 39.3505 25.5585 39.429 25.4371 39.4477C25.3082 39.4682 25.1158 39.3729 25.0149 39.3729C24.8206 39.3729 24.9383 39.2683 25.0485 39.1189C25.1531 38.9769 25.183 39.0591 25.2783 39.0367C25.3997 39.0105 25.4745 38.9713 25.5697 38.8274C25.7136 38.6088 25.3605 38.5715 25.2578 38.678C25.1457 38.7975 24.9943 39.003 24.8991 39.1114C24.8038 39.2197 24.7178 39.2627 24.6693 39.1319C24.6319 39.0348 24.5945 38.848 24.5889 38.7527C24.2919 38.6705 24.5553 38.3473 24.5553 38.3473L25.4278 37.2824C25.4278 37.2824 25.2316 37.1572 25.3736 36.9256C25.4483 36.8042 25.9751 36.1746 26.3469 35.9112C26.2722 35.7019 26.1769 35.4927 25.9621 35.2816C26.2927 35.3432 26.5636 35.3283 27.0793 35.8701C27.2119 36.0102 27.3576 35.9672 27.309 35.829C27.2549 35.6758 27.1671 35.5711 26.984 35.3488C28.6112 34.9173 29.3977 36.3502 29.5135 36.5127C29.209 36.4922 28.9661 36.5407 28.8185 36.5874C28.6915 36.6285 28.7008 36.6827 28.8914 36.7051C29.4313 36.7687 29.5135 36.7911 29.6686 36.8378C29.8928 37.0937 30.0142 37.7252 29.9992 37.7513C29.7732 37.7644 29.4855 37.7158 29.1698 37.7607C28.9288 37.7943 29.011 37.9027 29.1062 37.9139C29.4668 37.9587 29.8106 38.0577 30.0796 38.1754C30.1693 38.6724 30.1468 39.0105 30.1468 39.0105C30.1468 39.0105 29.5154 38.9432 29.3491 38.9563C29.1828 38.9694 29.265 39.102 29.4294 39.16C29.5826 39.2141 29.8984 39.3318 30.1057 39.5205C30.1039 39.6681 30.0422 40.0249 29.9787 40.2061C29.917 40.3818 29.9656 40.5368 30.2533 40.5947C31.0398 40.7517 31.7105 40.8544 32.9192 40.8301C35.0471 40.7853 35.7608 43.2382 34.8043 44.4283C34.3559 44.985 34.3353 45.3119 34.3708 45.51C34.4624 46.0069 34.7314 46.4534 35.191 46.7243C35.4338 46.8681 35.1872 47.1932 35.1181 47.3146L35.1218 47.3202ZM37.4851 38.2912C36.8462 38.8312 37.5243 39.8661 36.9265 40.6639C36.6015 41.2056 35.6954 41.7642 34.8155 41.2224C35.3292 41.0338 35.8523 40.6022 35.559 39.7746C35.1854 38.7153 34.6884 38.6966 34.1018 37.7943C33.6534 37.1031 33.4068 35.3096 35.0714 34.7267C33.7058 35.5786 34.5165 37.1348 35.0172 37.5813C34.1466 35.5562 35.5086 34.6184 36.3306 34.6184C36.7808 34.6184 37.3357 34.6632 37.6663 35.2592C38.1352 36.1073 37.4496 36.7294 37.0891 36.7575C37.6663 36.4866 37.6383 35.956 37.4403 35.6832C37.0797 35.1863 36.1232 35.4123 35.9513 36.0176C35.6898 36.9405 36.4109 37.4599 36.6687 38.0558C37.033 37.5421 37.9447 37.4786 38.3333 38.0297C37.9447 38.0484 37.657 38.1474 37.4851 38.2912Z" fill="#555555"/>
<path d="M23.4375 44.5048L23.4425 44.4947C23.4425 44.4863 23.4425 44.488 23.4375 44.5048Z" fill="#555555"/>
<path d="M57.9468 19.8147V20.1472C56.7754 20.164 56.3551 20.6367 56.3551 21.7557V26.4785C56.3551 28.6475 54.9726 30.9734 51.1764 30.9734C47.8361 30.9734 46.1211 29.066 46.1211 26.5645V21.4568C46.1211 20.3378 45.8054 20.1621 44.6172 20.1453V19.8128H49.1121V20.1453H48.9551C47.993 20.1453 47.5727 20.4087 47.5727 21.4232V26.2861C47.5727 28.6475 48.9551 30.0655 51.5613 30.0655C53.5378 30.0655 55.5499 29.2435 55.5499 26.2693V22.1929C55.5499 20.5134 55.2883 20.2163 53.8349 20.1453V19.8128H57.9449L57.9468 19.8147ZM60.2465 29.1725C60.2465 30.1346 60.4745 30.3625 61.4179 30.3625V30.695H57.9019V30.3625C58.6716 30.3625 59.0733 29.9422 59.0733 29.2603V25.5874C59.0733 24.941 59.0023 24.8177 58.5483 24.7299L57.9543 24.6085V24.3282L59.9663 23.594H60.2465V24.9578C61.4179 24.2236 62.3987 23.5753 63.2562 23.5753C64.4462 23.5753 65.1281 24.4497 65.1281 26.2002C65.1281 28.5261 65.0067 28.9819 64.988 29.6638C64.9712 30.1365 65.2496 30.3644 65.967 30.3644H66.3518V30.6969H62.5911V30.3644C63.0974 30.3476 63.3963 30.2243 63.5887 30.0318C63.9213 29.6993 63.9568 28.4233 63.9568 26.0955C63.9568 24.6963 63.2749 24.2591 62.5743 24.2591C62.0139 24.2591 61.1582 24.7486 60.2484 25.3782V29.1743L60.2465 29.1725ZM69.6977 29.3649C69.6977 29.9777 70.0303 30.3625 70.9569 30.3625V30.695H67.0729V30.3625C68.1397 30.3625 68.5245 30.0132 68.5245 29.0847V25.5687C68.5245 24.8868 68.4367 24.799 67.9827 24.7112L67.1607 24.5543V24.2741L69.4343 23.4875H69.6977V29.3649ZM68.9804 19.5512C69.4007 19.5512 69.7501 19.8483 69.7501 20.2163C69.7501 20.5844 69.4007 20.8814 68.9804 20.8814C68.56 20.8814 68.2275 20.5844 68.2275 20.2163C68.2275 19.8483 68.56 19.5512 68.9804 19.5512ZM74.9511 30.852L72.4141 25.0437C72.1526 24.431 71.9246 24.2217 71.6444 24.1694L71.1008 24.0816V23.7659H74.6709V24.0816C73.6042 24.1171 73.2716 24.2572 73.6901 25.0792L75.5452 29.434L77.3293 25.3931C77.6451 24.6757 77.4863 24.1694 76.2103 24.0816V23.7659H79.2536V24.0816C78.5904 24.2031 78.2037 24.5879 77.873 25.3595L75.4593 30.852H74.9511ZM80.7239 25.7966C81.1274 24.1694 82.0017 23.9079 82.579 23.9079C83.4178 23.9079 84.1184 24.6608 84.3108 25.7966H80.7239ZM85.7792 26.2525V25.8508C85.2019 25.2735 85.2542 23.5772 82.8928 23.5772C80.7594 23.5772 79.517 25.466 79.517 27.3211C79.517 29.3499 80.8453 30.908 82.5603 30.908C83.8381 30.908 84.9385 30.0337 85.6746 29.1071L85.4822 28.8978C84.8171 29.6844 84.1352 30.0356 83.2609 30.0356C81.8784 30.0356 80.6024 28.8119 80.6024 26.9923C80.6024 26.7644 80.6379 26.5196 80.6734 26.2581H85.7811L85.7792 26.2525ZM89.1532 29.4172C89.1532 30.1346 89.4147 30.3625 90.2909 30.3625H90.956V30.695H86.8104V30.3625C87.7034 30.3457 87.9837 29.9777 87.9837 29.051V25.0101L86.8104 24.5898V24.2927L88.8057 23.5922H89.155V25.4473H89.1905C90.0649 24.0125 90.2741 23.68 90.8514 23.68C91.0625 23.68 91.1148 23.6968 91.4454 23.8369C91.6211 23.906 91.9349 23.977 92.3553 24.0984L91.9349 25.1484C91.6734 25.1129 91.3408 25.0269 91.0083 24.8681C90.8159 24.7803 90.6066 24.6925 90.3955 24.6925C90.0798 24.6925 89.8874 24.9018 89.7136 25.1465C89.4857 25.4622 89.2933 25.7593 89.1532 26.0208V29.4153V29.4172ZM93.5621 28.9277C93.7714 29.9777 94.4364 30.5717 95.2248 30.5717C95.9235 30.5717 96.4672 30.0468 96.4672 29.4172C96.4672 29.0492 96.3794 28.8231 95.9067 28.3505C94.6644 27.1081 93.2838 26.9867 93.2838 25.5332C93.2838 24.3787 94.1936 23.5735 95.5237 23.5735C95.9964 23.5735 96.4858 23.6781 96.923 23.8537L96.9585 25.4454H96.6615C96.5382 24.5524 95.9609 23.9938 95.2622 23.9938C94.6849 23.9938 94.1954 24.3955 94.1954 24.9728C94.1954 26.5122 97.448 26.7737 97.448 28.9091C97.448 30.0468 96.5045 30.9024 95.279 30.9024C94.9465 30.9024 94.7017 30.8501 94.5093 30.7791C94.3169 30.7268 94.1768 30.6745 94.0366 30.6745C93.932 30.6745 93.8274 30.7455 93.7396 30.8837H93.478L93.2856 28.924H93.5659L93.5621 28.9277ZM101.141 29.3649C101.141 29.9777 101.474 30.3625 102.401 30.3625V30.695H98.5166V30.3625C99.5833 30.3625 99.9682 30.0132 99.9682 29.0847V25.5687C99.9682 24.8868 99.8804 24.799 99.4264 24.7112L98.6044 24.5543V24.2741L100.878 23.4875H101.141V29.3649ZM100.424 19.5512C100.844 19.5512 101.194 19.8483 101.194 20.2163C101.194 20.5844 100.844 20.8814 100.424 20.8814C100.004 20.8814 99.673 20.5844 99.673 20.2163C99.673 19.8483 100.006 19.5512 100.424 19.5512ZM107.385 23.7678L107.105 24.5375H104.883V28.6139C104.883 29.7161 105.67 30.0823 106.038 30.0823C106.406 30.0823 106.772 29.7852 107.105 29.208L107.385 29.4695C106.965 30.3793 106.283 30.9043 105.477 30.9043C104.444 30.9043 103.71 30.0468 103.71 28.8754V24.5375H102.905V24.2572C103.587 23.9247 104.183 23.1195 104.584 22.036H104.882V23.7678H107.383H107.385ZM114.305 25.7088C114.83 24.3787 114.497 24.1171 113.464 24.0816V23.7659H116.367V24.0816C115.65 24.1694 115.248 24.6589 114.916 25.4809L111.941 32.8977C111.416 34.1923 111.015 34.7696 110.402 34.7696C109.982 34.7696 109.685 34.508 109.685 34.1568C109.685 33.4394 110.699 33.615 111.136 33.1779C111.329 32.9855 111.59 32.5315 111.73 32.1803L112.255 30.8688L109.545 25.1129C109.212 24.3955 108.898 24.0984 108.162 24.0816V23.7659H111.678V24.0816C110.611 24.0984 110.488 24.4142 110.839 25.1484L112.816 29.4172L114.303 25.7088H114.305ZM121.608 26.6878C121.608 25.1839 122.674 23.9938 123.829 23.9938C125.299 23.9938 126.523 25.6901 126.523 27.6854C126.523 29.434 125.351 30.4839 124.318 30.4839C122.814 30.4839 121.608 28.8044 121.608 26.6878ZM120.296 27.2819C120.296 29.3294 121.957 30.9024 124.126 30.9024C126.295 30.9024 127.834 29.3107 127.834 27.2464C127.834 25.182 126.207 23.5735 124.074 23.5735C122.254 23.5735 120.296 24.8681 120.296 27.2819ZM132.906 24.5375H131.018V29.3313C131.018 30.1365 131.333 30.3625 132.312 30.3625H132.977V30.695H128.656V30.3625C129.671 30.3625 129.846 30.1346 129.846 29.1557V24.5375H128.552V24.2404C129.041 24.1358 129.461 23.9789 129.846 23.7678C129.846 22.3162 130.162 21.2139 131.193 20.1808C132.051 19.3233 132.873 18.9385 133.676 18.9385C134.655 18.9385 135.479 19.4989 135.479 19.7605C135.479 19.9006 135.146 20.5993 135.006 20.5993C134.761 20.5993 134.113 19.7418 132.959 19.7418C131.7 19.7418 131.018 20.7394 131.018 22.4357V23.7659H132.785L132.906 24.5356V24.5375Z" fill="#555555"/>
<path d="M14.8204 12.0225V14.0382H12.4665V12.0225H10.3012V14.0382H8.136V12.0225H5.98944V14.0382H3.80739V12.0225H0V30.6988C8.00149 33.4769 11.1307 27.7396 18.6446 30.6988V12.0225H14.8204ZM14.4244 18.2996C13.6659 19.8147 13.5949 21.3485 13.7387 22.1238C12.1339 21.7091 11.5922 22.1238 11.5922 22.1238C11.5922 22.1238 11.6277 20.4107 14.4244 18.2996ZM6.59474 16.4333C7.2318 16.168 7.20751 16.3156 7.17201 16.4968C7.13652 16.678 7.01509 16.9919 7.37004 16.9115C8.34524 16.693 9.20275 16.0858 9.28308 16.0279V17.2011C9.1411 17.2684 8.12666 17.7186 7.24487 17.7784C6.43221 17.8326 6.79464 16.9209 6.79464 16.9209C6.72738 16.9657 5.68493 17.4982 4.82742 17.4533C3.79057 17.3991 3.74574 16.8125 3.85409 16.6874C3.85409 16.777 3.9886 17.5168 6.59661 16.4351L6.59474 16.4333ZM3.31045 28.584C6.73859 29.5406 9.11868 27.0316 11.4651 26.7084C8.91317 26.6729 7.52324 27.7284 6.68441 27.8274C6.25099 27.5117 5.76526 26.7308 5.60273 25.8789C5.46822 25.1746 4.76391 25.0587 4.76391 25.0587L4.65555 24.5263C4.65555 24.5263 6.6676 24.8234 7.02816 24.8607C7.49708 25.6099 8.38074 25.7892 8.81416 25.7892C8.81416 25.7892 8.82537 24.5207 8.8235 24.446C8.92438 24.304 9.28308 24.1751 9.28308 24.1751L9.30176 25.7705C10.4021 25.7705 11.2503 25.0662 11.2316 24.3993C11.2111 23.6408 10.3704 22.9832 9.03087 23.0093C7.68764 23.0355 7.20938 23.695 7.06366 23.9285C5.46635 22.3368 6.19681 20.392 6.19681 20.392C6.19681 20.392 4.81622 21.3205 6.0623 23.6763C4.75457 23.3251 3.68035 24.0107 3.69903 24.5599C3.68969 25.0644 4.08762 25.4529 4.8816 25.481C2.0681 26.0396 1.43664 24.4348 2.78922 23.5679C3.21019 23.6402 3.56515 23.7062 3.85409 23.766C2.48284 22.3947 3.14791 20.7152 4.25202 19.9959C5.83999 19.7082 6.63397 19.5905 6.63397 19.5905C6.63397 19.5905 7.40554 18.4808 8.07809 18.0848C9.05142 17.9951 12.4441 17.5075 12.4441 17.5075C12.4441 17.5075 9.27374 20.4032 12.3133 23.4783C13.5631 23.4783 15.0502 23.4801 15.0502 23.4801C15.0502 23.4801 14.9867 23.9378 14.897 24.3881C14.6261 24.4142 14.4823 24.4254 14.3739 24.4329C14.3384 25.8397 13.4903 26.7607 13.4903 26.7607C13.4903 26.7607 15.0782 26.9587 16.1412 27.6088C9.32231 26.3104 8.76372 30.441 3.31418 28.5822L3.31045 28.584ZM25.8148 37.4262C25.8148 37.4262 25.7251 37.3814 25.8951 37.2394C25.9156 37.2226 25.9493 37.26 26.0464 37.2618C26.1791 37.2618 26.2482 37.217 26.3584 37.0843C26.5247 36.8826 26.1772 36.806 26.0651 36.9031C25.9418 37.0096 25.8521 37.118 25.7475 37.2151C25.7475 37.2151 25.57 37.3739 25.8148 37.4244V37.4262ZM18.6446 50.6923C12.6981 46.7915 8.1248 52.6763 0 48.5999V51.3182C10.3367 53.8346 10.6357 48.3421 18.6446 51.3182V50.6923Z" fill="#555555"/>
<path d="M8.35645 47.0642C3.19088 47.1016 0 43.9761 0 43.9761V46.429C7.40928 51.4862 12.2629 45.7639 18.6446 50.0645V49.4051C17.1127 48.2131 15.138 47.0156 8.35458 47.0642H8.35645Z" fill="#555555"/>
<path d="M13.1241 46.3431C13.8153 46.4833 14.4132 46.6346 14.9344 46.7915C16.2726 47.2326 17.5274 47.895 18.6465 48.7513V32.6194C16.6849 31.7973 15.0427 31.6124 13.5295 31.7264V40.3967L11.51 38.3715L9.49045 40.3967V32.5596C6.86937 33.2695 4.08949 33.9607 0 32.6194C0.0037364 32.7875 0.0037364 37.0246 0.0037364 40.7161C0.0037364 40.7161 2.13161 45.2428 7.87819 45.6706C10.0677 45.8331 11.7734 46.0685 13.1241 46.3431Z" fill="#555555"/>
</g>
<defs>
<clipPath id="clip0_4594_39204">
<rect width="138.262" height="40" fill="white" transform="translate(0 12)"/>
</clipPath>
</defs>
</svg>
