<svg width="134" height="64" viewBox="0 0 134 64" fill="none" xmlns="http://www.w3.org/2000/svg">
<g clip-path="url(#clip0_4636_44528)">
<path d="M73.0544 20.9076C74.1375 19.0319 76.3188 18.0431 78.4321 18.0243C80.3605 17.8998 82.5418 18.2206 83.8928 19.7452C83.206 20.6509 82.5493 21.5756 81.8625 22.4813C81.0964 21.6019 80.4662 20.364 79.2284 20.115C78.0094 19.7376 76.4773 20.3716 76.1602 21.6774C75.6469 23.7492 75.9564 25.9153 75.8809 28.0288H79.8397V30.3875H75.8772C75.8772 33.9426 75.8772 37.4974 75.8734 41.0525C75.8583 42.0601 76.0206 43.0564 76.2093 44.0451C77.115 44.464 78.0924 44.6791 79.0925 44.698C79.0887 44.9432 79.0849 45.4376 79.0811 45.6867C75.8432 45.4754 72.6013 45.4112 69.3672 45.6829C69.3672 45.4754 69.3747 45.0602 69.3747 44.8527C70.3974 44.6715 71.6654 44.196 71.707 42.9658C72.1032 38.7881 71.8353 34.5802 71.9145 30.3876C71.1258 30.3876 70.3371 30.3876 69.5483 30.3838C69.552 30.0291 69.5596 29.6705 69.5633 29.3158C70.3634 28.946 71.1446 28.5346 71.9144 28.1119C71.9144 25.6891 71.771 23.07 73.0541 20.9077L73.0544 20.9076Z" fill="#555555"/>
<path d="M131.421 18.0205C129.327 18.5036 127.206 18.911 125.055 19.0053C125.032 19.2016 124.991 19.594 124.972 19.7902C125.772 20.0318 127.078 19.9679 127.134 21.085C127.455 23.3494 127.229 25.6472 127.293 27.9266C124.209 27.3983 120.764 27.4322 118.141 29.3531C115.269 31.3646 114.284 35.116 114.571 38.4597C114.733 41.0523 116.031 43.713 118.383 44.9771C121.183 46.5169 124.764 46.1999 127.387 44.4261C127.406 44.9507 127.417 45.4752 127.421 45.9998C129.451 45.4828 131.527 45.1922 133.614 45.0714V44.1655C130.656 43.6618 131.474 42.293 131.267 39.9655C131.27 32.6519 131.157 25.3342 131.421 18.021L131.421 18.0205ZM123.748 29.8147C124.997 29.8015 126.267 30.2005 127.293 30.8968C127.296 34.8328 127.285 38.7689 127.3 42.705C125.104 43.7126 122.134 43.6409 120.413 41.7766C118.937 40.1991 118.688 37.8896 118.82 35.8289C118.967 33.9533 119.36 31.8098 120.998 30.6473C121.819 30.0843 122.777 29.8248 123.748 29.8145L123.748 29.8147Z" fill="#555555"/>
<path d="M6.93277 20.4247C9.41971 20.2737 11.9142 20.436 14.3748 20.7832C14.2276 22.5343 14.2427 24.2967 14.3786 26.0477C14.1408 26.0477 13.6653 26.0515 13.4276 26.0515C13.2389 24.9571 13.0426 23.6286 11.8765 23.1417C10.1481 22.4134 8.12521 22.3417 6.33266 22.8625C3.98914 23.5569 3.60415 27.0061 5.34769 28.512C7.52899 30.4216 10.2009 31.6708 12.435 33.5237C15.9333 36.3088 15.4767 42.7923 11.3255 44.7433C7.83101 46.3585 3.72875 45.951 0.120881 44.9358C0.143429 43.2009 0.0793352 41.4659 0 39.7331C0.260386 39.7293 0.784959 39.718 1.04912 39.7142C1.23404 40.8049 1.40386 42.1446 2.5096 42.7068C4.48709 43.8163 7.03818 43.9069 9.09129 42.9521C11.6538 41.5369 11.182 37.446 8.7856 36.0685C6.70618 34.4672 4.31736 33.2834 2.3964 31.4754C0.267923 29.4979 0.00382053 26.0335 1.37381 23.5616C2.49453 21.5915 4.75516 20.6067 6.9327 20.4255L6.93277 20.4247Z" fill="#555555"/>
<path d="M21.6923 24.1343C21.8886 24.1456 22.2848 24.1645 22.4811 24.1758C22.4773 25.4929 22.4773 26.8062 22.4773 28.1233H28.5155V30.3877H22.4773C22.4999 33.5578 22.4282 36.7316 22.5113 39.9054C22.5943 41.1131 22.6283 42.6189 23.7566 43.3586C25.1794 44.2039 26.8814 43.6756 28.3042 43.1209C28.742 44.1926 27.6287 44.7927 26.8551 45.2381C25.0398 46.1174 22.8246 46.2117 20.949 45.4796C19.3451 44.8795 18.5714 43.1248 18.4883 41.517C18.2959 37.811 18.4883 34.0977 18.5185 30.388H16.1598C16.156 30.1389 16.1522 29.8936 16.1484 29.6483C18.711 28.6822 20.4392 26.4745 21.6923 24.1347L21.6923 24.1343Z" fill="#555555"/>
<path d="M37.8505 27.5244C35.1297 27.4964 32.3857 28.8478 31.5116 31.5798C31.7493 31.7157 32.2324 31.9835 32.4739 32.1194C33.5193 30.274 35.9609 29.3268 37.8854 30.3911C39.395 31.078 39.5235 32.9232 39.4933 34.3687C37.1195 35.1311 34.6627 35.7312 32.421 36.8484C29.7341 38.2674 29.3869 42.2901 31.3116 44.4677C33.5797 46.5471 37.3648 46.2111 39.6065 44.2449C40.2895 45.5959 41.9047 46.113 43.3123 45.7168C44.5388 45.479 45.3501 44.4563 46.1539 43.592C46.0143 43.4335 45.7315 43.1126 45.5918 42.9504C45.0861 43.0787 44.5161 43.4787 44.0218 43.09C43.3802 42.6485 43.4593 41.7616 43.414 41.0786C43.4593 38.1501 43.6216 35.2142 43.4669 32.282C43.3914 30.7649 42.7122 29.2136 41.3687 28.4173C40.3191 27.8347 39.0873 27.5371 37.8505 27.5244ZM39.4515 36.6556C39.4666 38.6294 39.4517 40.603 39.4669 42.5767C38.2026 43.139 36.7006 43.6598 35.3684 43.0145C33.7381 42.1465 33.8061 39.5503 35.1534 38.4596C36.4478 37.569 37.9834 37.15 39.4515 36.6556Z" fill="#555555"/>
<path d="M89.8659 27.5984C87.8771 27.6211 85.824 28.1154 84.2691 29.4099C81.9556 31.2817 80.952 34.3763 81.0539 37.282C81.0426 39.769 81.8162 42.4221 83.7749 44.0752C86.0883 46.0904 89.4507 46.2903 92.3301 45.6903C95.3681 45.0223 97.6512 42.3617 98.2966 39.3804C98.991 36.2859 98.7003 32.6895 96.5719 30.1913C94.934 28.2742 92.3113 27.5493 89.8659 27.5984ZM89.8924 29.7106C90.9612 29.7314 92.0188 30.1703 92.7038 31.0213C93.9454 32.5422 94.2775 34.5876 94.3681 36.4971C94.3832 38.5765 94.119 40.8217 92.8095 42.5199C91.5226 44.1842 88.749 44.3691 87.2658 42.8709C86.1299 41.818 85.7071 40.252 85.4504 38.7801C85.1825 36.8253 85.2506 34.791 85.8657 32.9079C86.2959 31.6474 87.1337 30.3719 88.4621 29.9416C88.9185 29.7776 89.4067 29.7008 89.8925 29.7103L89.8924 29.7106Z" fill="#555555"/>
<path d="M47.5708 28.7987C49.6805 28.7647 51.8203 28.5459 53.7675 27.6741C53.8355 28.176 53.8883 28.6779 53.9298 29.1874C56.1677 27.7232 59.0584 27.1533 61.6209 28.059C63.455 28.6742 64.7382 30.4706 64.9004 32.3726C65.2778 35.9917 64.7306 39.6599 65.2136 43.2716C65.2665 44.4075 66.4892 44.6641 67.3761 44.849C67.3799 45.0604 67.3799 45.483 67.3837 45.6944C64.3873 45.4566 58.3869 45.6831 58.3869 45.6831L58.3755 44.8273C58.3755 44.8273 60.5399 44.2188 60.6775 43.5961C61.1719 40.9091 61.0549 38.1316 61.0285 35.4031C60.9304 33.7728 60.9719 31.7349 59.4133 30.7423C57.7414 29.78 55.6922 30.2253 53.9828 30.848C53.9941 34.3803 53.9828 37.9164 53.9828 41.4489C54.0318 42.3923 53.9639 43.4679 54.579 44.2527C55.0961 44.6112 55.7452 44.6754 56.3377 44.8415C56.3414 45.0528 56.3452 45.4792 56.3452 45.6944C53.3902 45.5019 50.4278 45.3773 47.4766 45.6906C47.4766 45.4792 47.4841 45.0603 47.4841 44.8528C48.3823 44.6452 49.5673 44.3622 49.737 43.2753C50.1484 40.6714 49.8314 38.0108 49.9295 35.3842C49.8918 33.8859 50.0578 32.3688 49.7936 30.8894C49.5861 29.878 48.352 29.9346 47.5746 29.7346C47.5746 29.5006 47.5708 29.0327 47.5708 28.7987Z" fill="#555555"/>
<path d="M100.312 28.7196C102.425 28.6894 104.538 28.4026 106.546 27.7271L106.603 29.2819C108.633 27.6478 111.694 27.2327 113.856 28.8516L111.601 32.2931C110.549 30.6704 108.413 30.2779 106.726 31.1043C106.726 31.1043 106.714 38.2483 106.737 41.8184C106.824 42.6146 106.699 43.6487 107.446 44.1694C108.167 44.5921 109.043 44.5694 109.847 44.6977C109.847 44.943 109.843 45.4412 109.843 45.6865C106.601 45.4676 103.352 45.4223 100.11 45.6789L100.109 44.6977C101.154 44.5195 102.242 44.1581 102.401 43.5354C102.85 41.9994 102.631 40.3728 102.676 38.7915C102.631 36.2743 102.767 33.7533 102.616 31.2401C102.605 30.0174 101.219 29.9079 100.321 29.7305C100.323 29.3839 100.315 29.028 100.314 28.7192L100.312 28.7196Z" fill="#555555"/>
</g>
<defs>
<clipPath id="clip0_4636_44528">
<rect width="133.622" height="28" fill="white" transform="translate(0 18)"/>
</clipPath>
</defs>
</svg>
