<svg width="65" height="64" viewBox="0 0 65 64" fill="none" xmlns="http://www.w3.org/2000/svg">
<g clip-path="url(#clip0_4594_38969)">
<path d="M32.4658 5C17.4741 5 5.32031 17.0592 5.32031 31.9332C5.32031 46.808 17.4741 58.8672 32.4658 58.8672C47.4576 58.8672 59.6113 46.808 59.6113 31.9332C59.6113 17.06 47.4576 5 32.4658 5ZM57.8458 31.9332C57.8458 45.8405 46.4833 57.1152 32.4658 57.1152C18.4483 57.1152 7.08581 45.8405 7.08581 31.9332C7.08581 18.0267 18.4491 6.75125 32.4658 6.75125C46.4826 6.75125 57.8458 18.0267 57.8458 31.9332Z" fill="#555555"/>
<path d="M45.6318 20.507C46 20.9 46.5318 21.5337 46.8303 21.9185L52.327 18.4565C52.0525 18.1002 51.6145 17.5587 51.2883 17.177L47.8068 19.4607L47.569 19.6632L47.746 19.4067L49.2835 16.3632L48.196 15.2847L45.127 16.8095L44.869 16.985L45.0745 16.7495L47.377 13.2972C46.972 12.9552 46.5828 12.6417 46.087 12.2622L42.5973 17.711C43.0398 18.0485 43.6225 18.5435 43.9938 18.881L47.2788 17.1897L47.4888 17.036L47.3343 17.2452L45.6318 20.507ZM33.1585 13.601L34.6608 10.2635L34.756 9.96722L34.729 10.2755L34.8865 14.7365C35.4137 14.786 35.9583 14.8587 36.4945 14.9472L36.25 8.34047C35.5 8.25797 34.753 8.19947 34.006 8.16797L32.5262 11.8115L32.4738 12.0822L32.4213 11.8122L30.9437 8.16797C30.196 8.19947 29.449 8.25797 28.699 8.34047L28.4553 14.948C28.9915 14.858 29.5352 14.7875 30.0625 14.7365L30.22 10.2755L30.193 9.96722L30.289 10.2627L31.7905 13.601H33.1585ZM21.0107 18.8667C21.8792 17.9592 22.3705 16.9107 21.5027 15.9102C21.0302 15.3672 20.2367 15.248 19.579 15.5157L19.5137 15.5412L19.5347 15.4842C19.6322 15.2262 19.6945 14.4027 18.9872 13.8342C18.6422 13.5567 18.2102 13.454 17.7722 13.4982C16.957 13.5807 16.33 14.1335 14.6223 16.0227C14.1063 16.5927 13.3563 17.4927 12.9062 18.0747L17.5968 22.49C19.1515 20.783 19.7852 20.1477 21.0107 18.8667ZM14.8908 17.7867C15.8343 16.64 16.8385 15.5997 17.2937 15.188C17.4377 15.0582 17.5938 14.9285 17.7835 14.8775C18.0918 14.7935 18.4098 15.011 18.481 15.3245C18.553 15.6395 18.3535 15.9387 18.1315 16.1855C17.632 16.745 15.7998 18.6462 15.7998 18.6462L14.89 17.7867H14.8908ZM16.7275 19.5162C16.7275 19.5162 18.5117 17.6442 19.0945 17.0457C19.3255 16.808 19.474 16.6632 19.6337 16.586C19.8392 16.4862 20.0642 16.466 20.266 16.5987C20.4632 16.7307 20.5547 16.9565 20.5052 17.1815C20.446 17.4492 20.2255 17.7042 20.044 17.8992L17.6785 20.411L16.7275 19.5162Z" fill="#555555"/>
<path d="M48.571 31.9334H32.473V15.9614C41.3695 15.9614 48.571 23.1067 48.571 31.9334ZM32.473 31.9334V47.9054C23.5765 47.9054 16.375 40.7602 16.375 31.9334H32.473Z" fill="white"/>
<path d="M32.473 15.9614V31.9334H16.375C16.375 23.1067 23.5765 15.9614 32.473 15.9614ZM48.571 31.9334C48.571 40.7609 41.3695 47.9054 32.473 47.9054V31.9334H48.571Z" fill="#555555"/>
</g>
<defs>
<clipPath id="clip0_4594_38969">
<rect width="54.75" height="54" fill="white" transform="translate(5 5)"/>
</clipPath>
</defs>
</svg>
