<svg width="131" height="64" viewBox="0 0 131 64" fill="none" xmlns="http://www.w3.org/2000/svg">
<g clip-path="url(#clip0_4626_44427)">
<path d="M66.592 42.8243C63.9456 42.8243 62.39 40.7782 62.2029 37.0668V36.899H73.7308V35.8921C73.7308 29.2309 71.1037 25.5647 66.3338 25.5647C62.6289 25.5647 58.3237 28.2369 58.3237 35.7823C58.3237 42.1788 61.3379 45.9999 66.4048 45.9999C67.8496 45.9845 69.2673 45.6057 70.5272 44.8984C71.7872 44.1912 72.8489 43.1782 73.6146 41.9529L71.1683 40.1908C69.9742 41.7657 68.7284 42.8243 66.592 42.8243ZM62.2416 34.0331C62.6547 29.5149 64.9525 28.8114 66.2886 28.8114C68.6252 28.8114 69.858 30.5218 70.0581 34.0396V34.2139H62.2287L62.2416 34.0331ZM106.352 42.8243C103.719 42.8243 102.163 40.7782 101.982 37.0668V36.899H113.497V35.8921C113.497 29.2309 110.87 25.5647 106.101 25.5647C102.408 25.5647 98.1033 28.2369 98.1033 35.7823C98.1033 42.1788 101.118 45.9999 106.178 45.9999C107.621 45.9816 109.037 45.6016 110.295 44.8945C111.554 44.1875 112.615 43.1761 113.381 41.9529L110.954 40.1779C109.741 41.7657 108.489 42.8243 106.352 42.8243ZM102.015 34.0331C102.428 29.5149 104.719 28.8114 106.049 28.8114C108.392 28.8114 109.625 30.5218 109.825 34.0396V34.2074H102.002L102.015 34.0331ZM25.1923 42.8243C22.5588 42.8243 21.0097 40.7782 20.8225 37.0668V36.899H32.331V35.8921C32.331 29.2309 29.704 25.5647 24.9341 25.5647C21.242 25.5647 16.9304 28.2369 16.9304 35.7823C16.9304 42.1788 19.9511 45.9999 25.0051 45.9999C26.4488 45.9834 27.8651 45.6041 29.1239 44.8969C30.3826 44.1897 31.4433 43.1773 32.2084 41.9529L29.7621 40.1908C28.5809 41.7657 27.3352 42.8243 25.1923 42.8243ZM20.8612 34.0331C21.2743 29.5149 23.5657 28.8114 24.8953 28.8114C27.2319 28.8114 28.4647 30.5218 28.6648 34.0396V34.2139H20.8419L20.8612 34.0331ZM9.38497 38.8612C9.38497 41.8884 7.64223 42.5209 6.15768 42.5209C4.5607 42.4406 3.01803 41.9152 1.70401 41.0041L0 43.9603C1.95574 45.2882 4.26492 45.9987 6.62886 45.9999C11.0632 45.9999 13.4901 43.5601 13.4901 39.1258V18.0709H9.38497V38.8612ZM49.1646 23.3702V25.952H41.0189V23.6671C41.0189 21.4338 42.5486 21.1756 43.6976 21.1756C43.8847 21.1756 44.485 21.1756 44.8142 21.2337V18.0709C44.5044 18.0709 43.4716 17.9741 42.7939 17.9741C38.876 17.9741 37.0493 19.6846 37.0493 23.3443V25.9262H34.1964V29.0244H37.0493V45.5868H41.0189V29.076H49.1646V45.5868H53.1342V29.076H56.7939V25.9778H53.1342V23.6671C53.1342 21.4338 54.6704 21.1756 55.8257 21.1756C56.0129 21.1756 56.6132 21.1756 56.9424 21.2337V18.0709C56.6326 18.0709 55.5934 17.9741 54.9221 17.9741C50.9848 17.9999 49.1646 19.7104 49.1646 23.3702ZM81.5408 28.9792L81.4956 29.0631H81.1664V25.9778H77.1969V45.5868H81.1664V32.3872C81.7098 31.4185 82.4988 30.6102 83.4541 30.0436C84.4094 29.477 85.4971 29.1722 86.6077 29.1599H87.4338C87.4338 28.8759 87.5242 25.8358 87.5371 25.5454H87.3241C86.1413 25.5491 84.9811 25.8696 83.9641 26.4734C82.947 27.0773 82.1103 27.9425 81.5408 28.9792ZM90.816 22.3826H94.8179V18.6777H90.816V22.3826ZM90.816 45.5868H94.7792V25.9778H90.816V45.5868ZM123.05 45.9999C126.516 45.9999 130.26 44.2249 130.26 40.3328C130.26 36.2406 127.033 35.1691 124.238 34.2203C122.095 33.5039 120.062 32.8197 120.062 30.8575C120.062 29.4181 121.095 28.6242 122.973 28.6242C123.843 28.6639 124.696 28.8868 125.474 29.2783C126.253 29.6698 126.94 30.2211 127.491 30.8962L129.821 28.7791C128.999 27.7681 127.962 26.9536 126.785 26.3952C125.608 25.8368 124.321 25.5486 123.018 25.5518C119.016 25.5518 116.331 27.7657 116.331 31.064C116.331 35.0981 119.558 36.189 122.34 37.1442C124.509 37.8865 126.562 38.5836 126.562 40.5845C126.562 42.1401 125.342 42.9986 123.128 42.9986C122.063 42.9684 121.018 42.7095 120.062 42.2395C119.107 41.7695 118.263 41.0994 117.59 40.2747L115.201 42.2886C116.119 43.4879 117.31 44.4505 118.676 45.0961C120.041 45.7417 121.541 46.0516 123.05 45.9999Z" fill="#555555"/>
</g>
<defs>
<clipPath id="clip0_4626_44427">
<rect width="130.254" height="28" fill="white" transform="translate(0 18)"/>
</clipPath>
</defs>
</svg>
